%TF.GenerationSoftware,KiCad,Pcbnew,8.0.4*%
%TF.CreationDate,2024-10-15T03:00:00-05:00*%
%TF.ProjectId,FPP_10_8,4650505f-3130-45f3-982e-6b696361645f,rev?*%
%TF.SameCoordinates,Original*%
%TF.FileFunction,Paste,Bot*%
%TF.FilePolarity,Positive*%
%FSLAX46Y46*%
G04 Gerber Fmt 4.6, Leading zero omitted, Abs format (unit mm)*
G04 Created by KiCad (PCBNEW 8.0.4) date 2024-10-15 03:00:00*
%MOMM*%
%LPD*%
G01*
G04 APERTURE LIST*
G04 Aperture macros list*
%AMRoundRect*
0 Rectangle with rounded corners*
0 $1 Rounding radius*
0 $2 $3 $4 $5 $6 $7 $8 $9 X,Y pos of 4 corners*
0 Add a 4 corners polygon primitive as box body*
4,1,4,$2,$3,$4,$5,$6,$7,$8,$9,$2,$3,0*
0 Add four circle primitives for the rounded corners*
1,1,$1+$1,$2,$3*
1,1,$1+$1,$4,$5*
1,1,$1+$1,$6,$7*
1,1,$1+$1,$8,$9*
0 Add four rect primitives between the rounded corners*
20,1,$1+$1,$2,$3,$4,$5,0*
20,1,$1+$1,$4,$5,$6,$7,0*
20,1,$1+$1,$6,$7,$8,$9,0*
20,1,$1+$1,$8,$9,$2,$3,0*%
G04 Aperture macros list end*
%ADD10RoundRect,0.237500X-0.237500X0.250000X-0.237500X-0.250000X0.237500X-0.250000X0.237500X0.250000X0*%
%ADD11RoundRect,0.237500X0.237500X-0.250000X0.237500X0.250000X-0.237500X0.250000X-0.237500X-0.250000X0*%
%ADD12RoundRect,0.237500X-0.250000X-0.237500X0.250000X-0.237500X0.250000X0.237500X-0.250000X0.237500X0*%
%ADD13RoundRect,0.150000X0.150000X-0.512500X0.150000X0.512500X-0.150000X0.512500X-0.150000X-0.512500X0*%
%ADD14RoundRect,0.237500X0.250000X0.237500X-0.250000X0.237500X-0.250000X-0.237500X0.250000X-0.237500X0*%
%ADD15RoundRect,0.250000X0.350000X0.450000X-0.350000X0.450000X-0.350000X-0.450000X0.350000X-0.450000X0*%
%ADD16RoundRect,0.250000X0.450000X-0.350000X0.450000X0.350000X-0.450000X0.350000X-0.450000X-0.350000X0*%
%ADD17RoundRect,0.250000X-0.350000X-0.450000X0.350000X-0.450000X0.350000X0.450000X-0.350000X0.450000X0*%
%ADD18RoundRect,0.250000X-0.450000X0.350000X-0.450000X-0.350000X0.450000X-0.350000X0.450000X0.350000X0*%
G04 APERTURE END LIST*
D10*
%TO.C,R31*%
X172150000Y-79687500D03*
X172150000Y-81512500D03*
%TD*%
%TO.C,R30*%
X163500000Y-79687500D03*
X163500000Y-81512500D03*
%TD*%
D11*
%TO.C,R29*%
X169250000Y-81512500D03*
X169250000Y-79687500D03*
%TD*%
D10*
%TO.C,R28*%
X166350000Y-79687500D03*
X166350000Y-81512500D03*
%TD*%
D12*
%TO.C,R26*%
X147625000Y-81150000D03*
X149450000Y-81150000D03*
%TD*%
D11*
%TO.C,R25*%
X160600000Y-81562500D03*
X160600000Y-79737500D03*
%TD*%
%TO.C,R24*%
X175050000Y-81512500D03*
X175050000Y-79687500D03*
%TD*%
D13*
%TO.C,Q2*%
X171750000Y-76075000D03*
X169850000Y-76075000D03*
X170800000Y-73800000D03*
%TD*%
%TO.C,Q1*%
X165662500Y-76075000D03*
X163762500Y-76075000D03*
X164712500Y-73800000D03*
%TD*%
D14*
%TO.C,C23*%
X149462500Y-78400000D03*
X147637500Y-78400000D03*
%TD*%
D15*
%TO.C,C22*%
X149550000Y-75300000D03*
X147550000Y-75300000D03*
%TD*%
D11*
%TO.C,1u2*%
X176500000Y-98500000D03*
X176500000Y-96675000D03*
%TD*%
%TO.C,1u1*%
X175100000Y-73300000D03*
X175100000Y-75125000D03*
%TD*%
D10*
%TO.C,C14*%
X128290000Y-96625000D03*
X128290000Y-98450000D03*
%TD*%
D12*
%TO.C,C20*%
X192080000Y-81630002D03*
X190255000Y-81630002D03*
%TD*%
D14*
%TO.C,R3*%
X144877000Y-96589000D03*
X143052000Y-96589000D03*
%TD*%
%TO.C,R10*%
X152800000Y-102620000D03*
X150975000Y-102620000D03*
%TD*%
%TO.C,R19*%
X160377000Y-99589000D03*
X158552000Y-99589000D03*
%TD*%
D16*
%TO.C,R7*%
X118790000Y-90950000D03*
X118790000Y-88950000D03*
%TD*%
D14*
%TO.C,R12*%
X152800000Y-96620000D03*
X150975000Y-96620000D03*
%TD*%
D16*
%TO.C,C16*%
X114790000Y-98950000D03*
X114790000Y-96950000D03*
%TD*%
D12*
%TO.C,Rout1*%
X184456000Y-97763002D03*
X182631000Y-97763002D03*
%TD*%
D14*
%TO.C,Rin1*%
X182748000Y-89294002D03*
X184573000Y-89294002D03*
%TD*%
D12*
%TO.C,Rset1*%
X184456000Y-100713002D03*
X182631000Y-100713002D03*
%TD*%
D14*
%TO.C,R22*%
X197260500Y-81594002D03*
X195435500Y-81594002D03*
%TD*%
D15*
%TO.C,C19*%
X182510500Y-84674002D03*
X184510500Y-84674002D03*
%TD*%
D14*
%TO.C,R11*%
X152800000Y-99870000D03*
X150975000Y-99870000D03*
%TD*%
D12*
%TO.C,R16*%
X158550000Y-93620000D03*
X160375000Y-93620000D03*
%TD*%
D11*
%TO.C,C17*%
X131040000Y-91200000D03*
X131040000Y-89375000D03*
%TD*%
D12*
%TO.C,R23*%
X195385500Y-84494002D03*
X197210500Y-84494002D03*
%TD*%
D11*
%TO.C,C5*%
X122040000Y-91025000D03*
X122040000Y-89200000D03*
%TD*%
D12*
%TO.C,R9*%
X150953500Y-93589000D03*
X152778500Y-93589000D03*
%TD*%
D11*
%TO.C,TR3*%
X131040000Y-98450000D03*
X131040000Y-96625000D03*
%TD*%
D17*
%TO.C,C21*%
X192160500Y-84774002D03*
X190160500Y-84774002D03*
%TD*%
D14*
%TO.C,C18*%
X182628500Y-81544002D03*
X184453500Y-81544002D03*
%TD*%
D17*
%TO.C,Ccomp1*%
X184493500Y-107213002D03*
X182493500Y-107213002D03*
%TD*%
D12*
%TO.C,R1*%
X142964500Y-102589000D03*
X144789500Y-102589000D03*
%TD*%
D10*
%TO.C,R20*%
X121290000Y-96875000D03*
X121290000Y-98700000D03*
%TD*%
D14*
%TO.C,R17*%
X160377000Y-96589000D03*
X158552000Y-96589000D03*
%TD*%
%TO.C,Ro1*%
X189398000Y-92044002D03*
X191223000Y-92044002D03*
%TD*%
D11*
%TO.C,R21*%
X128290000Y-91200000D03*
X128290000Y-89375000D03*
%TD*%
D12*
%TO.C,R4*%
X143052000Y-93589000D03*
X144877000Y-93589000D03*
%TD*%
D17*
%TO.C,Cset1*%
X184543500Y-103763002D03*
X182543500Y-103763002D03*
%TD*%
D14*
%TO.C,Cin1*%
X189398000Y-94944002D03*
X191223000Y-94944002D03*
%TD*%
D11*
%TO.C,C15*%
X124290000Y-98700000D03*
X124290000Y-96875000D03*
%TD*%
D17*
%TO.C,Rloop1*%
X191310500Y-88894002D03*
X189310500Y-88894002D03*
%TD*%
D11*
%TO.C,TR1*%
X115540000Y-90950000D03*
X115540000Y-89125000D03*
%TD*%
D14*
%TO.C,Rin2*%
X182723000Y-94894002D03*
X184548000Y-94894002D03*
%TD*%
D18*
%TO.C,L1*%
X118040000Y-96950000D03*
X118040000Y-98950000D03*
%TD*%
D14*
%TO.C,R18*%
X160377000Y-102589000D03*
X158552000Y-102589000D03*
%TD*%
D12*
%TO.C,R2*%
X143052000Y-99589000D03*
X144877000Y-99589000D03*
%TD*%
%TO.C,Cin2*%
X184548000Y-91994002D03*
X182723000Y-91994002D03*
%TD*%
M02*
