%TF.GenerationSoftware,KiCad,Pcbnew,8.0.4*%
%TF.CreationDate,2024-10-15T03:00:00-05:00*%
%TF.ProjectId,FPP_10_8,4650505f-3130-45f3-982e-6b696361645f,rev?*%
%TF.SameCoordinates,Original*%
%TF.FileFunction,Profile,NP*%
%FSLAX46Y46*%
G04 Gerber Fmt 4.6, Leading zero omitted, Abs format (unit mm)*
G04 Created by KiCad (PCBNEW 8.0.4) date 2024-10-15 03:00:00*
%MOMM*%
%LPD*%
G01*
G04 APERTURE LIST*
%ADD10C,0.150000*%
%TA.AperFunction,Profile*%
%ADD11C,0.050000*%
%TD*%
%TA.AperFunction,Profile*%
%ADD12C,0.010000*%
%TD*%
G04 APERTURE END LIST*
D10*
X165824580Y-100391792D02*
X165872200Y-100439411D01*
X165872200Y-100439411D02*
X165919819Y-100582268D01*
X165919819Y-100582268D02*
X165919819Y-100677506D01*
X165919819Y-100677506D02*
X165872200Y-100820363D01*
X165872200Y-100820363D02*
X165776961Y-100915601D01*
X165776961Y-100915601D02*
X165681723Y-100963220D01*
X165681723Y-100963220D02*
X165491247Y-101010839D01*
X165491247Y-101010839D02*
X165348390Y-101010839D01*
X165348390Y-101010839D02*
X165157914Y-100963220D01*
X165157914Y-100963220D02*
X165062676Y-100915601D01*
X165062676Y-100915601D02*
X164967438Y-100820363D01*
X164967438Y-100820363D02*
X164919819Y-100677506D01*
X164919819Y-100677506D02*
X164919819Y-100582268D01*
X164919819Y-100582268D02*
X164967438Y-100439411D01*
X164967438Y-100439411D02*
X165015057Y-100391792D01*
X165919819Y-99963220D02*
X164919819Y-99963220D01*
X165396009Y-99963220D02*
X165396009Y-99391792D01*
X165919819Y-99391792D02*
X164919819Y-99391792D01*
X165919819Y-98915601D02*
X164919819Y-98915601D01*
X165919819Y-98439411D02*
X164919819Y-98439411D01*
X164919819Y-98439411D02*
X164919819Y-98058459D01*
X164919819Y-98058459D02*
X164967438Y-97963221D01*
X164967438Y-97963221D02*
X165015057Y-97915602D01*
X165015057Y-97915602D02*
X165110295Y-97867983D01*
X165110295Y-97867983D02*
X165253152Y-97867983D01*
X165253152Y-97867983D02*
X165348390Y-97915602D01*
X165348390Y-97915602D02*
X165396009Y-97963221D01*
X165396009Y-97963221D02*
X165443628Y-98058459D01*
X165443628Y-98058459D02*
X165443628Y-98439411D01*
X166015057Y-97677507D02*
X166015057Y-96915602D01*
X165919819Y-96677506D02*
X164919819Y-96677506D01*
X164919819Y-96677506D02*
X164919819Y-96296554D01*
X164919819Y-96296554D02*
X164967438Y-96201316D01*
X164967438Y-96201316D02*
X165015057Y-96153697D01*
X165015057Y-96153697D02*
X165110295Y-96106078D01*
X165110295Y-96106078D02*
X165253152Y-96106078D01*
X165253152Y-96106078D02*
X165348390Y-96153697D01*
X165348390Y-96153697D02*
X165396009Y-96201316D01*
X165396009Y-96201316D02*
X165443628Y-96296554D01*
X165443628Y-96296554D02*
X165443628Y-96677506D01*
X164919819Y-95677506D02*
X165729342Y-95677506D01*
X165729342Y-95677506D02*
X165824580Y-95629887D01*
X165824580Y-95629887D02*
X165872200Y-95582268D01*
X165872200Y-95582268D02*
X165919819Y-95487030D01*
X165919819Y-95487030D02*
X165919819Y-95296554D01*
X165919819Y-95296554D02*
X165872200Y-95201316D01*
X165872200Y-95201316D02*
X165824580Y-95153697D01*
X165824580Y-95153697D02*
X165729342Y-95106078D01*
X165729342Y-95106078D02*
X164919819Y-95106078D01*
D11*
X103750000Y-66400000D02*
X199750000Y-66400000D01*
X199750000Y-119400000D01*
X103750000Y-119400000D01*
X103750000Y-66400000D01*
D12*
%TO.C,J2*%
X103682500Y-87780000D02*
X103682500Y-97020000D01*
%TD*%
M02*
