%TF.GenerationSoftware,KiCad,Pcbnew,8.0.4*%
%TF.CreationDate,2024-10-15T03:00:00-05:00*%
%TF.ProjectId,FPP_10_8,4650505f-3130-45f3-982e-6b696361645f,rev?*%
%TF.SameCoordinates,Original*%
%TF.FileFunction,Legend,Bot*%
%TF.FilePolarity,Positive*%
%FSLAX46Y46*%
G04 Gerber Fmt 4.6, Leading zero omitted, Abs format (unit mm)*
G04 Created by KiCad (PCBNEW 8.0.4) date 2024-10-15 03:00:00*
%MOMM*%
%LPD*%
G01*
G04 APERTURE LIST*
%ADD10C,0.150000*%
%ADD11C,0.120000*%
G04 APERTURE END LIST*
D10*
X171204819Y-79944642D02*
X170728628Y-79611309D01*
X171204819Y-79373214D02*
X170204819Y-79373214D01*
X170204819Y-79373214D02*
X170204819Y-79754166D01*
X170204819Y-79754166D02*
X170252438Y-79849404D01*
X170252438Y-79849404D02*
X170300057Y-79897023D01*
X170300057Y-79897023D02*
X170395295Y-79944642D01*
X170395295Y-79944642D02*
X170538152Y-79944642D01*
X170538152Y-79944642D02*
X170633390Y-79897023D01*
X170633390Y-79897023D02*
X170681009Y-79849404D01*
X170681009Y-79849404D02*
X170728628Y-79754166D01*
X170728628Y-79754166D02*
X170728628Y-79373214D01*
X170204819Y-80277976D02*
X170204819Y-80897023D01*
X170204819Y-80897023D02*
X170585771Y-80563690D01*
X170585771Y-80563690D02*
X170585771Y-80706547D01*
X170585771Y-80706547D02*
X170633390Y-80801785D01*
X170633390Y-80801785D02*
X170681009Y-80849404D01*
X170681009Y-80849404D02*
X170776247Y-80897023D01*
X170776247Y-80897023D02*
X171014342Y-80897023D01*
X171014342Y-80897023D02*
X171109580Y-80849404D01*
X171109580Y-80849404D02*
X171157200Y-80801785D01*
X171157200Y-80801785D02*
X171204819Y-80706547D01*
X171204819Y-80706547D02*
X171204819Y-80420833D01*
X171204819Y-80420833D02*
X171157200Y-80325595D01*
X171157200Y-80325595D02*
X171109580Y-80277976D01*
X171204819Y-81849404D02*
X171204819Y-81277976D01*
X171204819Y-81563690D02*
X170204819Y-81563690D01*
X170204819Y-81563690D02*
X170347676Y-81468452D01*
X170347676Y-81468452D02*
X170442914Y-81373214D01*
X170442914Y-81373214D02*
X170490533Y-81277976D01*
X162524819Y-79957142D02*
X162048628Y-79623809D01*
X162524819Y-79385714D02*
X161524819Y-79385714D01*
X161524819Y-79385714D02*
X161524819Y-79766666D01*
X161524819Y-79766666D02*
X161572438Y-79861904D01*
X161572438Y-79861904D02*
X161620057Y-79909523D01*
X161620057Y-79909523D02*
X161715295Y-79957142D01*
X161715295Y-79957142D02*
X161858152Y-79957142D01*
X161858152Y-79957142D02*
X161953390Y-79909523D01*
X161953390Y-79909523D02*
X162001009Y-79861904D01*
X162001009Y-79861904D02*
X162048628Y-79766666D01*
X162048628Y-79766666D02*
X162048628Y-79385714D01*
X161524819Y-80290476D02*
X161524819Y-80909523D01*
X161524819Y-80909523D02*
X161905771Y-80576190D01*
X161905771Y-80576190D02*
X161905771Y-80719047D01*
X161905771Y-80719047D02*
X161953390Y-80814285D01*
X161953390Y-80814285D02*
X162001009Y-80861904D01*
X162001009Y-80861904D02*
X162096247Y-80909523D01*
X162096247Y-80909523D02*
X162334342Y-80909523D01*
X162334342Y-80909523D02*
X162429580Y-80861904D01*
X162429580Y-80861904D02*
X162477200Y-80814285D01*
X162477200Y-80814285D02*
X162524819Y-80719047D01*
X162524819Y-80719047D02*
X162524819Y-80433333D01*
X162524819Y-80433333D02*
X162477200Y-80338095D01*
X162477200Y-80338095D02*
X162429580Y-80290476D01*
X161524819Y-81528571D02*
X161524819Y-81623809D01*
X161524819Y-81623809D02*
X161572438Y-81719047D01*
X161572438Y-81719047D02*
X161620057Y-81766666D01*
X161620057Y-81766666D02*
X161715295Y-81814285D01*
X161715295Y-81814285D02*
X161905771Y-81861904D01*
X161905771Y-81861904D02*
X162143866Y-81861904D01*
X162143866Y-81861904D02*
X162334342Y-81814285D01*
X162334342Y-81814285D02*
X162429580Y-81766666D01*
X162429580Y-81766666D02*
X162477200Y-81719047D01*
X162477200Y-81719047D02*
X162524819Y-81623809D01*
X162524819Y-81623809D02*
X162524819Y-81528571D01*
X162524819Y-81528571D02*
X162477200Y-81433333D01*
X162477200Y-81433333D02*
X162429580Y-81385714D01*
X162429580Y-81385714D02*
X162334342Y-81338095D01*
X162334342Y-81338095D02*
X162143866Y-81290476D01*
X162143866Y-81290476D02*
X161905771Y-81290476D01*
X161905771Y-81290476D02*
X161715295Y-81338095D01*
X161715295Y-81338095D02*
X161620057Y-81385714D01*
X161620057Y-81385714D02*
X161572438Y-81433333D01*
X161572438Y-81433333D02*
X161524819Y-81528571D01*
X168304819Y-79944642D02*
X167828628Y-79611309D01*
X168304819Y-79373214D02*
X167304819Y-79373214D01*
X167304819Y-79373214D02*
X167304819Y-79754166D01*
X167304819Y-79754166D02*
X167352438Y-79849404D01*
X167352438Y-79849404D02*
X167400057Y-79897023D01*
X167400057Y-79897023D02*
X167495295Y-79944642D01*
X167495295Y-79944642D02*
X167638152Y-79944642D01*
X167638152Y-79944642D02*
X167733390Y-79897023D01*
X167733390Y-79897023D02*
X167781009Y-79849404D01*
X167781009Y-79849404D02*
X167828628Y-79754166D01*
X167828628Y-79754166D02*
X167828628Y-79373214D01*
X167400057Y-80325595D02*
X167352438Y-80373214D01*
X167352438Y-80373214D02*
X167304819Y-80468452D01*
X167304819Y-80468452D02*
X167304819Y-80706547D01*
X167304819Y-80706547D02*
X167352438Y-80801785D01*
X167352438Y-80801785D02*
X167400057Y-80849404D01*
X167400057Y-80849404D02*
X167495295Y-80897023D01*
X167495295Y-80897023D02*
X167590533Y-80897023D01*
X167590533Y-80897023D02*
X167733390Y-80849404D01*
X167733390Y-80849404D02*
X168304819Y-80277976D01*
X168304819Y-80277976D02*
X168304819Y-80897023D01*
X168304819Y-81373214D02*
X168304819Y-81563690D01*
X168304819Y-81563690D02*
X168257200Y-81658928D01*
X168257200Y-81658928D02*
X168209580Y-81706547D01*
X168209580Y-81706547D02*
X168066723Y-81801785D01*
X168066723Y-81801785D02*
X167876247Y-81849404D01*
X167876247Y-81849404D02*
X167495295Y-81849404D01*
X167495295Y-81849404D02*
X167400057Y-81801785D01*
X167400057Y-81801785D02*
X167352438Y-81754166D01*
X167352438Y-81754166D02*
X167304819Y-81658928D01*
X167304819Y-81658928D02*
X167304819Y-81468452D01*
X167304819Y-81468452D02*
X167352438Y-81373214D01*
X167352438Y-81373214D02*
X167400057Y-81325595D01*
X167400057Y-81325595D02*
X167495295Y-81277976D01*
X167495295Y-81277976D02*
X167733390Y-81277976D01*
X167733390Y-81277976D02*
X167828628Y-81325595D01*
X167828628Y-81325595D02*
X167876247Y-81373214D01*
X167876247Y-81373214D02*
X167923866Y-81468452D01*
X167923866Y-81468452D02*
X167923866Y-81658928D01*
X167923866Y-81658928D02*
X167876247Y-81754166D01*
X167876247Y-81754166D02*
X167828628Y-81801785D01*
X167828628Y-81801785D02*
X167733390Y-81849404D01*
X165374819Y-79957142D02*
X164898628Y-79623809D01*
X165374819Y-79385714D02*
X164374819Y-79385714D01*
X164374819Y-79385714D02*
X164374819Y-79766666D01*
X164374819Y-79766666D02*
X164422438Y-79861904D01*
X164422438Y-79861904D02*
X164470057Y-79909523D01*
X164470057Y-79909523D02*
X164565295Y-79957142D01*
X164565295Y-79957142D02*
X164708152Y-79957142D01*
X164708152Y-79957142D02*
X164803390Y-79909523D01*
X164803390Y-79909523D02*
X164851009Y-79861904D01*
X164851009Y-79861904D02*
X164898628Y-79766666D01*
X164898628Y-79766666D02*
X164898628Y-79385714D01*
X164470057Y-80338095D02*
X164422438Y-80385714D01*
X164422438Y-80385714D02*
X164374819Y-80480952D01*
X164374819Y-80480952D02*
X164374819Y-80719047D01*
X164374819Y-80719047D02*
X164422438Y-80814285D01*
X164422438Y-80814285D02*
X164470057Y-80861904D01*
X164470057Y-80861904D02*
X164565295Y-80909523D01*
X164565295Y-80909523D02*
X164660533Y-80909523D01*
X164660533Y-80909523D02*
X164803390Y-80861904D01*
X164803390Y-80861904D02*
X165374819Y-80290476D01*
X165374819Y-80290476D02*
X165374819Y-80909523D01*
X164803390Y-81480952D02*
X164755771Y-81385714D01*
X164755771Y-81385714D02*
X164708152Y-81338095D01*
X164708152Y-81338095D02*
X164612914Y-81290476D01*
X164612914Y-81290476D02*
X164565295Y-81290476D01*
X164565295Y-81290476D02*
X164470057Y-81338095D01*
X164470057Y-81338095D02*
X164422438Y-81385714D01*
X164422438Y-81385714D02*
X164374819Y-81480952D01*
X164374819Y-81480952D02*
X164374819Y-81671428D01*
X164374819Y-81671428D02*
X164422438Y-81766666D01*
X164422438Y-81766666D02*
X164470057Y-81814285D01*
X164470057Y-81814285D02*
X164565295Y-81861904D01*
X164565295Y-81861904D02*
X164612914Y-81861904D01*
X164612914Y-81861904D02*
X164708152Y-81814285D01*
X164708152Y-81814285D02*
X164755771Y-81766666D01*
X164755771Y-81766666D02*
X164803390Y-81671428D01*
X164803390Y-81671428D02*
X164803390Y-81480952D01*
X164803390Y-81480952D02*
X164851009Y-81385714D01*
X164851009Y-81385714D02*
X164898628Y-81338095D01*
X164898628Y-81338095D02*
X164993866Y-81290476D01*
X164993866Y-81290476D02*
X165184342Y-81290476D01*
X165184342Y-81290476D02*
X165279580Y-81338095D01*
X165279580Y-81338095D02*
X165327200Y-81385714D01*
X165327200Y-81385714D02*
X165374819Y-81480952D01*
X165374819Y-81480952D02*
X165374819Y-81671428D01*
X165374819Y-81671428D02*
X165327200Y-81766666D01*
X165327200Y-81766666D02*
X165279580Y-81814285D01*
X165279580Y-81814285D02*
X165184342Y-81861904D01*
X165184342Y-81861904D02*
X164993866Y-81861904D01*
X164993866Y-81861904D02*
X164898628Y-81814285D01*
X164898628Y-81814285D02*
X164851009Y-81766666D01*
X164851009Y-81766666D02*
X164803390Y-81671428D01*
X149192857Y-80254819D02*
X149526190Y-79778628D01*
X149764285Y-80254819D02*
X149764285Y-79254819D01*
X149764285Y-79254819D02*
X149383333Y-79254819D01*
X149383333Y-79254819D02*
X149288095Y-79302438D01*
X149288095Y-79302438D02*
X149240476Y-79350057D01*
X149240476Y-79350057D02*
X149192857Y-79445295D01*
X149192857Y-79445295D02*
X149192857Y-79588152D01*
X149192857Y-79588152D02*
X149240476Y-79683390D01*
X149240476Y-79683390D02*
X149288095Y-79731009D01*
X149288095Y-79731009D02*
X149383333Y-79778628D01*
X149383333Y-79778628D02*
X149764285Y-79778628D01*
X148811904Y-79350057D02*
X148764285Y-79302438D01*
X148764285Y-79302438D02*
X148669047Y-79254819D01*
X148669047Y-79254819D02*
X148430952Y-79254819D01*
X148430952Y-79254819D02*
X148335714Y-79302438D01*
X148335714Y-79302438D02*
X148288095Y-79350057D01*
X148288095Y-79350057D02*
X148240476Y-79445295D01*
X148240476Y-79445295D02*
X148240476Y-79540533D01*
X148240476Y-79540533D02*
X148288095Y-79683390D01*
X148288095Y-79683390D02*
X148859523Y-80254819D01*
X148859523Y-80254819D02*
X148240476Y-80254819D01*
X147383333Y-79254819D02*
X147573809Y-79254819D01*
X147573809Y-79254819D02*
X147669047Y-79302438D01*
X147669047Y-79302438D02*
X147716666Y-79350057D01*
X147716666Y-79350057D02*
X147811904Y-79492914D01*
X147811904Y-79492914D02*
X147859523Y-79683390D01*
X147859523Y-79683390D02*
X147859523Y-80064342D01*
X147859523Y-80064342D02*
X147811904Y-80159580D01*
X147811904Y-80159580D02*
X147764285Y-80207200D01*
X147764285Y-80207200D02*
X147669047Y-80254819D01*
X147669047Y-80254819D02*
X147478571Y-80254819D01*
X147478571Y-80254819D02*
X147383333Y-80207200D01*
X147383333Y-80207200D02*
X147335714Y-80159580D01*
X147335714Y-80159580D02*
X147288095Y-80064342D01*
X147288095Y-80064342D02*
X147288095Y-79826247D01*
X147288095Y-79826247D02*
X147335714Y-79731009D01*
X147335714Y-79731009D02*
X147383333Y-79683390D01*
X147383333Y-79683390D02*
X147478571Y-79635771D01*
X147478571Y-79635771D02*
X147669047Y-79635771D01*
X147669047Y-79635771D02*
X147764285Y-79683390D01*
X147764285Y-79683390D02*
X147811904Y-79731009D01*
X147811904Y-79731009D02*
X147859523Y-79826247D01*
X159654819Y-79994642D02*
X159178628Y-79661309D01*
X159654819Y-79423214D02*
X158654819Y-79423214D01*
X158654819Y-79423214D02*
X158654819Y-79804166D01*
X158654819Y-79804166D02*
X158702438Y-79899404D01*
X158702438Y-79899404D02*
X158750057Y-79947023D01*
X158750057Y-79947023D02*
X158845295Y-79994642D01*
X158845295Y-79994642D02*
X158988152Y-79994642D01*
X158988152Y-79994642D02*
X159083390Y-79947023D01*
X159083390Y-79947023D02*
X159131009Y-79899404D01*
X159131009Y-79899404D02*
X159178628Y-79804166D01*
X159178628Y-79804166D02*
X159178628Y-79423214D01*
X158750057Y-80375595D02*
X158702438Y-80423214D01*
X158702438Y-80423214D02*
X158654819Y-80518452D01*
X158654819Y-80518452D02*
X158654819Y-80756547D01*
X158654819Y-80756547D02*
X158702438Y-80851785D01*
X158702438Y-80851785D02*
X158750057Y-80899404D01*
X158750057Y-80899404D02*
X158845295Y-80947023D01*
X158845295Y-80947023D02*
X158940533Y-80947023D01*
X158940533Y-80947023D02*
X159083390Y-80899404D01*
X159083390Y-80899404D02*
X159654819Y-80327976D01*
X159654819Y-80327976D02*
X159654819Y-80947023D01*
X158654819Y-81851785D02*
X158654819Y-81375595D01*
X158654819Y-81375595D02*
X159131009Y-81327976D01*
X159131009Y-81327976D02*
X159083390Y-81375595D01*
X159083390Y-81375595D02*
X159035771Y-81470833D01*
X159035771Y-81470833D02*
X159035771Y-81708928D01*
X159035771Y-81708928D02*
X159083390Y-81804166D01*
X159083390Y-81804166D02*
X159131009Y-81851785D01*
X159131009Y-81851785D02*
X159226247Y-81899404D01*
X159226247Y-81899404D02*
X159464342Y-81899404D01*
X159464342Y-81899404D02*
X159559580Y-81851785D01*
X159559580Y-81851785D02*
X159607200Y-81804166D01*
X159607200Y-81804166D02*
X159654819Y-81708928D01*
X159654819Y-81708928D02*
X159654819Y-81470833D01*
X159654819Y-81470833D02*
X159607200Y-81375595D01*
X159607200Y-81375595D02*
X159559580Y-81327976D01*
X174104819Y-79894642D02*
X173628628Y-79561309D01*
X174104819Y-79323214D02*
X173104819Y-79323214D01*
X173104819Y-79323214D02*
X173104819Y-79704166D01*
X173104819Y-79704166D02*
X173152438Y-79799404D01*
X173152438Y-79799404D02*
X173200057Y-79847023D01*
X173200057Y-79847023D02*
X173295295Y-79894642D01*
X173295295Y-79894642D02*
X173438152Y-79894642D01*
X173438152Y-79894642D02*
X173533390Y-79847023D01*
X173533390Y-79847023D02*
X173581009Y-79799404D01*
X173581009Y-79799404D02*
X173628628Y-79704166D01*
X173628628Y-79704166D02*
X173628628Y-79323214D01*
X173200057Y-80275595D02*
X173152438Y-80323214D01*
X173152438Y-80323214D02*
X173104819Y-80418452D01*
X173104819Y-80418452D02*
X173104819Y-80656547D01*
X173104819Y-80656547D02*
X173152438Y-80751785D01*
X173152438Y-80751785D02*
X173200057Y-80799404D01*
X173200057Y-80799404D02*
X173295295Y-80847023D01*
X173295295Y-80847023D02*
X173390533Y-80847023D01*
X173390533Y-80847023D02*
X173533390Y-80799404D01*
X173533390Y-80799404D02*
X174104819Y-80227976D01*
X174104819Y-80227976D02*
X174104819Y-80847023D01*
X173438152Y-81704166D02*
X174104819Y-81704166D01*
X173057200Y-81466071D02*
X173771485Y-81227976D01*
X173771485Y-81227976D02*
X173771485Y-81847023D01*
X169000057Y-74804761D02*
X168952438Y-74709523D01*
X168952438Y-74709523D02*
X168857200Y-74614285D01*
X168857200Y-74614285D02*
X168714342Y-74471428D01*
X168714342Y-74471428D02*
X168666723Y-74376190D01*
X168666723Y-74376190D02*
X168666723Y-74280952D01*
X168904819Y-74328571D02*
X168857200Y-74233333D01*
X168857200Y-74233333D02*
X168761961Y-74138095D01*
X168761961Y-74138095D02*
X168571485Y-74090476D01*
X168571485Y-74090476D02*
X168238152Y-74090476D01*
X168238152Y-74090476D02*
X168047676Y-74138095D01*
X168047676Y-74138095D02*
X167952438Y-74233333D01*
X167952438Y-74233333D02*
X167904819Y-74328571D01*
X167904819Y-74328571D02*
X167904819Y-74519047D01*
X167904819Y-74519047D02*
X167952438Y-74614285D01*
X167952438Y-74614285D02*
X168047676Y-74709523D01*
X168047676Y-74709523D02*
X168238152Y-74757142D01*
X168238152Y-74757142D02*
X168571485Y-74757142D01*
X168571485Y-74757142D02*
X168761961Y-74709523D01*
X168761961Y-74709523D02*
X168857200Y-74614285D01*
X168857200Y-74614285D02*
X168904819Y-74519047D01*
X168904819Y-74519047D02*
X168904819Y-74328571D01*
X168000057Y-75138095D02*
X167952438Y-75185714D01*
X167952438Y-75185714D02*
X167904819Y-75280952D01*
X167904819Y-75280952D02*
X167904819Y-75519047D01*
X167904819Y-75519047D02*
X167952438Y-75614285D01*
X167952438Y-75614285D02*
X168000057Y-75661904D01*
X168000057Y-75661904D02*
X168095295Y-75709523D01*
X168095295Y-75709523D02*
X168190533Y-75709523D01*
X168190533Y-75709523D02*
X168333390Y-75661904D01*
X168333390Y-75661904D02*
X168904819Y-75090476D01*
X168904819Y-75090476D02*
X168904819Y-75709523D01*
X162900057Y-74804761D02*
X162852438Y-74709523D01*
X162852438Y-74709523D02*
X162757200Y-74614285D01*
X162757200Y-74614285D02*
X162614342Y-74471428D01*
X162614342Y-74471428D02*
X162566723Y-74376190D01*
X162566723Y-74376190D02*
X162566723Y-74280952D01*
X162804819Y-74328571D02*
X162757200Y-74233333D01*
X162757200Y-74233333D02*
X162661961Y-74138095D01*
X162661961Y-74138095D02*
X162471485Y-74090476D01*
X162471485Y-74090476D02*
X162138152Y-74090476D01*
X162138152Y-74090476D02*
X161947676Y-74138095D01*
X161947676Y-74138095D02*
X161852438Y-74233333D01*
X161852438Y-74233333D02*
X161804819Y-74328571D01*
X161804819Y-74328571D02*
X161804819Y-74519047D01*
X161804819Y-74519047D02*
X161852438Y-74614285D01*
X161852438Y-74614285D02*
X161947676Y-74709523D01*
X161947676Y-74709523D02*
X162138152Y-74757142D01*
X162138152Y-74757142D02*
X162471485Y-74757142D01*
X162471485Y-74757142D02*
X162661961Y-74709523D01*
X162661961Y-74709523D02*
X162757200Y-74614285D01*
X162757200Y-74614285D02*
X162804819Y-74519047D01*
X162804819Y-74519047D02*
X162804819Y-74328571D01*
X162804819Y-75709523D02*
X162804819Y-75138095D01*
X162804819Y-75423809D02*
X161804819Y-75423809D01*
X161804819Y-75423809D02*
X161947676Y-75328571D01*
X161947676Y-75328571D02*
X162042914Y-75233333D01*
X162042914Y-75233333D02*
X162090533Y-75138095D01*
X149192857Y-77329580D02*
X149240476Y-77377200D01*
X149240476Y-77377200D02*
X149383333Y-77424819D01*
X149383333Y-77424819D02*
X149478571Y-77424819D01*
X149478571Y-77424819D02*
X149621428Y-77377200D01*
X149621428Y-77377200D02*
X149716666Y-77281961D01*
X149716666Y-77281961D02*
X149764285Y-77186723D01*
X149764285Y-77186723D02*
X149811904Y-76996247D01*
X149811904Y-76996247D02*
X149811904Y-76853390D01*
X149811904Y-76853390D02*
X149764285Y-76662914D01*
X149764285Y-76662914D02*
X149716666Y-76567676D01*
X149716666Y-76567676D02*
X149621428Y-76472438D01*
X149621428Y-76472438D02*
X149478571Y-76424819D01*
X149478571Y-76424819D02*
X149383333Y-76424819D01*
X149383333Y-76424819D02*
X149240476Y-76472438D01*
X149240476Y-76472438D02*
X149192857Y-76520057D01*
X148811904Y-76520057D02*
X148764285Y-76472438D01*
X148764285Y-76472438D02*
X148669047Y-76424819D01*
X148669047Y-76424819D02*
X148430952Y-76424819D01*
X148430952Y-76424819D02*
X148335714Y-76472438D01*
X148335714Y-76472438D02*
X148288095Y-76520057D01*
X148288095Y-76520057D02*
X148240476Y-76615295D01*
X148240476Y-76615295D02*
X148240476Y-76710533D01*
X148240476Y-76710533D02*
X148288095Y-76853390D01*
X148288095Y-76853390D02*
X148859523Y-77424819D01*
X148859523Y-77424819D02*
X148240476Y-77424819D01*
X147907142Y-76424819D02*
X147288095Y-76424819D01*
X147288095Y-76424819D02*
X147621428Y-76805771D01*
X147621428Y-76805771D02*
X147478571Y-76805771D01*
X147478571Y-76805771D02*
X147383333Y-76853390D01*
X147383333Y-76853390D02*
X147335714Y-76901009D01*
X147335714Y-76901009D02*
X147288095Y-76996247D01*
X147288095Y-76996247D02*
X147288095Y-77234342D01*
X147288095Y-77234342D02*
X147335714Y-77329580D01*
X147335714Y-77329580D02*
X147383333Y-77377200D01*
X147383333Y-77377200D02*
X147478571Y-77424819D01*
X147478571Y-77424819D02*
X147764285Y-77424819D01*
X147764285Y-77424819D02*
X147859523Y-77377200D01*
X147859523Y-77377200D02*
X147907142Y-77329580D01*
X149192857Y-74009580D02*
X149240476Y-74057200D01*
X149240476Y-74057200D02*
X149383333Y-74104819D01*
X149383333Y-74104819D02*
X149478571Y-74104819D01*
X149478571Y-74104819D02*
X149621428Y-74057200D01*
X149621428Y-74057200D02*
X149716666Y-73961961D01*
X149716666Y-73961961D02*
X149764285Y-73866723D01*
X149764285Y-73866723D02*
X149811904Y-73676247D01*
X149811904Y-73676247D02*
X149811904Y-73533390D01*
X149811904Y-73533390D02*
X149764285Y-73342914D01*
X149764285Y-73342914D02*
X149716666Y-73247676D01*
X149716666Y-73247676D02*
X149621428Y-73152438D01*
X149621428Y-73152438D02*
X149478571Y-73104819D01*
X149478571Y-73104819D02*
X149383333Y-73104819D01*
X149383333Y-73104819D02*
X149240476Y-73152438D01*
X149240476Y-73152438D02*
X149192857Y-73200057D01*
X148811904Y-73200057D02*
X148764285Y-73152438D01*
X148764285Y-73152438D02*
X148669047Y-73104819D01*
X148669047Y-73104819D02*
X148430952Y-73104819D01*
X148430952Y-73104819D02*
X148335714Y-73152438D01*
X148335714Y-73152438D02*
X148288095Y-73200057D01*
X148288095Y-73200057D02*
X148240476Y-73295295D01*
X148240476Y-73295295D02*
X148240476Y-73390533D01*
X148240476Y-73390533D02*
X148288095Y-73533390D01*
X148288095Y-73533390D02*
X148859523Y-74104819D01*
X148859523Y-74104819D02*
X148240476Y-74104819D01*
X147859523Y-73200057D02*
X147811904Y-73152438D01*
X147811904Y-73152438D02*
X147716666Y-73104819D01*
X147716666Y-73104819D02*
X147478571Y-73104819D01*
X147478571Y-73104819D02*
X147383333Y-73152438D01*
X147383333Y-73152438D02*
X147335714Y-73200057D01*
X147335714Y-73200057D02*
X147288095Y-73295295D01*
X147288095Y-73295295D02*
X147288095Y-73390533D01*
X147288095Y-73390533D02*
X147335714Y-73533390D01*
X147335714Y-73533390D02*
X147907142Y-74104819D01*
X147907142Y-74104819D02*
X147288095Y-74104819D01*
X175554819Y-96857142D02*
X175554819Y-96285714D01*
X175554819Y-96571428D02*
X174554819Y-96571428D01*
X174554819Y-96571428D02*
X174697676Y-96476190D01*
X174697676Y-96476190D02*
X174792914Y-96380952D01*
X174792914Y-96380952D02*
X174840533Y-96285714D01*
X174888152Y-97714285D02*
X175554819Y-97714285D01*
X174888152Y-97285714D02*
X175411961Y-97285714D01*
X175411961Y-97285714D02*
X175507200Y-97333333D01*
X175507200Y-97333333D02*
X175554819Y-97428571D01*
X175554819Y-97428571D02*
X175554819Y-97571428D01*
X175554819Y-97571428D02*
X175507200Y-97666666D01*
X175507200Y-97666666D02*
X175459580Y-97714285D01*
X174650057Y-98142857D02*
X174602438Y-98190476D01*
X174602438Y-98190476D02*
X174554819Y-98285714D01*
X174554819Y-98285714D02*
X174554819Y-98523809D01*
X174554819Y-98523809D02*
X174602438Y-98619047D01*
X174602438Y-98619047D02*
X174650057Y-98666666D01*
X174650057Y-98666666D02*
X174745295Y-98714285D01*
X174745295Y-98714285D02*
X174840533Y-98714285D01*
X174840533Y-98714285D02*
X174983390Y-98666666D01*
X174983390Y-98666666D02*
X175554819Y-98095238D01*
X175554819Y-98095238D02*
X175554819Y-98714285D01*
X174154819Y-73657142D02*
X174154819Y-73085714D01*
X174154819Y-73371428D02*
X173154819Y-73371428D01*
X173154819Y-73371428D02*
X173297676Y-73276190D01*
X173297676Y-73276190D02*
X173392914Y-73180952D01*
X173392914Y-73180952D02*
X173440533Y-73085714D01*
X173488152Y-74514285D02*
X174154819Y-74514285D01*
X173488152Y-74085714D02*
X174011961Y-74085714D01*
X174011961Y-74085714D02*
X174107200Y-74133333D01*
X174107200Y-74133333D02*
X174154819Y-74228571D01*
X174154819Y-74228571D02*
X174154819Y-74371428D01*
X174154819Y-74371428D02*
X174107200Y-74466666D01*
X174107200Y-74466666D02*
X174059580Y-74514285D01*
X174154819Y-75514285D02*
X174154819Y-74942857D01*
X174154819Y-75228571D02*
X173154819Y-75228571D01*
X173154819Y-75228571D02*
X173297676Y-75133333D01*
X173297676Y-75133333D02*
X173392914Y-75038095D01*
X173392914Y-75038095D02*
X173440533Y-74942857D01*
X127219580Y-96894642D02*
X127267200Y-96847023D01*
X127267200Y-96847023D02*
X127314819Y-96704166D01*
X127314819Y-96704166D02*
X127314819Y-96608928D01*
X127314819Y-96608928D02*
X127267200Y-96466071D01*
X127267200Y-96466071D02*
X127171961Y-96370833D01*
X127171961Y-96370833D02*
X127076723Y-96323214D01*
X127076723Y-96323214D02*
X126886247Y-96275595D01*
X126886247Y-96275595D02*
X126743390Y-96275595D01*
X126743390Y-96275595D02*
X126552914Y-96323214D01*
X126552914Y-96323214D02*
X126457676Y-96370833D01*
X126457676Y-96370833D02*
X126362438Y-96466071D01*
X126362438Y-96466071D02*
X126314819Y-96608928D01*
X126314819Y-96608928D02*
X126314819Y-96704166D01*
X126314819Y-96704166D02*
X126362438Y-96847023D01*
X126362438Y-96847023D02*
X126410057Y-96894642D01*
X127314819Y-97847023D02*
X127314819Y-97275595D01*
X127314819Y-97561309D02*
X126314819Y-97561309D01*
X126314819Y-97561309D02*
X126457676Y-97466071D01*
X126457676Y-97466071D02*
X126552914Y-97370833D01*
X126552914Y-97370833D02*
X126600533Y-97275595D01*
X126648152Y-98704166D02*
X127314819Y-98704166D01*
X126267200Y-98466071D02*
X126981485Y-98227976D01*
X126981485Y-98227976D02*
X126981485Y-98847023D01*
X191792857Y-80659580D02*
X191840476Y-80707200D01*
X191840476Y-80707200D02*
X191983333Y-80754819D01*
X191983333Y-80754819D02*
X192078571Y-80754819D01*
X192078571Y-80754819D02*
X192221428Y-80707200D01*
X192221428Y-80707200D02*
X192316666Y-80611961D01*
X192316666Y-80611961D02*
X192364285Y-80516723D01*
X192364285Y-80516723D02*
X192411904Y-80326247D01*
X192411904Y-80326247D02*
X192411904Y-80183390D01*
X192411904Y-80183390D02*
X192364285Y-79992914D01*
X192364285Y-79992914D02*
X192316666Y-79897676D01*
X192316666Y-79897676D02*
X192221428Y-79802438D01*
X192221428Y-79802438D02*
X192078571Y-79754819D01*
X192078571Y-79754819D02*
X191983333Y-79754819D01*
X191983333Y-79754819D02*
X191840476Y-79802438D01*
X191840476Y-79802438D02*
X191792857Y-79850057D01*
X191411904Y-79850057D02*
X191364285Y-79802438D01*
X191364285Y-79802438D02*
X191269047Y-79754819D01*
X191269047Y-79754819D02*
X191030952Y-79754819D01*
X191030952Y-79754819D02*
X190935714Y-79802438D01*
X190935714Y-79802438D02*
X190888095Y-79850057D01*
X190888095Y-79850057D02*
X190840476Y-79945295D01*
X190840476Y-79945295D02*
X190840476Y-80040533D01*
X190840476Y-80040533D02*
X190888095Y-80183390D01*
X190888095Y-80183390D02*
X191459523Y-80754819D01*
X191459523Y-80754819D02*
X190840476Y-80754819D01*
X190221428Y-79754819D02*
X190126190Y-79754819D01*
X190126190Y-79754819D02*
X190030952Y-79802438D01*
X190030952Y-79802438D02*
X189983333Y-79850057D01*
X189983333Y-79850057D02*
X189935714Y-79945295D01*
X189935714Y-79945295D02*
X189888095Y-80135771D01*
X189888095Y-80135771D02*
X189888095Y-80373866D01*
X189888095Y-80373866D02*
X189935714Y-80564342D01*
X189935714Y-80564342D02*
X189983333Y-80659580D01*
X189983333Y-80659580D02*
X190030952Y-80707200D01*
X190030952Y-80707200D02*
X190126190Y-80754819D01*
X190126190Y-80754819D02*
X190221428Y-80754819D01*
X190221428Y-80754819D02*
X190316666Y-80707200D01*
X190316666Y-80707200D02*
X190364285Y-80659580D01*
X190364285Y-80659580D02*
X190411904Y-80564342D01*
X190411904Y-80564342D02*
X190459523Y-80373866D01*
X190459523Y-80373866D02*
X190459523Y-80135771D01*
X190459523Y-80135771D02*
X190411904Y-79945295D01*
X190411904Y-79945295D02*
X190364285Y-79850057D01*
X190364285Y-79850057D02*
X190316666Y-79802438D01*
X190316666Y-79802438D02*
X190221428Y-79754819D01*
X144131166Y-95613819D02*
X144464499Y-95137628D01*
X144702594Y-95613819D02*
X144702594Y-94613819D01*
X144702594Y-94613819D02*
X144321642Y-94613819D01*
X144321642Y-94613819D02*
X144226404Y-94661438D01*
X144226404Y-94661438D02*
X144178785Y-94709057D01*
X144178785Y-94709057D02*
X144131166Y-94804295D01*
X144131166Y-94804295D02*
X144131166Y-94947152D01*
X144131166Y-94947152D02*
X144178785Y-95042390D01*
X144178785Y-95042390D02*
X144226404Y-95090009D01*
X144226404Y-95090009D02*
X144321642Y-95137628D01*
X144321642Y-95137628D02*
X144702594Y-95137628D01*
X143797832Y-94613819D02*
X143178785Y-94613819D01*
X143178785Y-94613819D02*
X143512118Y-94994771D01*
X143512118Y-94994771D02*
X143369261Y-94994771D01*
X143369261Y-94994771D02*
X143274023Y-95042390D01*
X143274023Y-95042390D02*
X143226404Y-95090009D01*
X143226404Y-95090009D02*
X143178785Y-95185247D01*
X143178785Y-95185247D02*
X143178785Y-95423342D01*
X143178785Y-95423342D02*
X143226404Y-95518580D01*
X143226404Y-95518580D02*
X143274023Y-95566200D01*
X143274023Y-95566200D02*
X143369261Y-95613819D01*
X143369261Y-95613819D02*
X143654975Y-95613819D01*
X143654975Y-95613819D02*
X143750213Y-95566200D01*
X143750213Y-95566200D02*
X143797832Y-95518580D01*
X152542857Y-101754819D02*
X152876190Y-101278628D01*
X153114285Y-101754819D02*
X153114285Y-100754819D01*
X153114285Y-100754819D02*
X152733333Y-100754819D01*
X152733333Y-100754819D02*
X152638095Y-100802438D01*
X152638095Y-100802438D02*
X152590476Y-100850057D01*
X152590476Y-100850057D02*
X152542857Y-100945295D01*
X152542857Y-100945295D02*
X152542857Y-101088152D01*
X152542857Y-101088152D02*
X152590476Y-101183390D01*
X152590476Y-101183390D02*
X152638095Y-101231009D01*
X152638095Y-101231009D02*
X152733333Y-101278628D01*
X152733333Y-101278628D02*
X153114285Y-101278628D01*
X151590476Y-101754819D02*
X152161904Y-101754819D01*
X151876190Y-101754819D02*
X151876190Y-100754819D01*
X151876190Y-100754819D02*
X151971428Y-100897676D01*
X151971428Y-100897676D02*
X152066666Y-100992914D01*
X152066666Y-100992914D02*
X152161904Y-101040533D01*
X150971428Y-100754819D02*
X150876190Y-100754819D01*
X150876190Y-100754819D02*
X150780952Y-100802438D01*
X150780952Y-100802438D02*
X150733333Y-100850057D01*
X150733333Y-100850057D02*
X150685714Y-100945295D01*
X150685714Y-100945295D02*
X150638095Y-101135771D01*
X150638095Y-101135771D02*
X150638095Y-101373866D01*
X150638095Y-101373866D02*
X150685714Y-101564342D01*
X150685714Y-101564342D02*
X150733333Y-101659580D01*
X150733333Y-101659580D02*
X150780952Y-101707200D01*
X150780952Y-101707200D02*
X150876190Y-101754819D01*
X150876190Y-101754819D02*
X150971428Y-101754819D01*
X150971428Y-101754819D02*
X151066666Y-101707200D01*
X151066666Y-101707200D02*
X151114285Y-101659580D01*
X151114285Y-101659580D02*
X151161904Y-101564342D01*
X151161904Y-101564342D02*
X151209523Y-101373866D01*
X151209523Y-101373866D02*
X151209523Y-101135771D01*
X151209523Y-101135771D02*
X151161904Y-100945295D01*
X151161904Y-100945295D02*
X151114285Y-100850057D01*
X151114285Y-100850057D02*
X151066666Y-100802438D01*
X151066666Y-100802438D02*
X150971428Y-100754819D01*
X160092857Y-98704819D02*
X160426190Y-98228628D01*
X160664285Y-98704819D02*
X160664285Y-97704819D01*
X160664285Y-97704819D02*
X160283333Y-97704819D01*
X160283333Y-97704819D02*
X160188095Y-97752438D01*
X160188095Y-97752438D02*
X160140476Y-97800057D01*
X160140476Y-97800057D02*
X160092857Y-97895295D01*
X160092857Y-97895295D02*
X160092857Y-98038152D01*
X160092857Y-98038152D02*
X160140476Y-98133390D01*
X160140476Y-98133390D02*
X160188095Y-98181009D01*
X160188095Y-98181009D02*
X160283333Y-98228628D01*
X160283333Y-98228628D02*
X160664285Y-98228628D01*
X159140476Y-98704819D02*
X159711904Y-98704819D01*
X159426190Y-98704819D02*
X159426190Y-97704819D01*
X159426190Y-97704819D02*
X159521428Y-97847676D01*
X159521428Y-97847676D02*
X159616666Y-97942914D01*
X159616666Y-97942914D02*
X159711904Y-97990533D01*
X158664285Y-98704819D02*
X158473809Y-98704819D01*
X158473809Y-98704819D02*
X158378571Y-98657200D01*
X158378571Y-98657200D02*
X158330952Y-98609580D01*
X158330952Y-98609580D02*
X158235714Y-98466723D01*
X158235714Y-98466723D02*
X158188095Y-98276247D01*
X158188095Y-98276247D02*
X158188095Y-97895295D01*
X158188095Y-97895295D02*
X158235714Y-97800057D01*
X158235714Y-97800057D02*
X158283333Y-97752438D01*
X158283333Y-97752438D02*
X158378571Y-97704819D01*
X158378571Y-97704819D02*
X158569047Y-97704819D01*
X158569047Y-97704819D02*
X158664285Y-97752438D01*
X158664285Y-97752438D02*
X158711904Y-97800057D01*
X158711904Y-97800057D02*
X158759523Y-97895295D01*
X158759523Y-97895295D02*
X158759523Y-98133390D01*
X158759523Y-98133390D02*
X158711904Y-98228628D01*
X158711904Y-98228628D02*
X158664285Y-98276247D01*
X158664285Y-98276247D02*
X158569047Y-98323866D01*
X158569047Y-98323866D02*
X158378571Y-98323866D01*
X158378571Y-98323866D02*
X158283333Y-98276247D01*
X158283333Y-98276247D02*
X158235714Y-98228628D01*
X158235714Y-98228628D02*
X158188095Y-98133390D01*
X117744819Y-89783333D02*
X117268628Y-89450000D01*
X117744819Y-89211905D02*
X116744819Y-89211905D01*
X116744819Y-89211905D02*
X116744819Y-89592857D01*
X116744819Y-89592857D02*
X116792438Y-89688095D01*
X116792438Y-89688095D02*
X116840057Y-89735714D01*
X116840057Y-89735714D02*
X116935295Y-89783333D01*
X116935295Y-89783333D02*
X117078152Y-89783333D01*
X117078152Y-89783333D02*
X117173390Y-89735714D01*
X117173390Y-89735714D02*
X117221009Y-89688095D01*
X117221009Y-89688095D02*
X117268628Y-89592857D01*
X117268628Y-89592857D02*
X117268628Y-89211905D01*
X116744819Y-90116667D02*
X116744819Y-90783333D01*
X116744819Y-90783333D02*
X117744819Y-90354762D01*
X152530357Y-95644819D02*
X152863690Y-95168628D01*
X153101785Y-95644819D02*
X153101785Y-94644819D01*
X153101785Y-94644819D02*
X152720833Y-94644819D01*
X152720833Y-94644819D02*
X152625595Y-94692438D01*
X152625595Y-94692438D02*
X152577976Y-94740057D01*
X152577976Y-94740057D02*
X152530357Y-94835295D01*
X152530357Y-94835295D02*
X152530357Y-94978152D01*
X152530357Y-94978152D02*
X152577976Y-95073390D01*
X152577976Y-95073390D02*
X152625595Y-95121009D01*
X152625595Y-95121009D02*
X152720833Y-95168628D01*
X152720833Y-95168628D02*
X153101785Y-95168628D01*
X151577976Y-95644819D02*
X152149404Y-95644819D01*
X151863690Y-95644819D02*
X151863690Y-94644819D01*
X151863690Y-94644819D02*
X151958928Y-94787676D01*
X151958928Y-94787676D02*
X152054166Y-94882914D01*
X152054166Y-94882914D02*
X152149404Y-94930533D01*
X151197023Y-94740057D02*
X151149404Y-94692438D01*
X151149404Y-94692438D02*
X151054166Y-94644819D01*
X151054166Y-94644819D02*
X150816071Y-94644819D01*
X150816071Y-94644819D02*
X150720833Y-94692438D01*
X150720833Y-94692438D02*
X150673214Y-94740057D01*
X150673214Y-94740057D02*
X150625595Y-94835295D01*
X150625595Y-94835295D02*
X150625595Y-94930533D01*
X150625595Y-94930533D02*
X150673214Y-95073390D01*
X150673214Y-95073390D02*
X151244642Y-95644819D01*
X151244642Y-95644819D02*
X150625595Y-95644819D01*
X113649580Y-97307142D02*
X113697200Y-97259523D01*
X113697200Y-97259523D02*
X113744819Y-97116666D01*
X113744819Y-97116666D02*
X113744819Y-97021428D01*
X113744819Y-97021428D02*
X113697200Y-96878571D01*
X113697200Y-96878571D02*
X113601961Y-96783333D01*
X113601961Y-96783333D02*
X113506723Y-96735714D01*
X113506723Y-96735714D02*
X113316247Y-96688095D01*
X113316247Y-96688095D02*
X113173390Y-96688095D01*
X113173390Y-96688095D02*
X112982914Y-96735714D01*
X112982914Y-96735714D02*
X112887676Y-96783333D01*
X112887676Y-96783333D02*
X112792438Y-96878571D01*
X112792438Y-96878571D02*
X112744819Y-97021428D01*
X112744819Y-97021428D02*
X112744819Y-97116666D01*
X112744819Y-97116666D02*
X112792438Y-97259523D01*
X112792438Y-97259523D02*
X112840057Y-97307142D01*
X113744819Y-98259523D02*
X113744819Y-97688095D01*
X113744819Y-97973809D02*
X112744819Y-97973809D01*
X112744819Y-97973809D02*
X112887676Y-97878571D01*
X112887676Y-97878571D02*
X112982914Y-97783333D01*
X112982914Y-97783333D02*
X113030533Y-97688095D01*
X112744819Y-99116666D02*
X112744819Y-98926190D01*
X112744819Y-98926190D02*
X112792438Y-98830952D01*
X112792438Y-98830952D02*
X112840057Y-98783333D01*
X112840057Y-98783333D02*
X112982914Y-98688095D01*
X112982914Y-98688095D02*
X113173390Y-98640476D01*
X113173390Y-98640476D02*
X113554342Y-98640476D01*
X113554342Y-98640476D02*
X113649580Y-98688095D01*
X113649580Y-98688095D02*
X113697200Y-98735714D01*
X113697200Y-98735714D02*
X113744819Y-98830952D01*
X113744819Y-98830952D02*
X113744819Y-99021428D01*
X113744819Y-99021428D02*
X113697200Y-99116666D01*
X113697200Y-99116666D02*
X113649580Y-99164285D01*
X113649580Y-99164285D02*
X113554342Y-99211904D01*
X113554342Y-99211904D02*
X113316247Y-99211904D01*
X113316247Y-99211904D02*
X113221009Y-99164285D01*
X113221009Y-99164285D02*
X113173390Y-99116666D01*
X113173390Y-99116666D02*
X113125771Y-99021428D01*
X113125771Y-99021428D02*
X113125771Y-98830952D01*
X113125771Y-98830952D02*
X113173390Y-98735714D01*
X113173390Y-98735714D02*
X113221009Y-98688095D01*
X113221009Y-98688095D02*
X113316247Y-98640476D01*
X184700643Y-96817821D02*
X185033976Y-96341630D01*
X185272071Y-96817821D02*
X185272071Y-95817821D01*
X185272071Y-95817821D02*
X184891119Y-95817821D01*
X184891119Y-95817821D02*
X184795881Y-95865440D01*
X184795881Y-95865440D02*
X184748262Y-95913059D01*
X184748262Y-95913059D02*
X184700643Y-96008297D01*
X184700643Y-96008297D02*
X184700643Y-96151154D01*
X184700643Y-96151154D02*
X184748262Y-96246392D01*
X184748262Y-96246392D02*
X184795881Y-96294011D01*
X184795881Y-96294011D02*
X184891119Y-96341630D01*
X184891119Y-96341630D02*
X185272071Y-96341630D01*
X184129214Y-96817821D02*
X184224452Y-96770202D01*
X184224452Y-96770202D02*
X184272071Y-96722582D01*
X184272071Y-96722582D02*
X184319690Y-96627344D01*
X184319690Y-96627344D02*
X184319690Y-96341630D01*
X184319690Y-96341630D02*
X184272071Y-96246392D01*
X184272071Y-96246392D02*
X184224452Y-96198773D01*
X184224452Y-96198773D02*
X184129214Y-96151154D01*
X184129214Y-96151154D02*
X183986357Y-96151154D01*
X183986357Y-96151154D02*
X183891119Y-96198773D01*
X183891119Y-96198773D02*
X183843500Y-96246392D01*
X183843500Y-96246392D02*
X183795881Y-96341630D01*
X183795881Y-96341630D02*
X183795881Y-96627344D01*
X183795881Y-96627344D02*
X183843500Y-96722582D01*
X183843500Y-96722582D02*
X183891119Y-96770202D01*
X183891119Y-96770202D02*
X183986357Y-96817821D01*
X183986357Y-96817821D02*
X184129214Y-96817821D01*
X182938738Y-96151154D02*
X182938738Y-96817821D01*
X183367309Y-96151154D02*
X183367309Y-96674963D01*
X183367309Y-96674963D02*
X183319690Y-96770202D01*
X183319690Y-96770202D02*
X183224452Y-96817821D01*
X183224452Y-96817821D02*
X183081595Y-96817821D01*
X183081595Y-96817821D02*
X182986357Y-96770202D01*
X182986357Y-96770202D02*
X182938738Y-96722582D01*
X182605404Y-96151154D02*
X182224452Y-96151154D01*
X182462547Y-95817821D02*
X182462547Y-96674963D01*
X182462547Y-96674963D02*
X182414928Y-96770202D01*
X182414928Y-96770202D02*
X182319690Y-96817821D01*
X182319690Y-96817821D02*
X182224452Y-96817821D01*
X181367309Y-96817821D02*
X181938737Y-96817821D01*
X181653023Y-96817821D02*
X181653023Y-95817821D01*
X181653023Y-95817821D02*
X181748261Y-95960678D01*
X181748261Y-95960678D02*
X181843499Y-96055916D01*
X181843499Y-96055916D02*
X181938737Y-96103535D01*
X184505142Y-88398821D02*
X184838475Y-87922630D01*
X185076570Y-88398821D02*
X185076570Y-87398821D01*
X185076570Y-87398821D02*
X184695618Y-87398821D01*
X184695618Y-87398821D02*
X184600380Y-87446440D01*
X184600380Y-87446440D02*
X184552761Y-87494059D01*
X184552761Y-87494059D02*
X184505142Y-87589297D01*
X184505142Y-87589297D02*
X184505142Y-87732154D01*
X184505142Y-87732154D02*
X184552761Y-87827392D01*
X184552761Y-87827392D02*
X184600380Y-87875011D01*
X184600380Y-87875011D02*
X184695618Y-87922630D01*
X184695618Y-87922630D02*
X185076570Y-87922630D01*
X184076570Y-88398821D02*
X184076570Y-87732154D01*
X184076570Y-87398821D02*
X184124189Y-87446440D01*
X184124189Y-87446440D02*
X184076570Y-87494059D01*
X184076570Y-87494059D02*
X184028951Y-87446440D01*
X184028951Y-87446440D02*
X184076570Y-87398821D01*
X184076570Y-87398821D02*
X184076570Y-87494059D01*
X183600380Y-87732154D02*
X183600380Y-88398821D01*
X183600380Y-87827392D02*
X183552761Y-87779773D01*
X183552761Y-87779773D02*
X183457523Y-87732154D01*
X183457523Y-87732154D02*
X183314666Y-87732154D01*
X183314666Y-87732154D02*
X183219428Y-87779773D01*
X183219428Y-87779773D02*
X183171809Y-87875011D01*
X183171809Y-87875011D02*
X183171809Y-88398821D01*
X182171809Y-88398821D02*
X182743237Y-88398821D01*
X182457523Y-88398821D02*
X182457523Y-87398821D01*
X182457523Y-87398821D02*
X182552761Y-87541678D01*
X182552761Y-87541678D02*
X182647999Y-87636916D01*
X182647999Y-87636916D02*
X182743237Y-87684535D01*
X184729214Y-99717821D02*
X185062547Y-99241630D01*
X185300642Y-99717821D02*
X185300642Y-98717821D01*
X185300642Y-98717821D02*
X184919690Y-98717821D01*
X184919690Y-98717821D02*
X184824452Y-98765440D01*
X184824452Y-98765440D02*
X184776833Y-98813059D01*
X184776833Y-98813059D02*
X184729214Y-98908297D01*
X184729214Y-98908297D02*
X184729214Y-99051154D01*
X184729214Y-99051154D02*
X184776833Y-99146392D01*
X184776833Y-99146392D02*
X184824452Y-99194011D01*
X184824452Y-99194011D02*
X184919690Y-99241630D01*
X184919690Y-99241630D02*
X185300642Y-99241630D01*
X184348261Y-99670202D02*
X184253023Y-99717821D01*
X184253023Y-99717821D02*
X184062547Y-99717821D01*
X184062547Y-99717821D02*
X183967309Y-99670202D01*
X183967309Y-99670202D02*
X183919690Y-99574963D01*
X183919690Y-99574963D02*
X183919690Y-99527344D01*
X183919690Y-99527344D02*
X183967309Y-99432106D01*
X183967309Y-99432106D02*
X184062547Y-99384487D01*
X184062547Y-99384487D02*
X184205404Y-99384487D01*
X184205404Y-99384487D02*
X184300642Y-99336868D01*
X184300642Y-99336868D02*
X184348261Y-99241630D01*
X184348261Y-99241630D02*
X184348261Y-99194011D01*
X184348261Y-99194011D02*
X184300642Y-99098773D01*
X184300642Y-99098773D02*
X184205404Y-99051154D01*
X184205404Y-99051154D02*
X184062547Y-99051154D01*
X184062547Y-99051154D02*
X183967309Y-99098773D01*
X183110166Y-99670202D02*
X183205404Y-99717821D01*
X183205404Y-99717821D02*
X183395880Y-99717821D01*
X183395880Y-99717821D02*
X183491118Y-99670202D01*
X183491118Y-99670202D02*
X183538737Y-99574963D01*
X183538737Y-99574963D02*
X183538737Y-99194011D01*
X183538737Y-99194011D02*
X183491118Y-99098773D01*
X183491118Y-99098773D02*
X183395880Y-99051154D01*
X183395880Y-99051154D02*
X183205404Y-99051154D01*
X183205404Y-99051154D02*
X183110166Y-99098773D01*
X183110166Y-99098773D02*
X183062547Y-99194011D01*
X183062547Y-99194011D02*
X183062547Y-99289249D01*
X183062547Y-99289249D02*
X183538737Y-99384487D01*
X182776832Y-99051154D02*
X182395880Y-99051154D01*
X182633975Y-98717821D02*
X182633975Y-99574963D01*
X182633975Y-99574963D02*
X182586356Y-99670202D01*
X182586356Y-99670202D02*
X182491118Y-99717821D01*
X182491118Y-99717821D02*
X182395880Y-99717821D01*
X181538737Y-99717821D02*
X182110165Y-99717821D01*
X181824451Y-99717821D02*
X181824451Y-98717821D01*
X181824451Y-98717821D02*
X181919689Y-98860678D01*
X181919689Y-98860678D02*
X182014927Y-98955916D01*
X182014927Y-98955916D02*
X182110165Y-99003535D01*
X196990857Y-80698821D02*
X197324190Y-80222630D01*
X197562285Y-80698821D02*
X197562285Y-79698821D01*
X197562285Y-79698821D02*
X197181333Y-79698821D01*
X197181333Y-79698821D02*
X197086095Y-79746440D01*
X197086095Y-79746440D02*
X197038476Y-79794059D01*
X197038476Y-79794059D02*
X196990857Y-79889297D01*
X196990857Y-79889297D02*
X196990857Y-80032154D01*
X196990857Y-80032154D02*
X197038476Y-80127392D01*
X197038476Y-80127392D02*
X197086095Y-80175011D01*
X197086095Y-80175011D02*
X197181333Y-80222630D01*
X197181333Y-80222630D02*
X197562285Y-80222630D01*
X196609904Y-79794059D02*
X196562285Y-79746440D01*
X196562285Y-79746440D02*
X196467047Y-79698821D01*
X196467047Y-79698821D02*
X196228952Y-79698821D01*
X196228952Y-79698821D02*
X196133714Y-79746440D01*
X196133714Y-79746440D02*
X196086095Y-79794059D01*
X196086095Y-79794059D02*
X196038476Y-79889297D01*
X196038476Y-79889297D02*
X196038476Y-79984535D01*
X196038476Y-79984535D02*
X196086095Y-80127392D01*
X196086095Y-80127392D02*
X196657523Y-80698821D01*
X196657523Y-80698821D02*
X196038476Y-80698821D01*
X195657523Y-79794059D02*
X195609904Y-79746440D01*
X195609904Y-79746440D02*
X195514666Y-79698821D01*
X195514666Y-79698821D02*
X195276571Y-79698821D01*
X195276571Y-79698821D02*
X195181333Y-79746440D01*
X195181333Y-79746440D02*
X195133714Y-79794059D01*
X195133714Y-79794059D02*
X195086095Y-79889297D01*
X195086095Y-79889297D02*
X195086095Y-79984535D01*
X195086095Y-79984535D02*
X195133714Y-80127392D01*
X195133714Y-80127392D02*
X195705142Y-80698821D01*
X195705142Y-80698821D02*
X195086095Y-80698821D01*
X184153357Y-83383582D02*
X184200976Y-83431202D01*
X184200976Y-83431202D02*
X184343833Y-83478821D01*
X184343833Y-83478821D02*
X184439071Y-83478821D01*
X184439071Y-83478821D02*
X184581928Y-83431202D01*
X184581928Y-83431202D02*
X184677166Y-83335963D01*
X184677166Y-83335963D02*
X184724785Y-83240725D01*
X184724785Y-83240725D02*
X184772404Y-83050249D01*
X184772404Y-83050249D02*
X184772404Y-82907392D01*
X184772404Y-82907392D02*
X184724785Y-82716916D01*
X184724785Y-82716916D02*
X184677166Y-82621678D01*
X184677166Y-82621678D02*
X184581928Y-82526440D01*
X184581928Y-82526440D02*
X184439071Y-82478821D01*
X184439071Y-82478821D02*
X184343833Y-82478821D01*
X184343833Y-82478821D02*
X184200976Y-82526440D01*
X184200976Y-82526440D02*
X184153357Y-82574059D01*
X183200976Y-83478821D02*
X183772404Y-83478821D01*
X183486690Y-83478821D02*
X183486690Y-82478821D01*
X183486690Y-82478821D02*
X183581928Y-82621678D01*
X183581928Y-82621678D02*
X183677166Y-82716916D01*
X183677166Y-82716916D02*
X183772404Y-82764535D01*
X182724785Y-83478821D02*
X182534309Y-83478821D01*
X182534309Y-83478821D02*
X182439071Y-83431202D01*
X182439071Y-83431202D02*
X182391452Y-83383582D01*
X182391452Y-83383582D02*
X182296214Y-83240725D01*
X182296214Y-83240725D02*
X182248595Y-83050249D01*
X182248595Y-83050249D02*
X182248595Y-82669297D01*
X182248595Y-82669297D02*
X182296214Y-82574059D01*
X182296214Y-82574059D02*
X182343833Y-82526440D01*
X182343833Y-82526440D02*
X182439071Y-82478821D01*
X182439071Y-82478821D02*
X182629547Y-82478821D01*
X182629547Y-82478821D02*
X182724785Y-82526440D01*
X182724785Y-82526440D02*
X182772404Y-82574059D01*
X182772404Y-82574059D02*
X182820023Y-82669297D01*
X182820023Y-82669297D02*
X182820023Y-82907392D01*
X182820023Y-82907392D02*
X182772404Y-83002630D01*
X182772404Y-83002630D02*
X182724785Y-83050249D01*
X182724785Y-83050249D02*
X182629547Y-83097868D01*
X182629547Y-83097868D02*
X182439071Y-83097868D01*
X182439071Y-83097868D02*
X182343833Y-83050249D01*
X182343833Y-83050249D02*
X182296214Y-83002630D01*
X182296214Y-83002630D02*
X182248595Y-82907392D01*
X152530357Y-98894819D02*
X152863690Y-98418628D01*
X153101785Y-98894819D02*
X153101785Y-97894819D01*
X153101785Y-97894819D02*
X152720833Y-97894819D01*
X152720833Y-97894819D02*
X152625595Y-97942438D01*
X152625595Y-97942438D02*
X152577976Y-97990057D01*
X152577976Y-97990057D02*
X152530357Y-98085295D01*
X152530357Y-98085295D02*
X152530357Y-98228152D01*
X152530357Y-98228152D02*
X152577976Y-98323390D01*
X152577976Y-98323390D02*
X152625595Y-98371009D01*
X152625595Y-98371009D02*
X152720833Y-98418628D01*
X152720833Y-98418628D02*
X153101785Y-98418628D01*
X151577976Y-98894819D02*
X152149404Y-98894819D01*
X151863690Y-98894819D02*
X151863690Y-97894819D01*
X151863690Y-97894819D02*
X151958928Y-98037676D01*
X151958928Y-98037676D02*
X152054166Y-98132914D01*
X152054166Y-98132914D02*
X152149404Y-98180533D01*
X150625595Y-98894819D02*
X151197023Y-98894819D01*
X150911309Y-98894819D02*
X150911309Y-97894819D01*
X150911309Y-97894819D02*
X151006547Y-98037676D01*
X151006547Y-98037676D02*
X151101785Y-98132914D01*
X151101785Y-98132914D02*
X151197023Y-98180533D01*
X160207857Y-92447819D02*
X160541190Y-91971628D01*
X160779285Y-92447819D02*
X160779285Y-91447819D01*
X160779285Y-91447819D02*
X160398333Y-91447819D01*
X160398333Y-91447819D02*
X160303095Y-91495438D01*
X160303095Y-91495438D02*
X160255476Y-91543057D01*
X160255476Y-91543057D02*
X160207857Y-91638295D01*
X160207857Y-91638295D02*
X160207857Y-91781152D01*
X160207857Y-91781152D02*
X160255476Y-91876390D01*
X160255476Y-91876390D02*
X160303095Y-91924009D01*
X160303095Y-91924009D02*
X160398333Y-91971628D01*
X160398333Y-91971628D02*
X160779285Y-91971628D01*
X159255476Y-92447819D02*
X159826904Y-92447819D01*
X159541190Y-92447819D02*
X159541190Y-91447819D01*
X159541190Y-91447819D02*
X159636428Y-91590676D01*
X159636428Y-91590676D02*
X159731666Y-91685914D01*
X159731666Y-91685914D02*
X159826904Y-91733533D01*
X158398333Y-91447819D02*
X158588809Y-91447819D01*
X158588809Y-91447819D02*
X158684047Y-91495438D01*
X158684047Y-91495438D02*
X158731666Y-91543057D01*
X158731666Y-91543057D02*
X158826904Y-91685914D01*
X158826904Y-91685914D02*
X158874523Y-91876390D01*
X158874523Y-91876390D02*
X158874523Y-92257342D01*
X158874523Y-92257342D02*
X158826904Y-92352580D01*
X158826904Y-92352580D02*
X158779285Y-92400200D01*
X158779285Y-92400200D02*
X158684047Y-92447819D01*
X158684047Y-92447819D02*
X158493571Y-92447819D01*
X158493571Y-92447819D02*
X158398333Y-92400200D01*
X158398333Y-92400200D02*
X158350714Y-92352580D01*
X158350714Y-92352580D02*
X158303095Y-92257342D01*
X158303095Y-92257342D02*
X158303095Y-92019247D01*
X158303095Y-92019247D02*
X158350714Y-91924009D01*
X158350714Y-91924009D02*
X158398333Y-91876390D01*
X158398333Y-91876390D02*
X158493571Y-91828771D01*
X158493571Y-91828771D02*
X158684047Y-91828771D01*
X158684047Y-91828771D02*
X158779285Y-91876390D01*
X158779285Y-91876390D02*
X158826904Y-91924009D01*
X158826904Y-91924009D02*
X158874523Y-92019247D01*
X130109580Y-89607142D02*
X130157200Y-89559523D01*
X130157200Y-89559523D02*
X130204819Y-89416666D01*
X130204819Y-89416666D02*
X130204819Y-89321428D01*
X130204819Y-89321428D02*
X130157200Y-89178571D01*
X130157200Y-89178571D02*
X130061961Y-89083333D01*
X130061961Y-89083333D02*
X129966723Y-89035714D01*
X129966723Y-89035714D02*
X129776247Y-88988095D01*
X129776247Y-88988095D02*
X129633390Y-88988095D01*
X129633390Y-88988095D02*
X129442914Y-89035714D01*
X129442914Y-89035714D02*
X129347676Y-89083333D01*
X129347676Y-89083333D02*
X129252438Y-89178571D01*
X129252438Y-89178571D02*
X129204819Y-89321428D01*
X129204819Y-89321428D02*
X129204819Y-89416666D01*
X129204819Y-89416666D02*
X129252438Y-89559523D01*
X129252438Y-89559523D02*
X129300057Y-89607142D01*
X130204819Y-90559523D02*
X130204819Y-89988095D01*
X130204819Y-90273809D02*
X129204819Y-90273809D01*
X129204819Y-90273809D02*
X129347676Y-90178571D01*
X129347676Y-90178571D02*
X129442914Y-90083333D01*
X129442914Y-90083333D02*
X129490533Y-89988095D01*
X129204819Y-90892857D02*
X129204819Y-91559523D01*
X129204819Y-91559523D02*
X130204819Y-91130952D01*
X196940857Y-83548821D02*
X197274190Y-83072630D01*
X197512285Y-83548821D02*
X197512285Y-82548821D01*
X197512285Y-82548821D02*
X197131333Y-82548821D01*
X197131333Y-82548821D02*
X197036095Y-82596440D01*
X197036095Y-82596440D02*
X196988476Y-82644059D01*
X196988476Y-82644059D02*
X196940857Y-82739297D01*
X196940857Y-82739297D02*
X196940857Y-82882154D01*
X196940857Y-82882154D02*
X196988476Y-82977392D01*
X196988476Y-82977392D02*
X197036095Y-83025011D01*
X197036095Y-83025011D02*
X197131333Y-83072630D01*
X197131333Y-83072630D02*
X197512285Y-83072630D01*
X196559904Y-82644059D02*
X196512285Y-82596440D01*
X196512285Y-82596440D02*
X196417047Y-82548821D01*
X196417047Y-82548821D02*
X196178952Y-82548821D01*
X196178952Y-82548821D02*
X196083714Y-82596440D01*
X196083714Y-82596440D02*
X196036095Y-82644059D01*
X196036095Y-82644059D02*
X195988476Y-82739297D01*
X195988476Y-82739297D02*
X195988476Y-82834535D01*
X195988476Y-82834535D02*
X196036095Y-82977392D01*
X196036095Y-82977392D02*
X196607523Y-83548821D01*
X196607523Y-83548821D02*
X195988476Y-83548821D01*
X195655142Y-82548821D02*
X195036095Y-82548821D01*
X195036095Y-82548821D02*
X195369428Y-82929773D01*
X195369428Y-82929773D02*
X195226571Y-82929773D01*
X195226571Y-82929773D02*
X195131333Y-82977392D01*
X195131333Y-82977392D02*
X195083714Y-83025011D01*
X195083714Y-83025011D02*
X195036095Y-83120249D01*
X195036095Y-83120249D02*
X195036095Y-83358344D01*
X195036095Y-83358344D02*
X195083714Y-83453582D01*
X195083714Y-83453582D02*
X195131333Y-83501202D01*
X195131333Y-83501202D02*
X195226571Y-83548821D01*
X195226571Y-83548821D02*
X195512285Y-83548821D01*
X195512285Y-83548821D02*
X195607523Y-83501202D01*
X195607523Y-83501202D02*
X195655142Y-83453582D01*
X120899580Y-89783333D02*
X120947200Y-89735714D01*
X120947200Y-89735714D02*
X120994819Y-89592857D01*
X120994819Y-89592857D02*
X120994819Y-89497619D01*
X120994819Y-89497619D02*
X120947200Y-89354762D01*
X120947200Y-89354762D02*
X120851961Y-89259524D01*
X120851961Y-89259524D02*
X120756723Y-89211905D01*
X120756723Y-89211905D02*
X120566247Y-89164286D01*
X120566247Y-89164286D02*
X120423390Y-89164286D01*
X120423390Y-89164286D02*
X120232914Y-89211905D01*
X120232914Y-89211905D02*
X120137676Y-89259524D01*
X120137676Y-89259524D02*
X120042438Y-89354762D01*
X120042438Y-89354762D02*
X119994819Y-89497619D01*
X119994819Y-89497619D02*
X119994819Y-89592857D01*
X119994819Y-89592857D02*
X120042438Y-89735714D01*
X120042438Y-89735714D02*
X120090057Y-89783333D01*
X119994819Y-90688095D02*
X119994819Y-90211905D01*
X119994819Y-90211905D02*
X120471009Y-90164286D01*
X120471009Y-90164286D02*
X120423390Y-90211905D01*
X120423390Y-90211905D02*
X120375771Y-90307143D01*
X120375771Y-90307143D02*
X120375771Y-90545238D01*
X120375771Y-90545238D02*
X120423390Y-90640476D01*
X120423390Y-90640476D02*
X120471009Y-90688095D01*
X120471009Y-90688095D02*
X120566247Y-90735714D01*
X120566247Y-90735714D02*
X120804342Y-90735714D01*
X120804342Y-90735714D02*
X120899580Y-90688095D01*
X120899580Y-90688095D02*
X120947200Y-90640476D01*
X120947200Y-90640476D02*
X120994819Y-90545238D01*
X120994819Y-90545238D02*
X120994819Y-90307143D01*
X120994819Y-90307143D02*
X120947200Y-90211905D01*
X120947200Y-90211905D02*
X120899580Y-90164286D01*
X152032666Y-92468819D02*
X152365999Y-91992628D01*
X152604094Y-92468819D02*
X152604094Y-91468819D01*
X152604094Y-91468819D02*
X152223142Y-91468819D01*
X152223142Y-91468819D02*
X152127904Y-91516438D01*
X152127904Y-91516438D02*
X152080285Y-91564057D01*
X152080285Y-91564057D02*
X152032666Y-91659295D01*
X152032666Y-91659295D02*
X152032666Y-91802152D01*
X152032666Y-91802152D02*
X152080285Y-91897390D01*
X152080285Y-91897390D02*
X152127904Y-91945009D01*
X152127904Y-91945009D02*
X152223142Y-91992628D01*
X152223142Y-91992628D02*
X152604094Y-91992628D01*
X151556475Y-92468819D02*
X151365999Y-92468819D01*
X151365999Y-92468819D02*
X151270761Y-92421200D01*
X151270761Y-92421200D02*
X151223142Y-92373580D01*
X151223142Y-92373580D02*
X151127904Y-92230723D01*
X151127904Y-92230723D02*
X151080285Y-92040247D01*
X151080285Y-92040247D02*
X151080285Y-91659295D01*
X151080285Y-91659295D02*
X151127904Y-91564057D01*
X151127904Y-91564057D02*
X151175523Y-91516438D01*
X151175523Y-91516438D02*
X151270761Y-91468819D01*
X151270761Y-91468819D02*
X151461237Y-91468819D01*
X151461237Y-91468819D02*
X151556475Y-91516438D01*
X151556475Y-91516438D02*
X151604094Y-91564057D01*
X151604094Y-91564057D02*
X151651713Y-91659295D01*
X151651713Y-91659295D02*
X151651713Y-91897390D01*
X151651713Y-91897390D02*
X151604094Y-91992628D01*
X151604094Y-91992628D02*
X151556475Y-92040247D01*
X151556475Y-92040247D02*
X151461237Y-92087866D01*
X151461237Y-92087866D02*
X151270761Y-92087866D01*
X151270761Y-92087866D02*
X151175523Y-92040247D01*
X151175523Y-92040247D02*
X151127904Y-91992628D01*
X151127904Y-91992628D02*
X151080285Y-91897390D01*
X129244819Y-96275595D02*
X129244819Y-96847023D01*
X130244819Y-96561309D02*
X129244819Y-96561309D01*
X130244819Y-97751785D02*
X129768628Y-97418452D01*
X130244819Y-97180357D02*
X129244819Y-97180357D01*
X129244819Y-97180357D02*
X129244819Y-97561309D01*
X129244819Y-97561309D02*
X129292438Y-97656547D01*
X129292438Y-97656547D02*
X129340057Y-97704166D01*
X129340057Y-97704166D02*
X129435295Y-97751785D01*
X129435295Y-97751785D02*
X129578152Y-97751785D01*
X129578152Y-97751785D02*
X129673390Y-97704166D01*
X129673390Y-97704166D02*
X129721009Y-97656547D01*
X129721009Y-97656547D02*
X129768628Y-97561309D01*
X129768628Y-97561309D02*
X129768628Y-97180357D01*
X129244819Y-98085119D02*
X129244819Y-98704166D01*
X129244819Y-98704166D02*
X129625771Y-98370833D01*
X129625771Y-98370833D02*
X129625771Y-98513690D01*
X129625771Y-98513690D02*
X129673390Y-98608928D01*
X129673390Y-98608928D02*
X129721009Y-98656547D01*
X129721009Y-98656547D02*
X129816247Y-98704166D01*
X129816247Y-98704166D02*
X130054342Y-98704166D01*
X130054342Y-98704166D02*
X130149580Y-98656547D01*
X130149580Y-98656547D02*
X130197200Y-98608928D01*
X130197200Y-98608928D02*
X130244819Y-98513690D01*
X130244819Y-98513690D02*
X130244819Y-98227976D01*
X130244819Y-98227976D02*
X130197200Y-98132738D01*
X130197200Y-98132738D02*
X130149580Y-98085119D01*
X191803357Y-83559580D02*
X191850976Y-83607200D01*
X191850976Y-83607200D02*
X191993833Y-83654819D01*
X191993833Y-83654819D02*
X192089071Y-83654819D01*
X192089071Y-83654819D02*
X192231928Y-83607200D01*
X192231928Y-83607200D02*
X192327166Y-83511961D01*
X192327166Y-83511961D02*
X192374785Y-83416723D01*
X192374785Y-83416723D02*
X192422404Y-83226247D01*
X192422404Y-83226247D02*
X192422404Y-83083390D01*
X192422404Y-83083390D02*
X192374785Y-82892914D01*
X192374785Y-82892914D02*
X192327166Y-82797676D01*
X192327166Y-82797676D02*
X192231928Y-82702438D01*
X192231928Y-82702438D02*
X192089071Y-82654819D01*
X192089071Y-82654819D02*
X191993833Y-82654819D01*
X191993833Y-82654819D02*
X191850976Y-82702438D01*
X191850976Y-82702438D02*
X191803357Y-82750057D01*
X191422404Y-82750057D02*
X191374785Y-82702438D01*
X191374785Y-82702438D02*
X191279547Y-82654819D01*
X191279547Y-82654819D02*
X191041452Y-82654819D01*
X191041452Y-82654819D02*
X190946214Y-82702438D01*
X190946214Y-82702438D02*
X190898595Y-82750057D01*
X190898595Y-82750057D02*
X190850976Y-82845295D01*
X190850976Y-82845295D02*
X190850976Y-82940533D01*
X190850976Y-82940533D02*
X190898595Y-83083390D01*
X190898595Y-83083390D02*
X191470023Y-83654819D01*
X191470023Y-83654819D02*
X190850976Y-83654819D01*
X189898595Y-83654819D02*
X190470023Y-83654819D01*
X190184309Y-83654819D02*
X190184309Y-82654819D01*
X190184309Y-82654819D02*
X190279547Y-82797676D01*
X190279547Y-82797676D02*
X190374785Y-82892914D01*
X190374785Y-82892914D02*
X190470023Y-82940533D01*
X184183857Y-80473582D02*
X184231476Y-80521202D01*
X184231476Y-80521202D02*
X184374333Y-80568821D01*
X184374333Y-80568821D02*
X184469571Y-80568821D01*
X184469571Y-80568821D02*
X184612428Y-80521202D01*
X184612428Y-80521202D02*
X184707666Y-80425963D01*
X184707666Y-80425963D02*
X184755285Y-80330725D01*
X184755285Y-80330725D02*
X184802904Y-80140249D01*
X184802904Y-80140249D02*
X184802904Y-79997392D01*
X184802904Y-79997392D02*
X184755285Y-79806916D01*
X184755285Y-79806916D02*
X184707666Y-79711678D01*
X184707666Y-79711678D02*
X184612428Y-79616440D01*
X184612428Y-79616440D02*
X184469571Y-79568821D01*
X184469571Y-79568821D02*
X184374333Y-79568821D01*
X184374333Y-79568821D02*
X184231476Y-79616440D01*
X184231476Y-79616440D02*
X184183857Y-79664059D01*
X183231476Y-80568821D02*
X183802904Y-80568821D01*
X183517190Y-80568821D02*
X183517190Y-79568821D01*
X183517190Y-79568821D02*
X183612428Y-79711678D01*
X183612428Y-79711678D02*
X183707666Y-79806916D01*
X183707666Y-79806916D02*
X183802904Y-79854535D01*
X182660047Y-79997392D02*
X182755285Y-79949773D01*
X182755285Y-79949773D02*
X182802904Y-79902154D01*
X182802904Y-79902154D02*
X182850523Y-79806916D01*
X182850523Y-79806916D02*
X182850523Y-79759297D01*
X182850523Y-79759297D02*
X182802904Y-79664059D01*
X182802904Y-79664059D02*
X182755285Y-79616440D01*
X182755285Y-79616440D02*
X182660047Y-79568821D01*
X182660047Y-79568821D02*
X182469571Y-79568821D01*
X182469571Y-79568821D02*
X182374333Y-79616440D01*
X182374333Y-79616440D02*
X182326714Y-79664059D01*
X182326714Y-79664059D02*
X182279095Y-79759297D01*
X182279095Y-79759297D02*
X182279095Y-79806916D01*
X182279095Y-79806916D02*
X182326714Y-79902154D01*
X182326714Y-79902154D02*
X182374333Y-79949773D01*
X182374333Y-79949773D02*
X182469571Y-79997392D01*
X182469571Y-79997392D02*
X182660047Y-79997392D01*
X182660047Y-79997392D02*
X182755285Y-80045011D01*
X182755285Y-80045011D02*
X182802904Y-80092630D01*
X182802904Y-80092630D02*
X182850523Y-80187868D01*
X182850523Y-80187868D02*
X182850523Y-80378344D01*
X182850523Y-80378344D02*
X182802904Y-80473582D01*
X182802904Y-80473582D02*
X182755285Y-80521202D01*
X182755285Y-80521202D02*
X182660047Y-80568821D01*
X182660047Y-80568821D02*
X182469571Y-80568821D01*
X182469571Y-80568821D02*
X182374333Y-80521202D01*
X182374333Y-80521202D02*
X182326714Y-80473582D01*
X182326714Y-80473582D02*
X182279095Y-80378344D01*
X182279095Y-80378344D02*
X182279095Y-80187868D01*
X182279095Y-80187868D02*
X182326714Y-80092630D01*
X182326714Y-80092630D02*
X182374333Y-80045011D01*
X182374333Y-80045011D02*
X182469571Y-79997392D01*
X185710166Y-105822582D02*
X185757785Y-105870202D01*
X185757785Y-105870202D02*
X185900642Y-105917821D01*
X185900642Y-105917821D02*
X185995880Y-105917821D01*
X185995880Y-105917821D02*
X186138737Y-105870202D01*
X186138737Y-105870202D02*
X186233975Y-105774963D01*
X186233975Y-105774963D02*
X186281594Y-105679725D01*
X186281594Y-105679725D02*
X186329213Y-105489249D01*
X186329213Y-105489249D02*
X186329213Y-105346392D01*
X186329213Y-105346392D02*
X186281594Y-105155916D01*
X186281594Y-105155916D02*
X186233975Y-105060678D01*
X186233975Y-105060678D02*
X186138737Y-104965440D01*
X186138737Y-104965440D02*
X185995880Y-104917821D01*
X185995880Y-104917821D02*
X185900642Y-104917821D01*
X185900642Y-104917821D02*
X185757785Y-104965440D01*
X185757785Y-104965440D02*
X185710166Y-105013059D01*
X184853023Y-105870202D02*
X184948261Y-105917821D01*
X184948261Y-105917821D02*
X185138737Y-105917821D01*
X185138737Y-105917821D02*
X185233975Y-105870202D01*
X185233975Y-105870202D02*
X185281594Y-105822582D01*
X185281594Y-105822582D02*
X185329213Y-105727344D01*
X185329213Y-105727344D02*
X185329213Y-105441630D01*
X185329213Y-105441630D02*
X185281594Y-105346392D01*
X185281594Y-105346392D02*
X185233975Y-105298773D01*
X185233975Y-105298773D02*
X185138737Y-105251154D01*
X185138737Y-105251154D02*
X184948261Y-105251154D01*
X184948261Y-105251154D02*
X184853023Y-105298773D01*
X184281594Y-105917821D02*
X184376832Y-105870202D01*
X184376832Y-105870202D02*
X184424451Y-105822582D01*
X184424451Y-105822582D02*
X184472070Y-105727344D01*
X184472070Y-105727344D02*
X184472070Y-105441630D01*
X184472070Y-105441630D02*
X184424451Y-105346392D01*
X184424451Y-105346392D02*
X184376832Y-105298773D01*
X184376832Y-105298773D02*
X184281594Y-105251154D01*
X184281594Y-105251154D02*
X184138737Y-105251154D01*
X184138737Y-105251154D02*
X184043499Y-105298773D01*
X184043499Y-105298773D02*
X183995880Y-105346392D01*
X183995880Y-105346392D02*
X183948261Y-105441630D01*
X183948261Y-105441630D02*
X183948261Y-105727344D01*
X183948261Y-105727344D02*
X183995880Y-105822582D01*
X183995880Y-105822582D02*
X184043499Y-105870202D01*
X184043499Y-105870202D02*
X184138737Y-105917821D01*
X184138737Y-105917821D02*
X184281594Y-105917821D01*
X183519689Y-105917821D02*
X183519689Y-105251154D01*
X183519689Y-105346392D02*
X183472070Y-105298773D01*
X183472070Y-105298773D02*
X183376832Y-105251154D01*
X183376832Y-105251154D02*
X183233975Y-105251154D01*
X183233975Y-105251154D02*
X183138737Y-105298773D01*
X183138737Y-105298773D02*
X183091118Y-105394011D01*
X183091118Y-105394011D02*
X183091118Y-105917821D01*
X183091118Y-105394011D02*
X183043499Y-105298773D01*
X183043499Y-105298773D02*
X182948261Y-105251154D01*
X182948261Y-105251154D02*
X182805404Y-105251154D01*
X182805404Y-105251154D02*
X182710165Y-105298773D01*
X182710165Y-105298773D02*
X182662546Y-105394011D01*
X182662546Y-105394011D02*
X182662546Y-105917821D01*
X182186356Y-105251154D02*
X182186356Y-106251154D01*
X182186356Y-105298773D02*
X182091118Y-105251154D01*
X182091118Y-105251154D02*
X181900642Y-105251154D01*
X181900642Y-105251154D02*
X181805404Y-105298773D01*
X181805404Y-105298773D02*
X181757785Y-105346392D01*
X181757785Y-105346392D02*
X181710166Y-105441630D01*
X181710166Y-105441630D02*
X181710166Y-105727344D01*
X181710166Y-105727344D02*
X181757785Y-105822582D01*
X181757785Y-105822582D02*
X181805404Y-105870202D01*
X181805404Y-105870202D02*
X181900642Y-105917821D01*
X181900642Y-105917821D02*
X182091118Y-105917821D01*
X182091118Y-105917821D02*
X182186356Y-105870202D01*
X180757785Y-105917821D02*
X181329213Y-105917821D01*
X181043499Y-105917821D02*
X181043499Y-104917821D01*
X181043499Y-104917821D02*
X181138737Y-105060678D01*
X181138737Y-105060678D02*
X181233975Y-105155916D01*
X181233975Y-105155916D02*
X181329213Y-105203535D01*
X144043666Y-101543819D02*
X144376999Y-101067628D01*
X144615094Y-101543819D02*
X144615094Y-100543819D01*
X144615094Y-100543819D02*
X144234142Y-100543819D01*
X144234142Y-100543819D02*
X144138904Y-100591438D01*
X144138904Y-100591438D02*
X144091285Y-100639057D01*
X144091285Y-100639057D02*
X144043666Y-100734295D01*
X144043666Y-100734295D02*
X144043666Y-100877152D01*
X144043666Y-100877152D02*
X144091285Y-100972390D01*
X144091285Y-100972390D02*
X144138904Y-101020009D01*
X144138904Y-101020009D02*
X144234142Y-101067628D01*
X144234142Y-101067628D02*
X144615094Y-101067628D01*
X143091285Y-101543819D02*
X143662713Y-101543819D01*
X143376999Y-101543819D02*
X143376999Y-100543819D01*
X143376999Y-100543819D02*
X143472237Y-100686676D01*
X143472237Y-100686676D02*
X143567475Y-100781914D01*
X143567475Y-100781914D02*
X143662713Y-100829533D01*
X120244819Y-97144642D02*
X119768628Y-96811309D01*
X120244819Y-96573214D02*
X119244819Y-96573214D01*
X119244819Y-96573214D02*
X119244819Y-96954166D01*
X119244819Y-96954166D02*
X119292438Y-97049404D01*
X119292438Y-97049404D02*
X119340057Y-97097023D01*
X119340057Y-97097023D02*
X119435295Y-97144642D01*
X119435295Y-97144642D02*
X119578152Y-97144642D01*
X119578152Y-97144642D02*
X119673390Y-97097023D01*
X119673390Y-97097023D02*
X119721009Y-97049404D01*
X119721009Y-97049404D02*
X119768628Y-96954166D01*
X119768628Y-96954166D02*
X119768628Y-96573214D01*
X119340057Y-97525595D02*
X119292438Y-97573214D01*
X119292438Y-97573214D02*
X119244819Y-97668452D01*
X119244819Y-97668452D02*
X119244819Y-97906547D01*
X119244819Y-97906547D02*
X119292438Y-98001785D01*
X119292438Y-98001785D02*
X119340057Y-98049404D01*
X119340057Y-98049404D02*
X119435295Y-98097023D01*
X119435295Y-98097023D02*
X119530533Y-98097023D01*
X119530533Y-98097023D02*
X119673390Y-98049404D01*
X119673390Y-98049404D02*
X120244819Y-97477976D01*
X120244819Y-97477976D02*
X120244819Y-98097023D01*
X119244819Y-98716071D02*
X119244819Y-98811309D01*
X119244819Y-98811309D02*
X119292438Y-98906547D01*
X119292438Y-98906547D02*
X119340057Y-98954166D01*
X119340057Y-98954166D02*
X119435295Y-99001785D01*
X119435295Y-99001785D02*
X119625771Y-99049404D01*
X119625771Y-99049404D02*
X119863866Y-99049404D01*
X119863866Y-99049404D02*
X120054342Y-99001785D01*
X120054342Y-99001785D02*
X120149580Y-98954166D01*
X120149580Y-98954166D02*
X120197200Y-98906547D01*
X120197200Y-98906547D02*
X120244819Y-98811309D01*
X120244819Y-98811309D02*
X120244819Y-98716071D01*
X120244819Y-98716071D02*
X120197200Y-98620833D01*
X120197200Y-98620833D02*
X120149580Y-98573214D01*
X120149580Y-98573214D02*
X120054342Y-98525595D01*
X120054342Y-98525595D02*
X119863866Y-98477976D01*
X119863866Y-98477976D02*
X119625771Y-98477976D01*
X119625771Y-98477976D02*
X119435295Y-98525595D01*
X119435295Y-98525595D02*
X119340057Y-98573214D01*
X119340057Y-98573214D02*
X119292438Y-98620833D01*
X119292438Y-98620833D02*
X119244819Y-98716071D01*
X160107357Y-95613819D02*
X160440690Y-95137628D01*
X160678785Y-95613819D02*
X160678785Y-94613819D01*
X160678785Y-94613819D02*
X160297833Y-94613819D01*
X160297833Y-94613819D02*
X160202595Y-94661438D01*
X160202595Y-94661438D02*
X160154976Y-94709057D01*
X160154976Y-94709057D02*
X160107357Y-94804295D01*
X160107357Y-94804295D02*
X160107357Y-94947152D01*
X160107357Y-94947152D02*
X160154976Y-95042390D01*
X160154976Y-95042390D02*
X160202595Y-95090009D01*
X160202595Y-95090009D02*
X160297833Y-95137628D01*
X160297833Y-95137628D02*
X160678785Y-95137628D01*
X159154976Y-95613819D02*
X159726404Y-95613819D01*
X159440690Y-95613819D02*
X159440690Y-94613819D01*
X159440690Y-94613819D02*
X159535928Y-94756676D01*
X159535928Y-94756676D02*
X159631166Y-94851914D01*
X159631166Y-94851914D02*
X159726404Y-94899533D01*
X158821642Y-94613819D02*
X158154976Y-94613819D01*
X158154976Y-94613819D02*
X158583547Y-95613819D01*
X190929547Y-91068821D02*
X191262880Y-90592630D01*
X191500975Y-91068821D02*
X191500975Y-90068821D01*
X191500975Y-90068821D02*
X191120023Y-90068821D01*
X191120023Y-90068821D02*
X191024785Y-90116440D01*
X191024785Y-90116440D02*
X190977166Y-90164059D01*
X190977166Y-90164059D02*
X190929547Y-90259297D01*
X190929547Y-90259297D02*
X190929547Y-90402154D01*
X190929547Y-90402154D02*
X190977166Y-90497392D01*
X190977166Y-90497392D02*
X191024785Y-90545011D01*
X191024785Y-90545011D02*
X191120023Y-90592630D01*
X191120023Y-90592630D02*
X191500975Y-90592630D01*
X190358118Y-91068821D02*
X190453356Y-91021202D01*
X190453356Y-91021202D02*
X190500975Y-90973582D01*
X190500975Y-90973582D02*
X190548594Y-90878344D01*
X190548594Y-90878344D02*
X190548594Y-90592630D01*
X190548594Y-90592630D02*
X190500975Y-90497392D01*
X190500975Y-90497392D02*
X190453356Y-90449773D01*
X190453356Y-90449773D02*
X190358118Y-90402154D01*
X190358118Y-90402154D02*
X190215261Y-90402154D01*
X190215261Y-90402154D02*
X190120023Y-90449773D01*
X190120023Y-90449773D02*
X190072404Y-90497392D01*
X190072404Y-90497392D02*
X190024785Y-90592630D01*
X190024785Y-90592630D02*
X190024785Y-90878344D01*
X190024785Y-90878344D02*
X190072404Y-90973582D01*
X190072404Y-90973582D02*
X190120023Y-91021202D01*
X190120023Y-91021202D02*
X190215261Y-91068821D01*
X190215261Y-91068821D02*
X190358118Y-91068821D01*
X189072404Y-91068821D02*
X189643832Y-91068821D01*
X189358118Y-91068821D02*
X189358118Y-90068821D01*
X189358118Y-90068821D02*
X189453356Y-90211678D01*
X189453356Y-90211678D02*
X189548594Y-90306916D01*
X189548594Y-90306916D02*
X189643832Y-90354535D01*
X127494819Y-89644642D02*
X127018628Y-89311309D01*
X127494819Y-89073214D02*
X126494819Y-89073214D01*
X126494819Y-89073214D02*
X126494819Y-89454166D01*
X126494819Y-89454166D02*
X126542438Y-89549404D01*
X126542438Y-89549404D02*
X126590057Y-89597023D01*
X126590057Y-89597023D02*
X126685295Y-89644642D01*
X126685295Y-89644642D02*
X126828152Y-89644642D01*
X126828152Y-89644642D02*
X126923390Y-89597023D01*
X126923390Y-89597023D02*
X126971009Y-89549404D01*
X126971009Y-89549404D02*
X127018628Y-89454166D01*
X127018628Y-89454166D02*
X127018628Y-89073214D01*
X126590057Y-90025595D02*
X126542438Y-90073214D01*
X126542438Y-90073214D02*
X126494819Y-90168452D01*
X126494819Y-90168452D02*
X126494819Y-90406547D01*
X126494819Y-90406547D02*
X126542438Y-90501785D01*
X126542438Y-90501785D02*
X126590057Y-90549404D01*
X126590057Y-90549404D02*
X126685295Y-90597023D01*
X126685295Y-90597023D02*
X126780533Y-90597023D01*
X126780533Y-90597023D02*
X126923390Y-90549404D01*
X126923390Y-90549404D02*
X127494819Y-89977976D01*
X127494819Y-89977976D02*
X127494819Y-90597023D01*
X127494819Y-91549404D02*
X127494819Y-90977976D01*
X127494819Y-91263690D02*
X126494819Y-91263690D01*
X126494819Y-91263690D02*
X126637676Y-91168452D01*
X126637676Y-91168452D02*
X126732914Y-91073214D01*
X126732914Y-91073214D02*
X126780533Y-90977976D01*
X144216666Y-92754819D02*
X144549999Y-92278628D01*
X144788094Y-92754819D02*
X144788094Y-91754819D01*
X144788094Y-91754819D02*
X144407142Y-91754819D01*
X144407142Y-91754819D02*
X144311904Y-91802438D01*
X144311904Y-91802438D02*
X144264285Y-91850057D01*
X144264285Y-91850057D02*
X144216666Y-91945295D01*
X144216666Y-91945295D02*
X144216666Y-92088152D01*
X144216666Y-92088152D02*
X144264285Y-92183390D01*
X144264285Y-92183390D02*
X144311904Y-92231009D01*
X144311904Y-92231009D02*
X144407142Y-92278628D01*
X144407142Y-92278628D02*
X144788094Y-92278628D01*
X143359523Y-92088152D02*
X143359523Y-92754819D01*
X143597618Y-91707200D02*
X143835713Y-92421485D01*
X143835713Y-92421485D02*
X143216666Y-92421485D01*
X184829214Y-102522582D02*
X184876833Y-102570202D01*
X184876833Y-102570202D02*
X185019690Y-102617821D01*
X185019690Y-102617821D02*
X185114928Y-102617821D01*
X185114928Y-102617821D02*
X185257785Y-102570202D01*
X185257785Y-102570202D02*
X185353023Y-102474963D01*
X185353023Y-102474963D02*
X185400642Y-102379725D01*
X185400642Y-102379725D02*
X185448261Y-102189249D01*
X185448261Y-102189249D02*
X185448261Y-102046392D01*
X185448261Y-102046392D02*
X185400642Y-101855916D01*
X185400642Y-101855916D02*
X185353023Y-101760678D01*
X185353023Y-101760678D02*
X185257785Y-101665440D01*
X185257785Y-101665440D02*
X185114928Y-101617821D01*
X185114928Y-101617821D02*
X185019690Y-101617821D01*
X185019690Y-101617821D02*
X184876833Y-101665440D01*
X184876833Y-101665440D02*
X184829214Y-101713059D01*
X184448261Y-102570202D02*
X184353023Y-102617821D01*
X184353023Y-102617821D02*
X184162547Y-102617821D01*
X184162547Y-102617821D02*
X184067309Y-102570202D01*
X184067309Y-102570202D02*
X184019690Y-102474963D01*
X184019690Y-102474963D02*
X184019690Y-102427344D01*
X184019690Y-102427344D02*
X184067309Y-102332106D01*
X184067309Y-102332106D02*
X184162547Y-102284487D01*
X184162547Y-102284487D02*
X184305404Y-102284487D01*
X184305404Y-102284487D02*
X184400642Y-102236868D01*
X184400642Y-102236868D02*
X184448261Y-102141630D01*
X184448261Y-102141630D02*
X184448261Y-102094011D01*
X184448261Y-102094011D02*
X184400642Y-101998773D01*
X184400642Y-101998773D02*
X184305404Y-101951154D01*
X184305404Y-101951154D02*
X184162547Y-101951154D01*
X184162547Y-101951154D02*
X184067309Y-101998773D01*
X183210166Y-102570202D02*
X183305404Y-102617821D01*
X183305404Y-102617821D02*
X183495880Y-102617821D01*
X183495880Y-102617821D02*
X183591118Y-102570202D01*
X183591118Y-102570202D02*
X183638737Y-102474963D01*
X183638737Y-102474963D02*
X183638737Y-102094011D01*
X183638737Y-102094011D02*
X183591118Y-101998773D01*
X183591118Y-101998773D02*
X183495880Y-101951154D01*
X183495880Y-101951154D02*
X183305404Y-101951154D01*
X183305404Y-101951154D02*
X183210166Y-101998773D01*
X183210166Y-101998773D02*
X183162547Y-102094011D01*
X183162547Y-102094011D02*
X183162547Y-102189249D01*
X183162547Y-102189249D02*
X183638737Y-102284487D01*
X182876832Y-101951154D02*
X182495880Y-101951154D01*
X182733975Y-101617821D02*
X182733975Y-102474963D01*
X182733975Y-102474963D02*
X182686356Y-102570202D01*
X182686356Y-102570202D02*
X182591118Y-102617821D01*
X182591118Y-102617821D02*
X182495880Y-102617821D01*
X181638737Y-102617821D02*
X182210165Y-102617821D01*
X181924451Y-102617821D02*
X181924451Y-101617821D01*
X181924451Y-101617821D02*
X182019689Y-101760678D01*
X182019689Y-101760678D02*
X182114927Y-101855916D01*
X182114927Y-101855916D02*
X182210165Y-101903535D01*
X191167642Y-93873582D02*
X191215261Y-93921202D01*
X191215261Y-93921202D02*
X191358118Y-93968821D01*
X191358118Y-93968821D02*
X191453356Y-93968821D01*
X191453356Y-93968821D02*
X191596213Y-93921202D01*
X191596213Y-93921202D02*
X191691451Y-93825963D01*
X191691451Y-93825963D02*
X191739070Y-93730725D01*
X191739070Y-93730725D02*
X191786689Y-93540249D01*
X191786689Y-93540249D02*
X191786689Y-93397392D01*
X191786689Y-93397392D02*
X191739070Y-93206916D01*
X191739070Y-93206916D02*
X191691451Y-93111678D01*
X191691451Y-93111678D02*
X191596213Y-93016440D01*
X191596213Y-93016440D02*
X191453356Y-92968821D01*
X191453356Y-92968821D02*
X191358118Y-92968821D01*
X191358118Y-92968821D02*
X191215261Y-93016440D01*
X191215261Y-93016440D02*
X191167642Y-93064059D01*
X190739070Y-93968821D02*
X190739070Y-93302154D01*
X190739070Y-92968821D02*
X190786689Y-93016440D01*
X190786689Y-93016440D02*
X190739070Y-93064059D01*
X190739070Y-93064059D02*
X190691451Y-93016440D01*
X190691451Y-93016440D02*
X190739070Y-92968821D01*
X190739070Y-92968821D02*
X190739070Y-93064059D01*
X190262880Y-93302154D02*
X190262880Y-93968821D01*
X190262880Y-93397392D02*
X190215261Y-93349773D01*
X190215261Y-93349773D02*
X190120023Y-93302154D01*
X190120023Y-93302154D02*
X189977166Y-93302154D01*
X189977166Y-93302154D02*
X189881928Y-93349773D01*
X189881928Y-93349773D02*
X189834309Y-93445011D01*
X189834309Y-93445011D02*
X189834309Y-93968821D01*
X188834309Y-93968821D02*
X189405737Y-93968821D01*
X189120023Y-93968821D02*
X189120023Y-92968821D01*
X189120023Y-92968821D02*
X189215261Y-93111678D01*
X189215261Y-93111678D02*
X189310499Y-93206916D01*
X189310499Y-93206916D02*
X189405737Y-93254535D01*
X123149580Y-97144642D02*
X123197200Y-97097023D01*
X123197200Y-97097023D02*
X123244819Y-96954166D01*
X123244819Y-96954166D02*
X123244819Y-96858928D01*
X123244819Y-96858928D02*
X123197200Y-96716071D01*
X123197200Y-96716071D02*
X123101961Y-96620833D01*
X123101961Y-96620833D02*
X123006723Y-96573214D01*
X123006723Y-96573214D02*
X122816247Y-96525595D01*
X122816247Y-96525595D02*
X122673390Y-96525595D01*
X122673390Y-96525595D02*
X122482914Y-96573214D01*
X122482914Y-96573214D02*
X122387676Y-96620833D01*
X122387676Y-96620833D02*
X122292438Y-96716071D01*
X122292438Y-96716071D02*
X122244819Y-96858928D01*
X122244819Y-96858928D02*
X122244819Y-96954166D01*
X122244819Y-96954166D02*
X122292438Y-97097023D01*
X122292438Y-97097023D02*
X122340057Y-97144642D01*
X123244819Y-98097023D02*
X123244819Y-97525595D01*
X123244819Y-97811309D02*
X122244819Y-97811309D01*
X122244819Y-97811309D02*
X122387676Y-97716071D01*
X122387676Y-97716071D02*
X122482914Y-97620833D01*
X122482914Y-97620833D02*
X122530533Y-97525595D01*
X122244819Y-99001785D02*
X122244819Y-98525595D01*
X122244819Y-98525595D02*
X122721009Y-98477976D01*
X122721009Y-98477976D02*
X122673390Y-98525595D01*
X122673390Y-98525595D02*
X122625771Y-98620833D01*
X122625771Y-98620833D02*
X122625771Y-98858928D01*
X122625771Y-98858928D02*
X122673390Y-98954166D01*
X122673390Y-98954166D02*
X122721009Y-99001785D01*
X122721009Y-99001785D02*
X122816247Y-99049404D01*
X122816247Y-99049404D02*
X123054342Y-99049404D01*
X123054342Y-99049404D02*
X123149580Y-99001785D01*
X123149580Y-99001785D02*
X123197200Y-98954166D01*
X123197200Y-98954166D02*
X123244819Y-98858928D01*
X123244819Y-98858928D02*
X123244819Y-98620833D01*
X123244819Y-98620833D02*
X123197200Y-98525595D01*
X123197200Y-98525595D02*
X123149580Y-98477976D01*
X192108714Y-87748821D02*
X192442047Y-87272630D01*
X192680142Y-87748821D02*
X192680142Y-86748821D01*
X192680142Y-86748821D02*
X192299190Y-86748821D01*
X192299190Y-86748821D02*
X192203952Y-86796440D01*
X192203952Y-86796440D02*
X192156333Y-86844059D01*
X192156333Y-86844059D02*
X192108714Y-86939297D01*
X192108714Y-86939297D02*
X192108714Y-87082154D01*
X192108714Y-87082154D02*
X192156333Y-87177392D01*
X192156333Y-87177392D02*
X192203952Y-87225011D01*
X192203952Y-87225011D02*
X192299190Y-87272630D01*
X192299190Y-87272630D02*
X192680142Y-87272630D01*
X191537285Y-87748821D02*
X191632523Y-87701202D01*
X191632523Y-87701202D02*
X191680142Y-87605963D01*
X191680142Y-87605963D02*
X191680142Y-86748821D01*
X191013475Y-87748821D02*
X191108713Y-87701202D01*
X191108713Y-87701202D02*
X191156332Y-87653582D01*
X191156332Y-87653582D02*
X191203951Y-87558344D01*
X191203951Y-87558344D02*
X191203951Y-87272630D01*
X191203951Y-87272630D02*
X191156332Y-87177392D01*
X191156332Y-87177392D02*
X191108713Y-87129773D01*
X191108713Y-87129773D02*
X191013475Y-87082154D01*
X191013475Y-87082154D02*
X190870618Y-87082154D01*
X190870618Y-87082154D02*
X190775380Y-87129773D01*
X190775380Y-87129773D02*
X190727761Y-87177392D01*
X190727761Y-87177392D02*
X190680142Y-87272630D01*
X190680142Y-87272630D02*
X190680142Y-87558344D01*
X190680142Y-87558344D02*
X190727761Y-87653582D01*
X190727761Y-87653582D02*
X190775380Y-87701202D01*
X190775380Y-87701202D02*
X190870618Y-87748821D01*
X190870618Y-87748821D02*
X191013475Y-87748821D01*
X190108713Y-87748821D02*
X190203951Y-87701202D01*
X190203951Y-87701202D02*
X190251570Y-87653582D01*
X190251570Y-87653582D02*
X190299189Y-87558344D01*
X190299189Y-87558344D02*
X190299189Y-87272630D01*
X190299189Y-87272630D02*
X190251570Y-87177392D01*
X190251570Y-87177392D02*
X190203951Y-87129773D01*
X190203951Y-87129773D02*
X190108713Y-87082154D01*
X190108713Y-87082154D02*
X189965856Y-87082154D01*
X189965856Y-87082154D02*
X189870618Y-87129773D01*
X189870618Y-87129773D02*
X189822999Y-87177392D01*
X189822999Y-87177392D02*
X189775380Y-87272630D01*
X189775380Y-87272630D02*
X189775380Y-87558344D01*
X189775380Y-87558344D02*
X189822999Y-87653582D01*
X189822999Y-87653582D02*
X189870618Y-87701202D01*
X189870618Y-87701202D02*
X189965856Y-87748821D01*
X189965856Y-87748821D02*
X190108713Y-87748821D01*
X189346808Y-87082154D02*
X189346808Y-88082154D01*
X189346808Y-87129773D02*
X189251570Y-87082154D01*
X189251570Y-87082154D02*
X189061094Y-87082154D01*
X189061094Y-87082154D02*
X188965856Y-87129773D01*
X188965856Y-87129773D02*
X188918237Y-87177392D01*
X188918237Y-87177392D02*
X188870618Y-87272630D01*
X188870618Y-87272630D02*
X188870618Y-87558344D01*
X188870618Y-87558344D02*
X188918237Y-87653582D01*
X188918237Y-87653582D02*
X188965856Y-87701202D01*
X188965856Y-87701202D02*
X189061094Y-87748821D01*
X189061094Y-87748821D02*
X189251570Y-87748821D01*
X189251570Y-87748821D02*
X189346808Y-87701202D01*
X187918237Y-87748821D02*
X188489665Y-87748821D01*
X188203951Y-87748821D02*
X188203951Y-86748821D01*
X188203951Y-86748821D02*
X188299189Y-86891678D01*
X188299189Y-86891678D02*
X188394427Y-86986916D01*
X188394427Y-86986916D02*
X188489665Y-87034535D01*
X113744819Y-88775595D02*
X113744819Y-89347023D01*
X114744819Y-89061309D02*
X113744819Y-89061309D01*
X114744819Y-90251785D02*
X114268628Y-89918452D01*
X114744819Y-89680357D02*
X113744819Y-89680357D01*
X113744819Y-89680357D02*
X113744819Y-90061309D01*
X113744819Y-90061309D02*
X113792438Y-90156547D01*
X113792438Y-90156547D02*
X113840057Y-90204166D01*
X113840057Y-90204166D02*
X113935295Y-90251785D01*
X113935295Y-90251785D02*
X114078152Y-90251785D01*
X114078152Y-90251785D02*
X114173390Y-90204166D01*
X114173390Y-90204166D02*
X114221009Y-90156547D01*
X114221009Y-90156547D02*
X114268628Y-90061309D01*
X114268628Y-90061309D02*
X114268628Y-89680357D01*
X114744819Y-91204166D02*
X114744819Y-90632738D01*
X114744819Y-90918452D02*
X113744819Y-90918452D01*
X113744819Y-90918452D02*
X113887676Y-90823214D01*
X113887676Y-90823214D02*
X113982914Y-90727976D01*
X113982914Y-90727976D02*
X114030533Y-90632738D01*
X184492642Y-93918821D02*
X184825975Y-93442630D01*
X185064070Y-93918821D02*
X185064070Y-92918821D01*
X185064070Y-92918821D02*
X184683118Y-92918821D01*
X184683118Y-92918821D02*
X184587880Y-92966440D01*
X184587880Y-92966440D02*
X184540261Y-93014059D01*
X184540261Y-93014059D02*
X184492642Y-93109297D01*
X184492642Y-93109297D02*
X184492642Y-93252154D01*
X184492642Y-93252154D02*
X184540261Y-93347392D01*
X184540261Y-93347392D02*
X184587880Y-93395011D01*
X184587880Y-93395011D02*
X184683118Y-93442630D01*
X184683118Y-93442630D02*
X185064070Y-93442630D01*
X184064070Y-93918821D02*
X184064070Y-93252154D01*
X184064070Y-92918821D02*
X184111689Y-92966440D01*
X184111689Y-92966440D02*
X184064070Y-93014059D01*
X184064070Y-93014059D02*
X184016451Y-92966440D01*
X184016451Y-92966440D02*
X184064070Y-92918821D01*
X184064070Y-92918821D02*
X184064070Y-93014059D01*
X183587880Y-93252154D02*
X183587880Y-93918821D01*
X183587880Y-93347392D02*
X183540261Y-93299773D01*
X183540261Y-93299773D02*
X183445023Y-93252154D01*
X183445023Y-93252154D02*
X183302166Y-93252154D01*
X183302166Y-93252154D02*
X183206928Y-93299773D01*
X183206928Y-93299773D02*
X183159309Y-93395011D01*
X183159309Y-93395011D02*
X183159309Y-93918821D01*
X182730737Y-93014059D02*
X182683118Y-92966440D01*
X182683118Y-92966440D02*
X182587880Y-92918821D01*
X182587880Y-92918821D02*
X182349785Y-92918821D01*
X182349785Y-92918821D02*
X182254547Y-92966440D01*
X182254547Y-92966440D02*
X182206928Y-93014059D01*
X182206928Y-93014059D02*
X182159309Y-93109297D01*
X182159309Y-93109297D02*
X182159309Y-93204535D01*
X182159309Y-93204535D02*
X182206928Y-93347392D01*
X182206928Y-93347392D02*
X182778356Y-93918821D01*
X182778356Y-93918821D02*
X182159309Y-93918821D01*
X116994819Y-97783333D02*
X116994819Y-97307143D01*
X116994819Y-97307143D02*
X115994819Y-97307143D01*
X116994819Y-98640476D02*
X116994819Y-98069048D01*
X116994819Y-98354762D02*
X115994819Y-98354762D01*
X115994819Y-98354762D02*
X116137676Y-98259524D01*
X116137676Y-98259524D02*
X116232914Y-98164286D01*
X116232914Y-98164286D02*
X116280533Y-98069048D01*
X160092857Y-101654819D02*
X160426190Y-101178628D01*
X160664285Y-101654819D02*
X160664285Y-100654819D01*
X160664285Y-100654819D02*
X160283333Y-100654819D01*
X160283333Y-100654819D02*
X160188095Y-100702438D01*
X160188095Y-100702438D02*
X160140476Y-100750057D01*
X160140476Y-100750057D02*
X160092857Y-100845295D01*
X160092857Y-100845295D02*
X160092857Y-100988152D01*
X160092857Y-100988152D02*
X160140476Y-101083390D01*
X160140476Y-101083390D02*
X160188095Y-101131009D01*
X160188095Y-101131009D02*
X160283333Y-101178628D01*
X160283333Y-101178628D02*
X160664285Y-101178628D01*
X159140476Y-101654819D02*
X159711904Y-101654819D01*
X159426190Y-101654819D02*
X159426190Y-100654819D01*
X159426190Y-100654819D02*
X159521428Y-100797676D01*
X159521428Y-100797676D02*
X159616666Y-100892914D01*
X159616666Y-100892914D02*
X159711904Y-100940533D01*
X158569047Y-101083390D02*
X158664285Y-101035771D01*
X158664285Y-101035771D02*
X158711904Y-100988152D01*
X158711904Y-100988152D02*
X158759523Y-100892914D01*
X158759523Y-100892914D02*
X158759523Y-100845295D01*
X158759523Y-100845295D02*
X158711904Y-100750057D01*
X158711904Y-100750057D02*
X158664285Y-100702438D01*
X158664285Y-100702438D02*
X158569047Y-100654819D01*
X158569047Y-100654819D02*
X158378571Y-100654819D01*
X158378571Y-100654819D02*
X158283333Y-100702438D01*
X158283333Y-100702438D02*
X158235714Y-100750057D01*
X158235714Y-100750057D02*
X158188095Y-100845295D01*
X158188095Y-100845295D02*
X158188095Y-100892914D01*
X158188095Y-100892914D02*
X158235714Y-100988152D01*
X158235714Y-100988152D02*
X158283333Y-101035771D01*
X158283333Y-101035771D02*
X158378571Y-101083390D01*
X158378571Y-101083390D02*
X158569047Y-101083390D01*
X158569047Y-101083390D02*
X158664285Y-101131009D01*
X158664285Y-101131009D02*
X158711904Y-101178628D01*
X158711904Y-101178628D02*
X158759523Y-101273866D01*
X158759523Y-101273866D02*
X158759523Y-101464342D01*
X158759523Y-101464342D02*
X158711904Y-101559580D01*
X158711904Y-101559580D02*
X158664285Y-101607200D01*
X158664285Y-101607200D02*
X158569047Y-101654819D01*
X158569047Y-101654819D02*
X158378571Y-101654819D01*
X158378571Y-101654819D02*
X158283333Y-101607200D01*
X158283333Y-101607200D02*
X158235714Y-101559580D01*
X158235714Y-101559580D02*
X158188095Y-101464342D01*
X158188095Y-101464342D02*
X158188095Y-101273866D01*
X158188095Y-101273866D02*
X158235714Y-101178628D01*
X158235714Y-101178628D02*
X158283333Y-101131009D01*
X158283333Y-101131009D02*
X158378571Y-101083390D01*
X144131166Y-98543819D02*
X144464499Y-98067628D01*
X144702594Y-98543819D02*
X144702594Y-97543819D01*
X144702594Y-97543819D02*
X144321642Y-97543819D01*
X144321642Y-97543819D02*
X144226404Y-97591438D01*
X144226404Y-97591438D02*
X144178785Y-97639057D01*
X144178785Y-97639057D02*
X144131166Y-97734295D01*
X144131166Y-97734295D02*
X144131166Y-97877152D01*
X144131166Y-97877152D02*
X144178785Y-97972390D01*
X144178785Y-97972390D02*
X144226404Y-98020009D01*
X144226404Y-98020009D02*
X144321642Y-98067628D01*
X144321642Y-98067628D02*
X144702594Y-98067628D01*
X143750213Y-97639057D02*
X143702594Y-97591438D01*
X143702594Y-97591438D02*
X143607356Y-97543819D01*
X143607356Y-97543819D02*
X143369261Y-97543819D01*
X143369261Y-97543819D02*
X143274023Y-97591438D01*
X143274023Y-97591438D02*
X143226404Y-97639057D01*
X143226404Y-97639057D02*
X143178785Y-97734295D01*
X143178785Y-97734295D02*
X143178785Y-97829533D01*
X143178785Y-97829533D02*
X143226404Y-97972390D01*
X143226404Y-97972390D02*
X143797832Y-98543819D01*
X143797832Y-98543819D02*
X143178785Y-98543819D01*
X184555142Y-91053582D02*
X184602761Y-91101202D01*
X184602761Y-91101202D02*
X184745618Y-91148821D01*
X184745618Y-91148821D02*
X184840856Y-91148821D01*
X184840856Y-91148821D02*
X184983713Y-91101202D01*
X184983713Y-91101202D02*
X185078951Y-91005963D01*
X185078951Y-91005963D02*
X185126570Y-90910725D01*
X185126570Y-90910725D02*
X185174189Y-90720249D01*
X185174189Y-90720249D02*
X185174189Y-90577392D01*
X185174189Y-90577392D02*
X185126570Y-90386916D01*
X185126570Y-90386916D02*
X185078951Y-90291678D01*
X185078951Y-90291678D02*
X184983713Y-90196440D01*
X184983713Y-90196440D02*
X184840856Y-90148821D01*
X184840856Y-90148821D02*
X184745618Y-90148821D01*
X184745618Y-90148821D02*
X184602761Y-90196440D01*
X184602761Y-90196440D02*
X184555142Y-90244059D01*
X184126570Y-91148821D02*
X184126570Y-90482154D01*
X184126570Y-90148821D02*
X184174189Y-90196440D01*
X184174189Y-90196440D02*
X184126570Y-90244059D01*
X184126570Y-90244059D02*
X184078951Y-90196440D01*
X184078951Y-90196440D02*
X184126570Y-90148821D01*
X184126570Y-90148821D02*
X184126570Y-90244059D01*
X183650380Y-90482154D02*
X183650380Y-91148821D01*
X183650380Y-90577392D02*
X183602761Y-90529773D01*
X183602761Y-90529773D02*
X183507523Y-90482154D01*
X183507523Y-90482154D02*
X183364666Y-90482154D01*
X183364666Y-90482154D02*
X183269428Y-90529773D01*
X183269428Y-90529773D02*
X183221809Y-90625011D01*
X183221809Y-90625011D02*
X183221809Y-91148821D01*
X182793237Y-90244059D02*
X182745618Y-90196440D01*
X182745618Y-90196440D02*
X182650380Y-90148821D01*
X182650380Y-90148821D02*
X182412285Y-90148821D01*
X182412285Y-90148821D02*
X182317047Y-90196440D01*
X182317047Y-90196440D02*
X182269428Y-90244059D01*
X182269428Y-90244059D02*
X182221809Y-90339297D01*
X182221809Y-90339297D02*
X182221809Y-90434535D01*
X182221809Y-90434535D02*
X182269428Y-90577392D01*
X182269428Y-90577392D02*
X182840856Y-91148821D01*
X182840856Y-91148821D02*
X182221809Y-91148821D01*
D11*
%TO.C,R31*%
X171627500Y-80854724D02*
X171627500Y-80345276D01*
X172672500Y-80854724D02*
X172672500Y-80345276D01*
%TO.C,R30*%
X162977500Y-80854724D02*
X162977500Y-80345276D01*
X164022500Y-80854724D02*
X164022500Y-80345276D01*
%TO.C,R29*%
X169772500Y-80345276D02*
X169772500Y-80854724D01*
X168727500Y-80345276D02*
X168727500Y-80854724D01*
%TO.C,R28*%
X165827500Y-80854724D02*
X165827500Y-80345276D01*
X166872500Y-80854724D02*
X166872500Y-80345276D01*
%TO.C,R26*%
X148792224Y-81672500D02*
X148282776Y-81672500D01*
X148792224Y-80627500D02*
X148282776Y-80627500D01*
%TO.C,R25*%
X161122500Y-80395276D02*
X161122500Y-80904724D01*
X160077500Y-80395276D02*
X160077500Y-80904724D01*
%TO.C,R24*%
X175572500Y-80345276D02*
X175572500Y-80854724D01*
X174527500Y-80345276D02*
X174527500Y-80854724D01*
%TO.C,Q2*%
X172360000Y-75737500D02*
X172360000Y-74937500D01*
X172360000Y-74137500D02*
X172360000Y-74937500D01*
X169240000Y-75737500D02*
X169240000Y-74937500D01*
X169240000Y-74137500D02*
X169240000Y-74937500D01*
X172640000Y-76477500D02*
X172310000Y-76237500D01*
X172640000Y-75997500D01*
X172640000Y-76477500D01*
G36*
X172640000Y-76477500D02*
G01*
X172310000Y-76237500D01*
X172640000Y-75997500D01*
X172640000Y-76477500D01*
G37*
%TO.C,Q1*%
X166272500Y-75737500D02*
X166272500Y-74937500D01*
X166272500Y-74137500D02*
X166272500Y-74937500D01*
X163152500Y-75737500D02*
X163152500Y-74937500D01*
X163152500Y-74137500D02*
X163152500Y-74937500D01*
X166552500Y-76477500D02*
X166222500Y-76237500D01*
X166552500Y-75997500D01*
X166552500Y-76477500D01*
G36*
X166552500Y-76477500D02*
G01*
X166222500Y-76237500D01*
X166552500Y-75997500D01*
X166552500Y-76477500D01*
G37*
%TO.C,C23*%
X148295276Y-77877500D02*
X148804724Y-77877500D01*
X148295276Y-78922500D02*
X148804724Y-78922500D01*
%TO.C,C22*%
X148322936Y-74565000D02*
X148777064Y-74565000D01*
X148322936Y-76035000D02*
X148777064Y-76035000D01*
%TO.C,1u2*%
X177022500Y-97332776D02*
X177022500Y-97842224D01*
X175977500Y-97332776D02*
X175977500Y-97842224D01*
%TO.C,1u1*%
X174577500Y-73957776D02*
X174577500Y-74467224D01*
X175622500Y-73957776D02*
X175622500Y-74467224D01*
%TO.C,C14*%
X127767500Y-97792224D02*
X127767500Y-97282776D01*
X128812500Y-97792224D02*
X128812500Y-97282776D01*
%TO.C,C20*%
X191422224Y-82152502D02*
X190912776Y-82152502D01*
X191422224Y-81107502D02*
X190912776Y-81107502D01*
%TO.C,R3*%
X143709776Y-96066500D02*
X144219224Y-96066500D01*
X143709776Y-97111500D02*
X144219224Y-97111500D01*
%TO.C,R10*%
X151632776Y-102097500D02*
X152142224Y-102097500D01*
X151632776Y-103142500D02*
X152142224Y-103142500D01*
%TO.C,R19*%
X159209776Y-99066500D02*
X159719224Y-99066500D01*
X159209776Y-100111500D02*
X159719224Y-100111500D01*
%TO.C,R7*%
X118055000Y-89722936D02*
X118055000Y-90177064D01*
X119525000Y-89722936D02*
X119525000Y-90177064D01*
%TO.C,R12*%
X151632776Y-96097500D02*
X152142224Y-96097500D01*
X151632776Y-97142500D02*
X152142224Y-97142500D01*
%TO.C,C16*%
X114055000Y-97722936D02*
X114055000Y-98177064D01*
X115525000Y-97722936D02*
X115525000Y-98177064D01*
%TO.C,Rout1*%
X183798224Y-98285502D02*
X183288776Y-98285502D01*
X183798224Y-97240502D02*
X183288776Y-97240502D01*
%TO.C,Rin1*%
X183405776Y-89816502D02*
X183915224Y-89816502D01*
X183405776Y-88771502D02*
X183915224Y-88771502D01*
%TO.C,Rset1*%
X183798224Y-101235502D02*
X183288776Y-101235502D01*
X183798224Y-100190502D02*
X183288776Y-100190502D01*
%TO.C,R22*%
X196093276Y-82116502D02*
X196602724Y-82116502D01*
X196093276Y-81071502D02*
X196602724Y-81071502D01*
%TO.C,C19*%
X183283436Y-85409002D02*
X183737564Y-85409002D01*
X183283436Y-83939002D02*
X183737564Y-83939002D01*
%TO.C,R11*%
X151632776Y-99347500D02*
X152142224Y-99347500D01*
X151632776Y-100392500D02*
X152142224Y-100392500D01*
%TO.C,R16*%
X159717224Y-93097500D02*
X159207776Y-93097500D01*
X159717224Y-94142500D02*
X159207776Y-94142500D01*
%TO.C,C17*%
X130517500Y-90032776D02*
X130517500Y-90542224D01*
X131562500Y-90032776D02*
X131562500Y-90542224D01*
%TO.C,R23*%
X196552724Y-83971502D02*
X196043276Y-83971502D01*
X196552724Y-85016502D02*
X196043276Y-85016502D01*
%TO.C,C5*%
X121517500Y-89857776D02*
X121517500Y-90367224D01*
X122562500Y-89857776D02*
X122562500Y-90367224D01*
%TO.C,R9*%
X152120724Y-93066500D02*
X151611276Y-93066500D01*
X152120724Y-94111500D02*
X151611276Y-94111500D01*
%TO.C,TR3*%
X130517500Y-97282776D02*
X130517500Y-97792224D01*
X131562500Y-97282776D02*
X131562500Y-97792224D01*
%TO.C,C21*%
X191387564Y-85509002D02*
X190933436Y-85509002D01*
X191387564Y-84039002D02*
X190933436Y-84039002D01*
%TO.C,C18*%
X183286276Y-82066502D02*
X183795724Y-82066502D01*
X183286276Y-81021502D02*
X183795724Y-81021502D01*
%TO.C,Ccomp1*%
X183720564Y-107948002D02*
X183266436Y-107948002D01*
X183720564Y-106478002D02*
X183266436Y-106478002D01*
%TO.C,R1*%
X144131724Y-102066500D02*
X143622276Y-102066500D01*
X144131724Y-103111500D02*
X143622276Y-103111500D01*
%TO.C,R20*%
X120767500Y-98042224D02*
X120767500Y-97532776D01*
X121812500Y-98042224D02*
X121812500Y-97532776D01*
%TO.C,R17*%
X159209776Y-96066500D02*
X159719224Y-96066500D01*
X159209776Y-97111500D02*
X159719224Y-97111500D01*
%TO.C,Ro1*%
X190055776Y-92566502D02*
X190565224Y-92566502D01*
X190055776Y-91521502D02*
X190565224Y-91521502D01*
%TO.C,R21*%
X127767500Y-90032776D02*
X127767500Y-90542224D01*
X128812500Y-90032776D02*
X128812500Y-90542224D01*
%TO.C,R4*%
X144219224Y-93066500D02*
X143709776Y-93066500D01*
X144219224Y-94111500D02*
X143709776Y-94111500D01*
%TO.C,Cset1*%
X183770564Y-104498002D02*
X183316436Y-104498002D01*
X183770564Y-103028002D02*
X183316436Y-103028002D01*
%TO.C,Cin1*%
X190055776Y-95466502D02*
X190565224Y-95466502D01*
X190055776Y-94421502D02*
X190565224Y-94421502D01*
%TO.C,C15*%
X123767500Y-97532776D02*
X123767500Y-98042224D01*
X124812500Y-97532776D02*
X124812500Y-98042224D01*
%TO.C,Rloop1*%
X190537564Y-89629002D02*
X190083436Y-89629002D01*
X190537564Y-88159002D02*
X190083436Y-88159002D01*
%TO.C,TR1*%
X115017500Y-89782776D02*
X115017500Y-90292224D01*
X116062500Y-89782776D02*
X116062500Y-90292224D01*
%TO.C,Rin2*%
X183380776Y-95416502D02*
X183890224Y-95416502D01*
X183380776Y-94371502D02*
X183890224Y-94371502D01*
%TO.C,L1*%
X117305000Y-98177064D02*
X117305000Y-97722936D01*
X118775000Y-98177064D02*
X118775000Y-97722936D01*
%TO.C,R18*%
X159209776Y-102066500D02*
X159719224Y-102066500D01*
X159209776Y-103111500D02*
X159719224Y-103111500D01*
%TO.C,R2*%
X144219224Y-99066500D02*
X143709776Y-99066500D01*
X144219224Y-100111500D02*
X143709776Y-100111500D01*
%TO.C,Cin2*%
X183890224Y-92516502D02*
X183380776Y-92516502D01*
X183890224Y-91471502D02*
X183380776Y-91471502D01*
%TD*%
M02*
