M48
; DRILL file {KiCad 8.0.4} date 2024-10-15T02:59:47-0500
; FORMAT={-:-/ absolute / inch / decimal}
; #@! TF.CreationDate,2024-10-15T02:59:47-05:00
; #@! TF.GenerationSoftware,Kicad,Pcbnew,8.0.4
; #@! TF.FileFunction,Plated,1,2,PTH
FMAT,2
INCH
; #@! TA.AperFunction,Plated,PTH,ComponentDrill
T1C0.0079
; #@! TA.AperFunction,Plated,PTH,ViaDrill
T2C0.0118
; #@! TA.AperFunction,Plated,PTH,ComponentDrill
T3C0.0236
; #@! TA.AperFunction,Plated,PTH,ComponentDrill
T4C0.0394
; #@! TA.AperFunction,Plated,PTH,ComponentDrill
T5C0.0469
; #@! TA.AperFunction,Plated,PTH,ComponentDrill
T6C0.0470
%
G90
G05
T1
X5.5886Y-2.9744
X5.5886Y-3.0295
X5.6161Y-2.9469
X5.6161Y-3.002
X5.6161Y-3.0571
X5.6437Y-2.9744
X5.6437Y-3.0295
X5.6713Y-2.9469
X5.6713Y-3.002
X5.6713Y-3.0571
X5.6988Y-2.9744
X5.6988Y-3.0295
T2
X4.1634Y-2.9685
X4.1634Y-3.1654
X4.1634Y-3.5098
X4.1634Y-3.7362
X4.1634Y-4.1496
X4.1634Y-4.3465
X4.2618Y-3.0768
X4.2618Y-4.2382
X4.2815Y-3.5689
X4.2815Y-3.6969
X4.3287Y-3.9705
X4.3445Y-3.313
X4.3602Y-2.9685
X4.3602Y-3.1654
X4.3602Y-4.1496
X4.3602Y-4.3465
X4.3898Y-3.4016
X4.4134Y-3.6004
X4.4154Y-3.6929
X4.4291Y-4.6319
X4.439Y-2.6929
X4.5374Y-3.6713
X4.5374Y-3.75
X4.5413Y-3.4429
X4.5413Y-3.4724
X4.5472Y-3.9429
X4.5571Y-2.7717
X4.5571Y-4.3465
X4.5571Y-4.5433
X4.5669Y-4.0315
X4.5748Y-3.4764
X4.5768Y-3.4429
X4.5965Y-3.248
X4.6024Y-3.6122
X4.6063Y-3.5394
X4.6063Y-3.7382
X4.6063Y-3.7874
X4.6161Y-4.1693
X4.626Y-3.6437
X4.6358Y-2.6929
X4.6555Y-3.1201
X4.6555Y-4.622
X4.6654Y-3.7776
X4.6949Y-2.9823
X4.6949Y-3.9823
X4.6949Y-4.435
X4.7343Y-3.4409
X4.7441Y-3.5295
X4.7539Y-4.1496
X4.7539Y-4.5433
X4.8091Y-3.7106
X4.8327Y-2.6929
X4.8425Y-3.3425
X4.8425Y-3.7756
X4.8524Y-3.628
X4.8524Y-3.7067
X4.8524Y-4.061
X4.8622Y-4.622
X4.8819Y-3.4409
X4.9508Y-2.7717
X4.9508Y-2.9685
X4.9508Y-4.5433
X4.9705Y-3.2441
X4.9823Y-3.5118
X5.0Y-3.3819
X5.0079Y-3.5335
X5.0098Y-3.7362
X5.0177Y-3.6713
X5.0295Y-2.6929
X5.0591Y-2.9094
X5.0591Y-3.1063
X5.0591Y-4.622
X5.0984Y-3.4508
X5.0984Y-3.8445
X5.1063Y-3.1535
X5.1063Y-3.187
X5.1132Y-3.5955
X5.128Y-3.2539
X5.128Y-3.3622
X5.1476Y-2.7717
X5.1476Y-2.9685
X5.1476Y-3.9528
X5.1476Y-4.5433
X5.1575Y-3.126
X5.1722Y-3.625
X5.2165Y-3.8445
X5.2264Y-2.6929
X5.2264Y-3.7559
X5.2343Y-3.2343
X5.2559Y-3.6378
X5.2559Y-4.622
X5.2815Y-2.9488
X5.2854Y-2.8504
X5.2854Y-3.0039
X5.2933Y-3.2756
X5.3031Y-3.6043
X5.3268Y-3.5669
X5.3445Y-4.5433
X5.4173Y-3.3012
X5.4331Y-4.0709
X5.437Y-2.7992
X5.4429Y-2.8602
X5.4429Y-3.0276
X5.4429Y-3.185
X5.4528Y-4.622
X5.4626Y-2.6929
X5.4724Y-3.8445
X5.4823Y-4.189
X5.502Y-3.9626
X5.5118Y-4.1004
X5.5295Y-3.3445
X5.5315Y-3.7165
X5.5413Y-2.9685
X5.5413Y-3.1654
X5.5413Y-4.3465
X5.5413Y-4.5433
X5.5827Y-3.9701
X5.5906Y-2.8504
X5.5919Y-3.7246
X5.6102Y-3.3228
X5.6201Y-2.6929
X5.6285Y-4.0894
X5.6398Y-4.622
X5.6693Y-3.5886
X5.6693Y-4.1201
X5.7126Y-3.5965
X5.7185Y-2.748
X5.7244Y-3.748
X5.7283Y-4.1102
X5.738Y-2.7675
X5.7382Y-4.5433
X5.7423Y-3.8412
X5.7461Y-3.1949
X5.748Y-2.8602
X5.7677Y-3.2638
X5.8071Y-4.3465
X5.8169Y-2.6929
X5.8169Y-3.7953
X5.8169Y-3.9528
X5.8169Y-4.1102
X5.8268Y-3.6181
X5.8386Y-2.8661
X5.8465Y-4.622
X5.8563Y-3.3228
X5.8642Y-2.8937
X5.874Y-4.0807
X5.8976Y-3.73
X5.935Y-3.1654
X5.935Y-3.2736
X5.935Y-3.6083
X5.935Y-3.7461
X5.935Y-3.8642
X5.935Y-3.9823
X5.935Y-4.5433
X5.9547Y-2.6929
X5.9547Y-2.9685
X5.9862Y-4.0992
X5.9882Y-3.752
X5.9902Y-3.3406
X6.0138Y-3.6083
X6.0433Y-4.622
X6.06Y-3.9762
X6.0748Y-3.8236
X6.0866Y-3.5866
X6.1161Y-3.6181
X6.122Y-2.7638
X6.122Y-4.3465
X6.1319Y-4.5433
X6.1418Y-3.5866
X6.1437Y-2.8465
X6.1437Y-2.8976
X6.1555Y-2.7638
X6.1654Y-3.6457
X6.1713Y-2.6929
X6.2008Y-3.7657
X6.2028Y-3.7283
X6.2106Y-3.9823
X6.2106Y-4.1299
X6.2402Y-4.622
X6.2598Y-4.1102
X6.2972Y-3.7539
X6.3091Y-3.2736
X6.3091Y-3.6083
X6.3091Y-3.8642
X6.3091Y-3.9823
X6.3141Y-4.0894
X6.3287Y-4.5433
X6.3386Y-2.9449
X6.3504Y-3.6378
X6.3583Y-3.687
X6.359Y-3.9417
X6.3622Y-2.9665
X6.3624Y-3.851
X6.3976Y-3.7756
X6.4075Y-4.3465
X6.4272Y-3.3031
X6.437Y-3.2579
X6.437Y-3.6181
X6.437Y-4.622
X6.4469Y-4.0709
X6.4961Y-3.2539
X6.5256Y-3.7559
X6.5256Y-3.9528
X6.5256Y-4.1496
X6.5256Y-4.3465
X6.5256Y-4.5433
X6.5453Y-3.6673
X6.565Y-2.8406
X6.5709Y-3.0295
X6.6043Y-2.9823
X6.6043Y-3.9035
X6.6122Y-3.1555
X6.624Y-4.1693
X6.6339Y-4.622
X6.6378Y-3.6083
X6.6383Y-3.3484
X6.6634Y-3.2638
X6.6732Y-2.8996
X6.7126Y-3.6378
X6.7224Y-2.7717
X6.7224Y-3.0472
X6.7224Y-3.1358
X6.7224Y-3.7559
X6.7224Y-3.9528
X6.7224Y-4.3465
X6.7224Y-4.5433
X6.7717Y-4.1496
X6.7913Y-3.874
X6.7913Y-4.0118
X6.8012Y-2.6929
X6.811Y-2.8307
X6.8209Y-3.2638
X6.8307Y-4.622
X6.8406Y-2.9193
X6.8406Y-3.628
X6.8602Y-2.998
X6.8898Y-3.7657
X6.9193Y-2.7717
X6.9193Y-3.9528
X6.9193Y-4.1496
X6.9193Y-4.3465
X6.9193Y-4.5433
X6.9355Y-3.3935
X6.939Y-3.0768
X6.939Y-3.628
X6.9488Y-3.1378
X6.9488Y-4.1043
X6.9783Y-3.1378
X6.9925Y-3.4171
X6.9945Y-3.4683
X6.9945Y-3.4998
X6.9966Y-3.5312
X6.998Y-2.6929
X6.998Y-3.2539
X6.9984Y-3.5647
X7.0079Y-3.3524
X7.0177Y-2.8799
X7.0177Y-4.061
X7.0276Y-4.622
X7.1161Y-2.7717
X7.1161Y-2.9685
X7.1161Y-3.1654
X7.1161Y-3.3622
X7.1161Y-3.7559
X7.1161Y-3.9528
X7.1161Y-4.1496
X7.1161Y-4.3465
X7.1161Y-4.5433
X7.126Y-3.5984
X7.126Y-3.8543
X7.1832Y-3.172
X7.186Y-4.0116
X7.1927Y-3.8962
X7.1938Y-3.6791
X7.1949Y-2.6929
X7.2045Y-4.28
X7.2146Y-2.8701
X7.2146Y-3.0472
X7.2244Y-4.622
X7.313Y-2.7717
X7.313Y-2.9685
X7.313Y-4.5433
X7.3252Y-3.2234
X7.3296Y-3.6277
X7.3425Y-3.2815
X7.353Y-3.6004
X7.3622Y-4.2283
X7.3622Y-4.3268
X7.3646Y-3.1565
X7.3917Y-2.6929
X7.3996Y-3.5925
X7.4016Y-3.5157
X7.4114Y-2.8701
X7.4114Y-3.7756
X7.4114Y-4.622
X7.4213Y-3.0472
X7.4311Y-3.9626
X7.5098Y-2.7717
X7.5098Y-2.9685
X7.5098Y-3.4409
X7.5098Y-4.5433
X7.5595Y-3.1604
X7.5689Y-3.4114
X7.5689Y-3.5591
X7.5816Y-3.6238
X7.587Y-3.738
X7.5886Y-3.8937
X7.6083Y-3.0472
X7.628Y-3.2835
X7.628Y-3.3228
X7.6481Y-3.2124
X7.6575Y-3.7264
X7.6604Y-3.3585
X7.6673Y-3.4409
X7.6791Y-4.1339
X7.687Y-3.9134
X7.7067Y-2.9685
X7.7067Y-4.3465
X7.7461Y-3.1654
X7.7461Y-3.4016
X7.7854Y-3.0866
X7.7854Y-4.2972
X7.7913Y-3.1812
X7.7953Y-4.1594
X7.8051Y-4.0118
T4
X4.887Y-2.8406
X4.937Y-4.2862
X4.987Y-2.8406
X5.037Y-4.2862
X5.137Y-4.2862
X5.237Y-4.2862
X5.337Y-4.2862
X5.437Y-4.2862
X5.665Y-4.1862
X5.665Y-4.2862
X5.765Y-4.1862
X5.765Y-4.2862
X5.865Y-4.1862
X5.865Y-4.2862
X5.965Y-4.1862
X5.965Y-4.2862
X6.065Y-4.1862
X6.065Y-4.2862
X6.165Y-4.1862
X6.165Y-4.2862
X6.2374Y-2.7303
X6.265Y-4.1862
X6.265Y-4.2862
X6.3374Y-2.7303
X6.4374Y-2.7303
X6.5374Y-2.7303
X6.6374Y-2.7303
X7.7268Y-3.5411
X7.7268Y-3.6411
X7.7268Y-3.7411
X7.7268Y-3.8411
T5
X4.6417Y-2.7898
X4.6417Y-2.8898
T6
X7.0551Y-3.0039
X7.0551Y-3.2126
X7.0551Y-3.7343
X7.0551Y-3.9429
T3
G00X4.1883Y-3.4165
M15
G01X4.141Y-3.4165
M16
G05
G00X4.1883Y-3.8591
M15
G01X4.141Y-3.8591
M16
G05
G00X4.3379Y-3.4165
M15
G01X4.3064Y-3.4165
M16
G05
G00X4.3379Y-3.8591
M15
G01X4.3064Y-3.8591
M16
G05
M30
