%TF.GenerationSoftware,KiCad,Pcbnew,8.0.4*%
%TF.CreationDate,2024-10-15T03:37:40-05:00*%
%TF.ProjectId,FPP_10_8,4650505f-3130-45f3-982e-6b696361645f,rev?*%
%TF.SameCoordinates,Original*%
%TF.FileFunction,Soldermask,Top*%
%TF.FilePolarity,Negative*%
%FSLAX46Y46*%
G04 Gerber Fmt 4.6, Leading zero omitted, Abs format (unit mm)*
G04 Created by KiCad (PCBNEW 8.0.4) date 2024-10-15 03:37:40*
%MOMM*%
%LPD*%
G01*
G04 APERTURE LIST*
G04 Aperture macros list*
%AMRoundRect*
0 Rectangle with rounded corners*
0 $1 Rounding radius*
0 $2 $3 $4 $5 $6 $7 $8 $9 X,Y pos of 4 corners*
0 Add a 4 corners polygon primitive as box body*
4,1,4,$2,$3,$4,$5,$6,$7,$8,$9,$2,$3,0*
0 Add four circle primitives for the rounded corners*
1,1,$1+$1,$2,$3*
1,1,$1+$1,$4,$5*
1,1,$1+$1,$6,$7*
1,1,$1+$1,$8,$9*
0 Add four rect primitives between the rounded corners*
20,1,$1+$1,$2,$3,$4,$5,0*
20,1,$1+$1,$4,$5,$6,$7,0*
20,1,$1+$1,$6,$7,$8,$9,0*
20,1,$1+$1,$8,$9,$2,$3,0*%
G04 Aperture macros list end*
%ADD10C,0.010000*%
%ADD11C,1.701800*%
%ADD12R,1.500000X1.500000*%
%ADD13C,4.300000*%
%ADD14RoundRect,0.237500X-0.250000X-0.237500X0.250000X-0.237500X0.250000X0.237500X-0.250000X0.237500X0*%
%ADD15RoundRect,0.237500X0.250000X0.237500X-0.250000X0.237500X-0.250000X-0.237500X0.250000X-0.237500X0*%
%ADD16R,1.700000X1.700000*%
%ADD17O,1.700000X1.700000*%
%ADD18RoundRect,0.237500X0.237500X-0.250000X0.237500X0.250000X-0.237500X0.250000X-0.237500X-0.250000X0*%
%ADD19RoundRect,0.150000X-0.512500X-0.150000X0.512500X-0.150000X0.512500X0.150000X-0.512500X0.150000X0*%
%ADD20RoundRect,0.237500X-0.237500X0.250000X-0.237500X-0.250000X0.237500X-0.250000X0.237500X0.250000X0*%
%ADD21RoundRect,0.100000X-0.637500X-0.100000X0.637500X-0.100000X0.637500X0.100000X-0.637500X0.100000X0*%
%ADD22RoundRect,0.160000X0.160000X-0.197500X0.160000X0.197500X-0.160000X0.197500X-0.160000X-0.197500X0*%
%ADD23R,1.422400X0.431800*%
%ADD24O,2.190000X1.740000*%
%ADD25RoundRect,0.250000X0.845000X-0.620000X0.845000X0.620000X-0.845000X0.620000X-0.845000X-0.620000X0*%
%ADD26RoundRect,0.375000X-0.625000X-0.375000X0.625000X-0.375000X0.625000X0.375000X-0.625000X0.375000X0*%
%ADD27RoundRect,0.500000X-0.500000X-1.400000X0.500000X-1.400000X0.500000X1.400000X-0.500000X1.400000X0*%
%ADD28C,0.600000*%
%ADD29R,3.900000X3.900000*%
%ADD30R,1.500000X0.900000*%
%ADD31R,0.900000X1.500000*%
%ADD32C,1.712000*%
%ADD33RoundRect,0.076200X-0.550000X0.300000X-0.550000X-0.300000X0.550000X-0.300000X0.550000X0.300000X0*%
%ADD34RoundRect,0.076200X-0.550000X0.150000X-0.550000X-0.150000X0.550000X-0.150000X0.550000X0.150000X0*%
G04 APERTURE END LIST*
D10*
%TO.C,J2*%
X110245500Y-86183000D02*
X110307500Y-86193000D01*
X110367500Y-86209000D01*
X110426500Y-86232000D01*
X110482500Y-86260000D01*
X110535500Y-86295000D01*
X110583500Y-86334000D01*
X110628500Y-86379000D01*
X110667500Y-86427000D01*
X110702500Y-86480000D01*
X110730500Y-86536000D01*
X110753500Y-86595000D01*
X110769500Y-86655000D01*
X110779500Y-86717000D01*
X110782500Y-86780000D01*
X110779500Y-86843000D01*
X110769500Y-86905000D01*
X110753500Y-86965000D01*
X110730500Y-87024000D01*
X110702500Y-87080000D01*
X110667500Y-87133000D01*
X110628500Y-87181000D01*
X110583500Y-87226000D01*
X110535500Y-87265000D01*
X110482500Y-87300000D01*
X110426500Y-87328000D01*
X110367500Y-87351000D01*
X110307500Y-87367000D01*
X110245500Y-87377000D01*
X110182500Y-87380000D01*
X109382500Y-87380000D01*
X109319500Y-87377000D01*
X109257500Y-87367000D01*
X109197500Y-87351000D01*
X109138500Y-87328000D01*
X109082500Y-87300000D01*
X109029500Y-87265000D01*
X108981500Y-87226000D01*
X108936500Y-87181000D01*
X108897500Y-87133000D01*
X108862500Y-87080000D01*
X108834500Y-87024000D01*
X108811500Y-86965000D01*
X108795500Y-86905000D01*
X108785500Y-86843000D01*
X108782500Y-86780000D01*
X108785500Y-86717000D01*
X108795500Y-86655000D01*
X108811500Y-86595000D01*
X108834500Y-86536000D01*
X108862500Y-86480000D01*
X108897500Y-86427000D01*
X108936500Y-86379000D01*
X108981500Y-86334000D01*
X109029500Y-86295000D01*
X109082500Y-86260000D01*
X109138500Y-86232000D01*
X109197500Y-86209000D01*
X109257500Y-86193000D01*
X109319500Y-86183000D01*
X109382500Y-86180000D01*
X110182500Y-86180000D01*
X110245500Y-86183000D01*
G36*
X110245500Y-86183000D02*
G01*
X110307500Y-86193000D01*
X110367500Y-86209000D01*
X110426500Y-86232000D01*
X110482500Y-86260000D01*
X110535500Y-86295000D01*
X110583500Y-86334000D01*
X110628500Y-86379000D01*
X110667500Y-86427000D01*
X110702500Y-86480000D01*
X110730500Y-86536000D01*
X110753500Y-86595000D01*
X110769500Y-86655000D01*
X110779500Y-86717000D01*
X110782500Y-86780000D01*
X110779500Y-86843000D01*
X110769500Y-86905000D01*
X110753500Y-86965000D01*
X110730500Y-87024000D01*
X110702500Y-87080000D01*
X110667500Y-87133000D01*
X110628500Y-87181000D01*
X110583500Y-87226000D01*
X110535500Y-87265000D01*
X110482500Y-87300000D01*
X110426500Y-87328000D01*
X110367500Y-87351000D01*
X110307500Y-87367000D01*
X110245500Y-87377000D01*
X110182500Y-87380000D01*
X109382500Y-87380000D01*
X109319500Y-87377000D01*
X109257500Y-87367000D01*
X109197500Y-87351000D01*
X109138500Y-87328000D01*
X109082500Y-87300000D01*
X109029500Y-87265000D01*
X108981500Y-87226000D01*
X108936500Y-87181000D01*
X108897500Y-87133000D01*
X108862500Y-87080000D01*
X108834500Y-87024000D01*
X108811500Y-86965000D01*
X108795500Y-86905000D01*
X108785500Y-86843000D01*
X108782500Y-86780000D01*
X108785500Y-86717000D01*
X108795500Y-86655000D01*
X108811500Y-86595000D01*
X108834500Y-86536000D01*
X108862500Y-86480000D01*
X108897500Y-86427000D01*
X108936500Y-86379000D01*
X108981500Y-86334000D01*
X109029500Y-86295000D01*
X109082500Y-86260000D01*
X109138500Y-86232000D01*
X109197500Y-86209000D01*
X109257500Y-86193000D01*
X109319500Y-86183000D01*
X109382500Y-86180000D01*
X110182500Y-86180000D01*
X110245500Y-86183000D01*
G37*
X106445500Y-86183000D02*
X106507500Y-86193000D01*
X106567500Y-86209000D01*
X106626500Y-86232000D01*
X106682500Y-86260000D01*
X106735500Y-86295000D01*
X106783500Y-86334000D01*
X106828500Y-86379000D01*
X106867500Y-86427000D01*
X106902500Y-86480000D01*
X106930500Y-86536000D01*
X106953500Y-86595000D01*
X106969500Y-86655000D01*
X106979500Y-86717000D01*
X106982500Y-86780000D01*
X106979500Y-86843000D01*
X106969500Y-86905000D01*
X106953500Y-86965000D01*
X106930500Y-87024000D01*
X106902500Y-87080000D01*
X106867500Y-87133000D01*
X106828500Y-87181000D01*
X106783500Y-87226000D01*
X106735500Y-87265000D01*
X106682500Y-87300000D01*
X106626500Y-87328000D01*
X106567500Y-87351000D01*
X106507500Y-87367000D01*
X106445500Y-87377000D01*
X106382500Y-87380000D01*
X105182500Y-87380000D01*
X105119500Y-87377000D01*
X105057500Y-87367000D01*
X104997500Y-87351000D01*
X104938500Y-87328000D01*
X104882500Y-87300000D01*
X104829500Y-87265000D01*
X104781500Y-87226000D01*
X104736500Y-87181000D01*
X104697500Y-87133000D01*
X104662500Y-87080000D01*
X104634500Y-87024000D01*
X104611500Y-86965000D01*
X104595500Y-86905000D01*
X104585500Y-86843000D01*
X104582500Y-86780000D01*
X104585500Y-86717000D01*
X104595500Y-86655000D01*
X104611500Y-86595000D01*
X104634500Y-86536000D01*
X104662500Y-86480000D01*
X104697500Y-86427000D01*
X104736500Y-86379000D01*
X104781500Y-86334000D01*
X104829500Y-86295000D01*
X104882500Y-86260000D01*
X104938500Y-86232000D01*
X104997500Y-86209000D01*
X105057500Y-86193000D01*
X105119500Y-86183000D01*
X105182500Y-86180000D01*
X106382500Y-86180000D01*
X106445500Y-86183000D01*
G36*
X106445500Y-86183000D02*
G01*
X106507500Y-86193000D01*
X106567500Y-86209000D01*
X106626500Y-86232000D01*
X106682500Y-86260000D01*
X106735500Y-86295000D01*
X106783500Y-86334000D01*
X106828500Y-86379000D01*
X106867500Y-86427000D01*
X106902500Y-86480000D01*
X106930500Y-86536000D01*
X106953500Y-86595000D01*
X106969500Y-86655000D01*
X106979500Y-86717000D01*
X106982500Y-86780000D01*
X106979500Y-86843000D01*
X106969500Y-86905000D01*
X106953500Y-86965000D01*
X106930500Y-87024000D01*
X106902500Y-87080000D01*
X106867500Y-87133000D01*
X106828500Y-87181000D01*
X106783500Y-87226000D01*
X106735500Y-87265000D01*
X106682500Y-87300000D01*
X106626500Y-87328000D01*
X106567500Y-87351000D01*
X106507500Y-87367000D01*
X106445500Y-87377000D01*
X106382500Y-87380000D01*
X105182500Y-87380000D01*
X105119500Y-87377000D01*
X105057500Y-87367000D01*
X104997500Y-87351000D01*
X104938500Y-87328000D01*
X104882500Y-87300000D01*
X104829500Y-87265000D01*
X104781500Y-87226000D01*
X104736500Y-87181000D01*
X104697500Y-87133000D01*
X104662500Y-87080000D01*
X104634500Y-87024000D01*
X104611500Y-86965000D01*
X104595500Y-86905000D01*
X104585500Y-86843000D01*
X104582500Y-86780000D01*
X104585500Y-86717000D01*
X104595500Y-86655000D01*
X104611500Y-86595000D01*
X104634500Y-86536000D01*
X104662500Y-86480000D01*
X104697500Y-86427000D01*
X104736500Y-86379000D01*
X104781500Y-86334000D01*
X104829500Y-86295000D01*
X104882500Y-86260000D01*
X104938500Y-86232000D01*
X104997500Y-86209000D01*
X105057500Y-86193000D01*
X105119500Y-86183000D01*
X105182500Y-86180000D01*
X106382500Y-86180000D01*
X106445500Y-86183000D01*
G37*
X110245500Y-97423000D02*
X110307500Y-97433000D01*
X110367500Y-97449000D01*
X110426500Y-97472000D01*
X110482500Y-97500000D01*
X110535500Y-97535000D01*
X110583500Y-97574000D01*
X110628500Y-97619000D01*
X110667500Y-97667000D01*
X110702500Y-97720000D01*
X110730500Y-97776000D01*
X110753500Y-97835000D01*
X110769500Y-97895000D01*
X110779500Y-97957000D01*
X110782500Y-98020000D01*
X110779500Y-98083000D01*
X110769500Y-98145000D01*
X110753500Y-98205000D01*
X110730500Y-98264000D01*
X110702500Y-98320000D01*
X110667500Y-98373000D01*
X110628500Y-98421000D01*
X110583500Y-98466000D01*
X110535500Y-98505000D01*
X110482500Y-98540000D01*
X110426500Y-98568000D01*
X110367500Y-98591000D01*
X110307500Y-98607000D01*
X110245500Y-98617000D01*
X110182500Y-98620000D01*
X109382500Y-98620000D01*
X109319500Y-98617000D01*
X109257500Y-98607000D01*
X109197500Y-98591000D01*
X109138500Y-98568000D01*
X109082500Y-98540000D01*
X109029500Y-98505000D01*
X108981500Y-98466000D01*
X108936500Y-98421000D01*
X108897500Y-98373000D01*
X108862500Y-98320000D01*
X108834500Y-98264000D01*
X108811500Y-98205000D01*
X108795500Y-98145000D01*
X108785500Y-98083000D01*
X108782500Y-98020000D01*
X108785500Y-97957000D01*
X108795500Y-97895000D01*
X108811500Y-97835000D01*
X108834500Y-97776000D01*
X108862500Y-97720000D01*
X108897500Y-97667000D01*
X108936500Y-97619000D01*
X108981500Y-97574000D01*
X109029500Y-97535000D01*
X109082500Y-97500000D01*
X109138500Y-97472000D01*
X109197500Y-97449000D01*
X109257500Y-97433000D01*
X109319500Y-97423000D01*
X109382500Y-97420000D01*
X110182500Y-97420000D01*
X110245500Y-97423000D01*
G36*
X110245500Y-97423000D02*
G01*
X110307500Y-97433000D01*
X110367500Y-97449000D01*
X110426500Y-97472000D01*
X110482500Y-97500000D01*
X110535500Y-97535000D01*
X110583500Y-97574000D01*
X110628500Y-97619000D01*
X110667500Y-97667000D01*
X110702500Y-97720000D01*
X110730500Y-97776000D01*
X110753500Y-97835000D01*
X110769500Y-97895000D01*
X110779500Y-97957000D01*
X110782500Y-98020000D01*
X110779500Y-98083000D01*
X110769500Y-98145000D01*
X110753500Y-98205000D01*
X110730500Y-98264000D01*
X110702500Y-98320000D01*
X110667500Y-98373000D01*
X110628500Y-98421000D01*
X110583500Y-98466000D01*
X110535500Y-98505000D01*
X110482500Y-98540000D01*
X110426500Y-98568000D01*
X110367500Y-98591000D01*
X110307500Y-98607000D01*
X110245500Y-98617000D01*
X110182500Y-98620000D01*
X109382500Y-98620000D01*
X109319500Y-98617000D01*
X109257500Y-98607000D01*
X109197500Y-98591000D01*
X109138500Y-98568000D01*
X109082500Y-98540000D01*
X109029500Y-98505000D01*
X108981500Y-98466000D01*
X108936500Y-98421000D01*
X108897500Y-98373000D01*
X108862500Y-98320000D01*
X108834500Y-98264000D01*
X108811500Y-98205000D01*
X108795500Y-98145000D01*
X108785500Y-98083000D01*
X108782500Y-98020000D01*
X108785500Y-97957000D01*
X108795500Y-97895000D01*
X108811500Y-97835000D01*
X108834500Y-97776000D01*
X108862500Y-97720000D01*
X108897500Y-97667000D01*
X108936500Y-97619000D01*
X108981500Y-97574000D01*
X109029500Y-97535000D01*
X109082500Y-97500000D01*
X109138500Y-97472000D01*
X109197500Y-97449000D01*
X109257500Y-97433000D01*
X109319500Y-97423000D01*
X109382500Y-97420000D01*
X110182500Y-97420000D01*
X110245500Y-97423000D01*
G37*
X106445500Y-97423000D02*
X106507500Y-97433000D01*
X106567500Y-97449000D01*
X106626500Y-97472000D01*
X106682500Y-97500000D01*
X106735500Y-97535000D01*
X106783500Y-97574000D01*
X106828500Y-97619000D01*
X106867500Y-97667000D01*
X106902500Y-97720000D01*
X106930500Y-97776000D01*
X106953500Y-97835000D01*
X106969500Y-97895000D01*
X106979500Y-97957000D01*
X106982500Y-98020000D01*
X106979500Y-98083000D01*
X106969500Y-98145000D01*
X106953500Y-98205000D01*
X106930500Y-98264000D01*
X106902500Y-98320000D01*
X106867500Y-98373000D01*
X106828500Y-98421000D01*
X106783500Y-98466000D01*
X106735500Y-98505000D01*
X106682500Y-98540000D01*
X106626500Y-98568000D01*
X106567500Y-98591000D01*
X106507500Y-98607000D01*
X106445500Y-98617000D01*
X106382500Y-98620000D01*
X105182500Y-98620000D01*
X105119500Y-98617000D01*
X105057500Y-98607000D01*
X104997500Y-98591000D01*
X104938500Y-98568000D01*
X104882500Y-98540000D01*
X104829500Y-98505000D01*
X104781500Y-98466000D01*
X104736500Y-98421000D01*
X104697500Y-98373000D01*
X104662500Y-98320000D01*
X104634500Y-98264000D01*
X104611500Y-98205000D01*
X104595500Y-98145000D01*
X104585500Y-98083000D01*
X104582500Y-98020000D01*
X104585500Y-97957000D01*
X104595500Y-97895000D01*
X104611500Y-97835000D01*
X104634500Y-97776000D01*
X104662500Y-97720000D01*
X104697500Y-97667000D01*
X104736500Y-97619000D01*
X104781500Y-97574000D01*
X104829500Y-97535000D01*
X104882500Y-97500000D01*
X104938500Y-97472000D01*
X104997500Y-97449000D01*
X105057500Y-97433000D01*
X105119500Y-97423000D01*
X105182500Y-97420000D01*
X106382500Y-97420000D01*
X106445500Y-97423000D01*
G36*
X106445500Y-97423000D02*
G01*
X106507500Y-97433000D01*
X106567500Y-97449000D01*
X106626500Y-97472000D01*
X106682500Y-97500000D01*
X106735500Y-97535000D01*
X106783500Y-97574000D01*
X106828500Y-97619000D01*
X106867500Y-97667000D01*
X106902500Y-97720000D01*
X106930500Y-97776000D01*
X106953500Y-97835000D01*
X106969500Y-97895000D01*
X106979500Y-97957000D01*
X106982500Y-98020000D01*
X106979500Y-98083000D01*
X106969500Y-98145000D01*
X106953500Y-98205000D01*
X106930500Y-98264000D01*
X106902500Y-98320000D01*
X106867500Y-98373000D01*
X106828500Y-98421000D01*
X106783500Y-98466000D01*
X106735500Y-98505000D01*
X106682500Y-98540000D01*
X106626500Y-98568000D01*
X106567500Y-98591000D01*
X106507500Y-98607000D01*
X106445500Y-98617000D01*
X106382500Y-98620000D01*
X105182500Y-98620000D01*
X105119500Y-98617000D01*
X105057500Y-98607000D01*
X104997500Y-98591000D01*
X104938500Y-98568000D01*
X104882500Y-98540000D01*
X104829500Y-98505000D01*
X104781500Y-98466000D01*
X104736500Y-98421000D01*
X104697500Y-98373000D01*
X104662500Y-98320000D01*
X104634500Y-98264000D01*
X104611500Y-98205000D01*
X104595500Y-98145000D01*
X104585500Y-98083000D01*
X104582500Y-98020000D01*
X104585500Y-97957000D01*
X104595500Y-97895000D01*
X104611500Y-97835000D01*
X104634500Y-97776000D01*
X104662500Y-97720000D01*
X104697500Y-97667000D01*
X104736500Y-97619000D01*
X104781500Y-97574000D01*
X104829500Y-97535000D01*
X104882500Y-97500000D01*
X104938500Y-97472000D01*
X104997500Y-97449000D01*
X105057500Y-97433000D01*
X105119500Y-97423000D01*
X105182500Y-97420000D01*
X106382500Y-97420000D01*
X106445500Y-97423000D01*
G37*
%TD*%
D11*
%TO.C,SW2*%
X179200000Y-76300000D03*
X179200000Y-81600000D03*
%TD*%
%TO.C,SW3*%
X179200000Y-94850000D03*
X179200000Y-100150000D03*
%TD*%
D12*
%TO.C,TP3*%
X176750000Y-107400000D03*
%TD*%
%TO.C,TP2*%
X171750000Y-107400000D03*
%TD*%
%TO.C,TP1*%
X166750000Y-107400000D03*
%TD*%
D13*
%TO.C,H4*%
X108750000Y-71400000D03*
%TD*%
%TO.C,H3*%
X194750000Y-114400000D03*
%TD*%
%TO.C,H2*%
X194750000Y-71400000D03*
%TD*%
%TO.C,H1*%
X108750000Y-114400000D03*
%TD*%
D14*
%TO.C,C25*%
X195385500Y-84494002D03*
X197210500Y-84494002D03*
%TD*%
D15*
%TO.C,C24*%
X197260500Y-81594002D03*
X195435500Y-81594002D03*
%TD*%
D16*
%TO.C,J4*%
X168590000Y-69350000D03*
D17*
X166050000Y-69350000D03*
X163510000Y-69350000D03*
X160970000Y-69350000D03*
X158430000Y-69350000D03*
%TD*%
D15*
%TO.C,C7*%
X152800000Y-102620000D03*
X150975000Y-102620000D03*
%TD*%
D14*
%TO.C,C2*%
X143052000Y-99589000D03*
X144877000Y-99589000D03*
%TD*%
D18*
%TO.C,R15*%
X124290000Y-91025000D03*
X124290000Y-89200000D03*
%TD*%
D19*
%TO.C,U1*%
X118515000Y-93000000D03*
X118515000Y-93950000D03*
X118515000Y-94900000D03*
X120790000Y-94900000D03*
X120790000Y-93950000D03*
X120790000Y-93000000D03*
%TD*%
D20*
%TO.C,R5*%
X115540000Y-89200000D03*
X115540000Y-91025000D03*
%TD*%
D14*
%TO.C,C6*%
X150953500Y-93589000D03*
X152778500Y-93589000D03*
%TD*%
%TO.C,C10*%
X158550000Y-93620000D03*
X160375000Y-93620000D03*
%TD*%
D21*
%TO.C,ADC1*%
X190242500Y-80053002D03*
X190242500Y-80703002D03*
X190242500Y-81353002D03*
X190242500Y-82003002D03*
X190242500Y-82653002D03*
X190242500Y-83303002D03*
X190242500Y-83953002D03*
X190242500Y-84603002D03*
X190242500Y-85253002D03*
X190242500Y-85903002D03*
X184517500Y-85903002D03*
X184517500Y-85253002D03*
X184517500Y-84603002D03*
X184517500Y-83953002D03*
X184517500Y-83303002D03*
X184517500Y-82653002D03*
X184517500Y-82003002D03*
X184517500Y-81353002D03*
X184517500Y-80703002D03*
X184517500Y-80053002D03*
%TD*%
D22*
%TO.C,D1*%
X123746000Y-76866000D03*
X123746000Y-78061000D03*
%TD*%
D18*
%TO.C,R13*%
X126746000Y-76541000D03*
X126746000Y-78366000D03*
%TD*%
D20*
%TO.C,TR2*%
X115540000Y-96950000D03*
X115540000Y-98775000D03*
%TD*%
D23*
%TO.C,opamp1*%
X189300000Y-90800002D03*
X189300000Y-91450000D03*
X189300000Y-92100002D03*
X189300000Y-92750000D03*
X184956600Y-92750000D03*
X184956600Y-92100002D03*
X184956600Y-91450000D03*
X184956600Y-90800002D03*
%TD*%
D15*
%TO.C,C12*%
X160377000Y-102589000D03*
X158552000Y-102589000D03*
%TD*%
D14*
%TO.C,C1*%
X142964500Y-102589000D03*
X144789500Y-102589000D03*
%TD*%
D15*
%TO.C,C3*%
X144877000Y-96589000D03*
X143052000Y-96589000D03*
%TD*%
%TO.C,C13*%
X160377000Y-99589000D03*
X158552000Y-99589000D03*
%TD*%
D14*
%TO.C,C4*%
X143052000Y-93589000D03*
X144877000Y-93589000D03*
%TD*%
%TO.C,Rcomp1*%
X190793500Y-107613002D03*
X188968500Y-107613002D03*
%TD*%
D15*
%TO.C,C11*%
X160377000Y-96589000D03*
X158552000Y-96589000D03*
%TD*%
%TO.C,C8*%
X152800000Y-99870000D03*
X150975000Y-99870000D03*
%TD*%
D24*
%TO.C,PowerSwitch1*%
X117900000Y-70860000D03*
D25*
X117900000Y-73400000D03*
%TD*%
D26*
%TO.C,U3*%
X186860500Y-104194002D03*
D27*
X193160500Y-101894002D03*
D26*
X186860500Y-101894002D03*
X186860500Y-99594002D03*
%TD*%
D16*
%TO.C,Connector_LCD1*%
X125400000Y-108870000D03*
D17*
X127940000Y-108870000D03*
X130480000Y-108870000D03*
X133020000Y-108870000D03*
X135560000Y-108870000D03*
X138100000Y-108870000D03*
%TD*%
%TO.C,FPP_connection1*%
X196260500Y-97564002D03*
X196260500Y-95024002D03*
X196260500Y-92484002D03*
D16*
X196260500Y-89944002D03*
%TD*%
D28*
%TO.C,MCU1*%
X144750000Y-76950000D03*
X144750000Y-75550000D03*
X144050000Y-77650000D03*
X144050000Y-76250000D03*
X144050000Y-74850000D03*
X143350000Y-76950000D03*
D29*
X143350000Y-76250000D03*
D28*
X143350000Y-75550000D03*
X142650000Y-77650000D03*
X142650000Y-76250000D03*
X142650000Y-74850000D03*
X141950000Y-76950000D03*
X141950000Y-75550000D03*
D30*
X153600000Y-68530000D03*
X153600000Y-69800000D03*
X153600000Y-71070000D03*
X153600000Y-72340000D03*
X153600000Y-73610000D03*
X153600000Y-74880000D03*
X153600000Y-76150000D03*
X153600000Y-77420000D03*
X153600000Y-78690000D03*
X153600000Y-79960000D03*
X153600000Y-81230000D03*
X153600000Y-82500000D03*
X153600000Y-83770000D03*
X153600000Y-85040000D03*
D31*
X151835000Y-86290000D03*
X150565000Y-86290000D03*
X149295000Y-86290000D03*
X148025000Y-86290000D03*
X146755000Y-86290000D03*
X145485000Y-86290000D03*
X144215000Y-86290000D03*
X142945000Y-86290000D03*
X141675000Y-86290000D03*
X140405000Y-86290000D03*
X139135000Y-86290000D03*
X137865000Y-86290000D03*
D30*
X136100000Y-85040000D03*
X136100000Y-83770000D03*
X136100000Y-82500000D03*
X136100000Y-81230000D03*
X136100000Y-79960000D03*
X136100000Y-78690000D03*
X136100000Y-77420000D03*
X136100000Y-76150000D03*
X136100000Y-74880000D03*
X136100000Y-73610000D03*
X136100000Y-72340000D03*
X136100000Y-71070000D03*
X136100000Y-69800000D03*
X136100000Y-68530000D03*
%TD*%
D16*
%TO.C,J3*%
X143890000Y-106330000D03*
D17*
X143890000Y-108870000D03*
X146430000Y-106330000D03*
X146430000Y-108870000D03*
X148970000Y-106330000D03*
X148970000Y-108870000D03*
X151510000Y-106330000D03*
X151510000Y-108870000D03*
X154050000Y-106330000D03*
X154050000Y-108870000D03*
X156590000Y-106330000D03*
X156590000Y-108870000D03*
X159130000Y-106330000D03*
X159130000Y-108870000D03*
%TD*%
D18*
%TO.C,R14*%
X124290000Y-98775000D03*
X124290000Y-96950000D03*
%TD*%
D19*
%TO.C,U2*%
X128652500Y-93000000D03*
X128652500Y-93950000D03*
X128652500Y-94900000D03*
X130927500Y-94900000D03*
X130927500Y-93000000D03*
%TD*%
D32*
%TO.C,D2*%
X126670000Y-72150000D03*
X124130000Y-72150000D03*
%TD*%
D15*
%TO.C,C9*%
X152800000Y-96620000D03*
X150975000Y-96620000D03*
%TD*%
%TO.C,R8*%
X108500000Y-100950000D03*
X106675000Y-100950000D03*
%TD*%
%TO.C,R6*%
X108100000Y-84050000D03*
X106275000Y-84050000D03*
%TD*%
D33*
%TO.C,J2*%
X110932500Y-95600000D03*
X110932500Y-94800000D03*
D34*
X110932500Y-94150000D03*
X110932500Y-93650000D03*
X110932500Y-93150000D03*
X110932500Y-92650000D03*
X110932500Y-92150000D03*
X110932500Y-91650000D03*
X110932500Y-91150000D03*
X110932500Y-90650000D03*
D33*
X110932500Y-90000000D03*
X110932500Y-89200000D03*
%TD*%
M02*
