%TF.GenerationSoftware,KiCad,Pcbnew,8.0.4*%
%TF.CreationDate,2024-10-15T03:37:40-05:00*%
%TF.ProjectId,FPP_10_8,4650505f-3130-45f3-982e-6b696361645f,rev?*%
%TF.SameCoordinates,Original*%
%TF.FileFunction,Legend,Top*%
%TF.FilePolarity,Positive*%
%FSLAX46Y46*%
G04 Gerber Fmt 4.6, Leading zero omitted, Abs format (unit mm)*
G04 Created by KiCad (PCBNEW 8.0.4) date 2024-10-15 03:37:40*
%MOMM*%
%LPD*%
G01*
G04 APERTURE LIST*
%ADD10C,0.150000*%
%ADD11C,0.187500*%
%ADD12C,0.152400*%
%ADD13C,0.120000*%
%ADD14C,0.220000*%
%ADD15C,0.200000*%
G04 APERTURE END LIST*
D10*
X165824580Y-100391792D02*
X165872200Y-100439411D01*
X165872200Y-100439411D02*
X165919819Y-100582268D01*
X165919819Y-100582268D02*
X165919819Y-100677506D01*
X165919819Y-100677506D02*
X165872200Y-100820363D01*
X165872200Y-100820363D02*
X165776961Y-100915601D01*
X165776961Y-100915601D02*
X165681723Y-100963220D01*
X165681723Y-100963220D02*
X165491247Y-101010839D01*
X165491247Y-101010839D02*
X165348390Y-101010839D01*
X165348390Y-101010839D02*
X165157914Y-100963220D01*
X165157914Y-100963220D02*
X165062676Y-100915601D01*
X165062676Y-100915601D02*
X164967438Y-100820363D01*
X164967438Y-100820363D02*
X164919819Y-100677506D01*
X164919819Y-100677506D02*
X164919819Y-100582268D01*
X164919819Y-100582268D02*
X164967438Y-100439411D01*
X164967438Y-100439411D02*
X165015057Y-100391792D01*
X165919819Y-99963220D02*
X164919819Y-99963220D01*
X165396009Y-99963220D02*
X165396009Y-99391792D01*
X165919819Y-99391792D02*
X164919819Y-99391792D01*
X165919819Y-98915601D02*
X164919819Y-98915601D01*
X165919819Y-98439411D02*
X164919819Y-98439411D01*
X164919819Y-98439411D02*
X164919819Y-98058459D01*
X164919819Y-98058459D02*
X164967438Y-97963221D01*
X164967438Y-97963221D02*
X165015057Y-97915602D01*
X165015057Y-97915602D02*
X165110295Y-97867983D01*
X165110295Y-97867983D02*
X165253152Y-97867983D01*
X165253152Y-97867983D02*
X165348390Y-97915602D01*
X165348390Y-97915602D02*
X165396009Y-97963221D01*
X165396009Y-97963221D02*
X165443628Y-98058459D01*
X165443628Y-98058459D02*
X165443628Y-98439411D01*
X166015057Y-97677507D02*
X166015057Y-96915602D01*
X165919819Y-96677506D02*
X164919819Y-96677506D01*
X164919819Y-96677506D02*
X164919819Y-96296554D01*
X164919819Y-96296554D02*
X164967438Y-96201316D01*
X164967438Y-96201316D02*
X165015057Y-96153697D01*
X165015057Y-96153697D02*
X165110295Y-96106078D01*
X165110295Y-96106078D02*
X165253152Y-96106078D01*
X165253152Y-96106078D02*
X165348390Y-96153697D01*
X165348390Y-96153697D02*
X165396009Y-96201316D01*
X165396009Y-96201316D02*
X165443628Y-96296554D01*
X165443628Y-96296554D02*
X165443628Y-96677506D01*
X164919819Y-95677506D02*
X165729342Y-95677506D01*
X165729342Y-95677506D02*
X165824580Y-95629887D01*
X165824580Y-95629887D02*
X165872200Y-95582268D01*
X165872200Y-95582268D02*
X165919819Y-95487030D01*
X165919819Y-95487030D02*
X165919819Y-95296554D01*
X165919819Y-95296554D02*
X165872200Y-95201316D01*
X165872200Y-95201316D02*
X165824580Y-95153697D01*
X165824580Y-95153697D02*
X165729342Y-95106078D01*
X165729342Y-95106078D02*
X164919819Y-95106078D01*
X165872200Y-80760839D02*
X165919819Y-80617982D01*
X165919819Y-80617982D02*
X165919819Y-80379887D01*
X165919819Y-80379887D02*
X165872200Y-80284649D01*
X165872200Y-80284649D02*
X165824580Y-80237030D01*
X165824580Y-80237030D02*
X165729342Y-80189411D01*
X165729342Y-80189411D02*
X165634104Y-80189411D01*
X165634104Y-80189411D02*
X165538866Y-80237030D01*
X165538866Y-80237030D02*
X165491247Y-80284649D01*
X165491247Y-80284649D02*
X165443628Y-80379887D01*
X165443628Y-80379887D02*
X165396009Y-80570363D01*
X165396009Y-80570363D02*
X165348390Y-80665601D01*
X165348390Y-80665601D02*
X165300771Y-80713220D01*
X165300771Y-80713220D02*
X165205533Y-80760839D01*
X165205533Y-80760839D02*
X165110295Y-80760839D01*
X165110295Y-80760839D02*
X165015057Y-80713220D01*
X165015057Y-80713220D02*
X164967438Y-80665601D01*
X164967438Y-80665601D02*
X164919819Y-80570363D01*
X164919819Y-80570363D02*
X164919819Y-80332268D01*
X164919819Y-80332268D02*
X164967438Y-80189411D01*
X164919819Y-79903696D02*
X164919819Y-79332268D01*
X165919819Y-79617982D02*
X164919819Y-79617982D01*
X165919819Y-78427506D02*
X165443628Y-78760839D01*
X165919819Y-78998934D02*
X164919819Y-78998934D01*
X164919819Y-78998934D02*
X164919819Y-78617982D01*
X164919819Y-78617982D02*
X164967438Y-78522744D01*
X164967438Y-78522744D02*
X165015057Y-78475125D01*
X165015057Y-78475125D02*
X165110295Y-78427506D01*
X165110295Y-78427506D02*
X165253152Y-78427506D01*
X165253152Y-78427506D02*
X165348390Y-78475125D01*
X165348390Y-78475125D02*
X165396009Y-78522744D01*
X165396009Y-78522744D02*
X165443628Y-78617982D01*
X165443628Y-78617982D02*
X165443628Y-78998934D01*
X165634104Y-78046553D02*
X165634104Y-77570363D01*
X165919819Y-78141791D02*
X164919819Y-77808458D01*
X164919819Y-77808458D02*
X165919819Y-77475125D01*
X165919819Y-77141791D02*
X164919819Y-77141791D01*
X164919819Y-77141791D02*
X164919819Y-76760839D01*
X164919819Y-76760839D02*
X164967438Y-76665601D01*
X164967438Y-76665601D02*
X165015057Y-76617982D01*
X165015057Y-76617982D02*
X165110295Y-76570363D01*
X165110295Y-76570363D02*
X165253152Y-76570363D01*
X165253152Y-76570363D02*
X165348390Y-76617982D01*
X165348390Y-76617982D02*
X165396009Y-76665601D01*
X165396009Y-76665601D02*
X165443628Y-76760839D01*
X165443628Y-76760839D02*
X165443628Y-77141791D01*
D11*
X194448464Y-97848073D02*
X193698464Y-97848073D01*
X194162750Y-97490930D02*
X194162750Y-96919502D01*
X194448464Y-97205216D02*
X193877035Y-97205216D01*
X193698464Y-95526644D02*
X194448464Y-95276644D01*
X194448464Y-95276644D02*
X193698464Y-95026644D01*
X194162750Y-94776644D02*
X194162750Y-94205216D01*
X194448464Y-94490930D02*
X193877035Y-94490930D01*
X193698464Y-92812358D02*
X194448464Y-92562358D01*
X194448464Y-92562358D02*
X193698464Y-92312358D01*
X194162750Y-92062358D02*
X194162750Y-91490930D01*
X194448464Y-89990929D02*
X193698464Y-89990929D01*
X194162750Y-89633786D02*
X194162750Y-89062358D01*
D10*
X171160667Y-79357200D02*
X171303524Y-79404819D01*
X171303524Y-79404819D02*
X171541619Y-79404819D01*
X171541619Y-79404819D02*
X171636857Y-79357200D01*
X171636857Y-79357200D02*
X171684476Y-79309580D01*
X171684476Y-79309580D02*
X171732095Y-79214342D01*
X171732095Y-79214342D02*
X171732095Y-79119104D01*
X171732095Y-79119104D02*
X171684476Y-79023866D01*
X171684476Y-79023866D02*
X171636857Y-78976247D01*
X171636857Y-78976247D02*
X171541619Y-78928628D01*
X171541619Y-78928628D02*
X171351143Y-78881009D01*
X171351143Y-78881009D02*
X171255905Y-78833390D01*
X171255905Y-78833390D02*
X171208286Y-78785771D01*
X171208286Y-78785771D02*
X171160667Y-78690533D01*
X171160667Y-78690533D02*
X171160667Y-78595295D01*
X171160667Y-78595295D02*
X171208286Y-78500057D01*
X171208286Y-78500057D02*
X171255905Y-78452438D01*
X171255905Y-78452438D02*
X171351143Y-78404819D01*
X171351143Y-78404819D02*
X171589238Y-78404819D01*
X171589238Y-78404819D02*
X171732095Y-78452438D01*
X172065429Y-78404819D02*
X172303524Y-79404819D01*
X172303524Y-79404819D02*
X172494000Y-78690533D01*
X172494000Y-78690533D02*
X172684476Y-79404819D01*
X172684476Y-79404819D02*
X172922572Y-78404819D01*
X173255905Y-78500057D02*
X173303524Y-78452438D01*
X173303524Y-78452438D02*
X173398762Y-78404819D01*
X173398762Y-78404819D02*
X173636857Y-78404819D01*
X173636857Y-78404819D02*
X173732095Y-78452438D01*
X173732095Y-78452438D02*
X173779714Y-78500057D01*
X173779714Y-78500057D02*
X173827333Y-78595295D01*
X173827333Y-78595295D02*
X173827333Y-78690533D01*
X173827333Y-78690533D02*
X173779714Y-78833390D01*
X173779714Y-78833390D02*
X173208286Y-79404819D01*
X173208286Y-79404819D02*
X173827333Y-79404819D01*
X171160667Y-97907200D02*
X171303524Y-97954819D01*
X171303524Y-97954819D02*
X171541619Y-97954819D01*
X171541619Y-97954819D02*
X171636857Y-97907200D01*
X171636857Y-97907200D02*
X171684476Y-97859580D01*
X171684476Y-97859580D02*
X171732095Y-97764342D01*
X171732095Y-97764342D02*
X171732095Y-97669104D01*
X171732095Y-97669104D02*
X171684476Y-97573866D01*
X171684476Y-97573866D02*
X171636857Y-97526247D01*
X171636857Y-97526247D02*
X171541619Y-97478628D01*
X171541619Y-97478628D02*
X171351143Y-97431009D01*
X171351143Y-97431009D02*
X171255905Y-97383390D01*
X171255905Y-97383390D02*
X171208286Y-97335771D01*
X171208286Y-97335771D02*
X171160667Y-97240533D01*
X171160667Y-97240533D02*
X171160667Y-97145295D01*
X171160667Y-97145295D02*
X171208286Y-97050057D01*
X171208286Y-97050057D02*
X171255905Y-97002438D01*
X171255905Y-97002438D02*
X171351143Y-96954819D01*
X171351143Y-96954819D02*
X171589238Y-96954819D01*
X171589238Y-96954819D02*
X171732095Y-97002438D01*
X172065429Y-96954819D02*
X172303524Y-97954819D01*
X172303524Y-97954819D02*
X172494000Y-97240533D01*
X172494000Y-97240533D02*
X172684476Y-97954819D01*
X172684476Y-97954819D02*
X172922572Y-96954819D01*
X173208286Y-96954819D02*
X173827333Y-96954819D01*
X173827333Y-96954819D02*
X173494000Y-97335771D01*
X173494000Y-97335771D02*
X173636857Y-97335771D01*
X173636857Y-97335771D02*
X173732095Y-97383390D01*
X173732095Y-97383390D02*
X173779714Y-97431009D01*
X173779714Y-97431009D02*
X173827333Y-97526247D01*
X173827333Y-97526247D02*
X173827333Y-97764342D01*
X173827333Y-97764342D02*
X173779714Y-97859580D01*
X173779714Y-97859580D02*
X173732095Y-97907200D01*
X173732095Y-97907200D02*
X173636857Y-97954819D01*
X173636857Y-97954819D02*
X173351143Y-97954819D01*
X173351143Y-97954819D02*
X173255905Y-97907200D01*
X173255905Y-97907200D02*
X173208286Y-97859580D01*
X175488095Y-105206819D02*
X176059523Y-105206819D01*
X175773809Y-106206819D02*
X175773809Y-105206819D01*
X176392857Y-106206819D02*
X176392857Y-105206819D01*
X176392857Y-105206819D02*
X176773809Y-105206819D01*
X176773809Y-105206819D02*
X176869047Y-105254438D01*
X176869047Y-105254438D02*
X176916666Y-105302057D01*
X176916666Y-105302057D02*
X176964285Y-105397295D01*
X176964285Y-105397295D02*
X176964285Y-105540152D01*
X176964285Y-105540152D02*
X176916666Y-105635390D01*
X176916666Y-105635390D02*
X176869047Y-105683009D01*
X176869047Y-105683009D02*
X176773809Y-105730628D01*
X176773809Y-105730628D02*
X176392857Y-105730628D01*
X177297619Y-105206819D02*
X177916666Y-105206819D01*
X177916666Y-105206819D02*
X177583333Y-105587771D01*
X177583333Y-105587771D02*
X177726190Y-105587771D01*
X177726190Y-105587771D02*
X177821428Y-105635390D01*
X177821428Y-105635390D02*
X177869047Y-105683009D01*
X177869047Y-105683009D02*
X177916666Y-105778247D01*
X177916666Y-105778247D02*
X177916666Y-106016342D01*
X177916666Y-106016342D02*
X177869047Y-106111580D01*
X177869047Y-106111580D02*
X177821428Y-106159200D01*
X177821428Y-106159200D02*
X177726190Y-106206819D01*
X177726190Y-106206819D02*
X177440476Y-106206819D01*
X177440476Y-106206819D02*
X177345238Y-106159200D01*
X177345238Y-106159200D02*
X177297619Y-106111580D01*
X170488095Y-105206819D02*
X171059523Y-105206819D01*
X170773809Y-106206819D02*
X170773809Y-105206819D01*
X171392857Y-106206819D02*
X171392857Y-105206819D01*
X171392857Y-105206819D02*
X171773809Y-105206819D01*
X171773809Y-105206819D02*
X171869047Y-105254438D01*
X171869047Y-105254438D02*
X171916666Y-105302057D01*
X171916666Y-105302057D02*
X171964285Y-105397295D01*
X171964285Y-105397295D02*
X171964285Y-105540152D01*
X171964285Y-105540152D02*
X171916666Y-105635390D01*
X171916666Y-105635390D02*
X171869047Y-105683009D01*
X171869047Y-105683009D02*
X171773809Y-105730628D01*
X171773809Y-105730628D02*
X171392857Y-105730628D01*
X172345238Y-105302057D02*
X172392857Y-105254438D01*
X172392857Y-105254438D02*
X172488095Y-105206819D01*
X172488095Y-105206819D02*
X172726190Y-105206819D01*
X172726190Y-105206819D02*
X172821428Y-105254438D01*
X172821428Y-105254438D02*
X172869047Y-105302057D01*
X172869047Y-105302057D02*
X172916666Y-105397295D01*
X172916666Y-105397295D02*
X172916666Y-105492533D01*
X172916666Y-105492533D02*
X172869047Y-105635390D01*
X172869047Y-105635390D02*
X172297619Y-106206819D01*
X172297619Y-106206819D02*
X172916666Y-106206819D01*
X165488095Y-105206819D02*
X166059523Y-105206819D01*
X165773809Y-106206819D02*
X165773809Y-105206819D01*
X166392857Y-106206819D02*
X166392857Y-105206819D01*
X166392857Y-105206819D02*
X166773809Y-105206819D01*
X166773809Y-105206819D02*
X166869047Y-105254438D01*
X166869047Y-105254438D02*
X166916666Y-105302057D01*
X166916666Y-105302057D02*
X166964285Y-105397295D01*
X166964285Y-105397295D02*
X166964285Y-105540152D01*
X166964285Y-105540152D02*
X166916666Y-105635390D01*
X166916666Y-105635390D02*
X166869047Y-105683009D01*
X166869047Y-105683009D02*
X166773809Y-105730628D01*
X166773809Y-105730628D02*
X166392857Y-105730628D01*
X167916666Y-106206819D02*
X167345238Y-106206819D01*
X167630952Y-106206819D02*
X167630952Y-105206819D01*
X167630952Y-105206819D02*
X167535714Y-105349676D01*
X167535714Y-105349676D02*
X167440476Y-105444914D01*
X167440476Y-105444914D02*
X167345238Y-105492533D01*
X107988095Y-66554819D02*
X107988095Y-65554819D01*
X107988095Y-66031009D02*
X108559523Y-66031009D01*
X108559523Y-66554819D02*
X108559523Y-65554819D01*
X109464285Y-65888152D02*
X109464285Y-66554819D01*
X109226190Y-65507200D02*
X108988095Y-66221485D01*
X108988095Y-66221485D02*
X109607142Y-66221485D01*
X193988095Y-109554819D02*
X193988095Y-108554819D01*
X193988095Y-109031009D02*
X194559523Y-109031009D01*
X194559523Y-109554819D02*
X194559523Y-108554819D01*
X194940476Y-108554819D02*
X195559523Y-108554819D01*
X195559523Y-108554819D02*
X195226190Y-108935771D01*
X195226190Y-108935771D02*
X195369047Y-108935771D01*
X195369047Y-108935771D02*
X195464285Y-108983390D01*
X195464285Y-108983390D02*
X195511904Y-109031009D01*
X195511904Y-109031009D02*
X195559523Y-109126247D01*
X195559523Y-109126247D02*
X195559523Y-109364342D01*
X195559523Y-109364342D02*
X195511904Y-109459580D01*
X195511904Y-109459580D02*
X195464285Y-109507200D01*
X195464285Y-109507200D02*
X195369047Y-109554819D01*
X195369047Y-109554819D02*
X195083333Y-109554819D01*
X195083333Y-109554819D02*
X194988095Y-109507200D01*
X194988095Y-109507200D02*
X194940476Y-109459580D01*
X193988095Y-66554819D02*
X193988095Y-65554819D01*
X193988095Y-66031009D02*
X194559523Y-66031009D01*
X194559523Y-66554819D02*
X194559523Y-65554819D01*
X194988095Y-65650057D02*
X195035714Y-65602438D01*
X195035714Y-65602438D02*
X195130952Y-65554819D01*
X195130952Y-65554819D02*
X195369047Y-65554819D01*
X195369047Y-65554819D02*
X195464285Y-65602438D01*
X195464285Y-65602438D02*
X195511904Y-65650057D01*
X195511904Y-65650057D02*
X195559523Y-65745295D01*
X195559523Y-65745295D02*
X195559523Y-65840533D01*
X195559523Y-65840533D02*
X195511904Y-65983390D01*
X195511904Y-65983390D02*
X194940476Y-66554819D01*
X194940476Y-66554819D02*
X195559523Y-66554819D01*
X107988095Y-109554819D02*
X107988095Y-108554819D01*
X107988095Y-109031009D02*
X108559523Y-109031009D01*
X108559523Y-109554819D02*
X108559523Y-108554819D01*
X109559523Y-109554819D02*
X108988095Y-109554819D01*
X109273809Y-109554819D02*
X109273809Y-108554819D01*
X109273809Y-108554819D02*
X109178571Y-108697676D01*
X109178571Y-108697676D02*
X109083333Y-108792914D01*
X109083333Y-108792914D02*
X108988095Y-108840533D01*
X195655142Y-83453582D02*
X195607523Y-83501202D01*
X195607523Y-83501202D02*
X195464666Y-83548821D01*
X195464666Y-83548821D02*
X195369428Y-83548821D01*
X195369428Y-83548821D02*
X195226571Y-83501202D01*
X195226571Y-83501202D02*
X195131333Y-83405963D01*
X195131333Y-83405963D02*
X195083714Y-83310725D01*
X195083714Y-83310725D02*
X195036095Y-83120249D01*
X195036095Y-83120249D02*
X195036095Y-82977392D01*
X195036095Y-82977392D02*
X195083714Y-82786916D01*
X195083714Y-82786916D02*
X195131333Y-82691678D01*
X195131333Y-82691678D02*
X195226571Y-82596440D01*
X195226571Y-82596440D02*
X195369428Y-82548821D01*
X195369428Y-82548821D02*
X195464666Y-82548821D01*
X195464666Y-82548821D02*
X195607523Y-82596440D01*
X195607523Y-82596440D02*
X195655142Y-82644059D01*
X196036095Y-82644059D02*
X196083714Y-82596440D01*
X196083714Y-82596440D02*
X196178952Y-82548821D01*
X196178952Y-82548821D02*
X196417047Y-82548821D01*
X196417047Y-82548821D02*
X196512285Y-82596440D01*
X196512285Y-82596440D02*
X196559904Y-82644059D01*
X196559904Y-82644059D02*
X196607523Y-82739297D01*
X196607523Y-82739297D02*
X196607523Y-82834535D01*
X196607523Y-82834535D02*
X196559904Y-82977392D01*
X196559904Y-82977392D02*
X195988476Y-83548821D01*
X195988476Y-83548821D02*
X196607523Y-83548821D01*
X197512285Y-82548821D02*
X197036095Y-82548821D01*
X197036095Y-82548821D02*
X196988476Y-83025011D01*
X196988476Y-83025011D02*
X197036095Y-82977392D01*
X197036095Y-82977392D02*
X197131333Y-82929773D01*
X197131333Y-82929773D02*
X197369428Y-82929773D01*
X197369428Y-82929773D02*
X197464666Y-82977392D01*
X197464666Y-82977392D02*
X197512285Y-83025011D01*
X197512285Y-83025011D02*
X197559904Y-83120249D01*
X197559904Y-83120249D02*
X197559904Y-83358344D01*
X197559904Y-83358344D02*
X197512285Y-83453582D01*
X197512285Y-83453582D02*
X197464666Y-83501202D01*
X197464666Y-83501202D02*
X197369428Y-83548821D01*
X197369428Y-83548821D02*
X197131333Y-83548821D01*
X197131333Y-83548821D02*
X197036095Y-83501202D01*
X197036095Y-83501202D02*
X196988476Y-83453582D01*
X195655142Y-80603582D02*
X195607523Y-80651202D01*
X195607523Y-80651202D02*
X195464666Y-80698821D01*
X195464666Y-80698821D02*
X195369428Y-80698821D01*
X195369428Y-80698821D02*
X195226571Y-80651202D01*
X195226571Y-80651202D02*
X195131333Y-80555963D01*
X195131333Y-80555963D02*
X195083714Y-80460725D01*
X195083714Y-80460725D02*
X195036095Y-80270249D01*
X195036095Y-80270249D02*
X195036095Y-80127392D01*
X195036095Y-80127392D02*
X195083714Y-79936916D01*
X195083714Y-79936916D02*
X195131333Y-79841678D01*
X195131333Y-79841678D02*
X195226571Y-79746440D01*
X195226571Y-79746440D02*
X195369428Y-79698821D01*
X195369428Y-79698821D02*
X195464666Y-79698821D01*
X195464666Y-79698821D02*
X195607523Y-79746440D01*
X195607523Y-79746440D02*
X195655142Y-79794059D01*
X196036095Y-79794059D02*
X196083714Y-79746440D01*
X196083714Y-79746440D02*
X196178952Y-79698821D01*
X196178952Y-79698821D02*
X196417047Y-79698821D01*
X196417047Y-79698821D02*
X196512285Y-79746440D01*
X196512285Y-79746440D02*
X196559904Y-79794059D01*
X196559904Y-79794059D02*
X196607523Y-79889297D01*
X196607523Y-79889297D02*
X196607523Y-79984535D01*
X196607523Y-79984535D02*
X196559904Y-80127392D01*
X196559904Y-80127392D02*
X195988476Y-80698821D01*
X195988476Y-80698821D02*
X196607523Y-80698821D01*
X197464666Y-80032154D02*
X197464666Y-80698821D01*
X197226571Y-79651202D02*
X196988476Y-80365487D01*
X196988476Y-80365487D02*
X197607523Y-80365487D01*
X155604819Y-69583333D02*
X156319104Y-69583333D01*
X156319104Y-69583333D02*
X156461961Y-69630952D01*
X156461961Y-69630952D02*
X156557200Y-69726190D01*
X156557200Y-69726190D02*
X156604819Y-69869047D01*
X156604819Y-69869047D02*
X156604819Y-69964285D01*
X155938152Y-68678571D02*
X156604819Y-68678571D01*
X155557200Y-68916666D02*
X156271485Y-69154761D01*
X156271485Y-69154761D02*
X156271485Y-68535714D01*
X151904833Y-98760580D02*
X151857214Y-98808200D01*
X151857214Y-98808200D02*
X151714357Y-98855819D01*
X151714357Y-98855819D02*
X151619119Y-98855819D01*
X151619119Y-98855819D02*
X151476262Y-98808200D01*
X151476262Y-98808200D02*
X151381024Y-98712961D01*
X151381024Y-98712961D02*
X151333405Y-98617723D01*
X151333405Y-98617723D02*
X151285786Y-98427247D01*
X151285786Y-98427247D02*
X151285786Y-98284390D01*
X151285786Y-98284390D02*
X151333405Y-98093914D01*
X151333405Y-98093914D02*
X151381024Y-97998676D01*
X151381024Y-97998676D02*
X151476262Y-97903438D01*
X151476262Y-97903438D02*
X151619119Y-97855819D01*
X151619119Y-97855819D02*
X151714357Y-97855819D01*
X151714357Y-97855819D02*
X151857214Y-97903438D01*
X151857214Y-97903438D02*
X151904833Y-97951057D01*
X152238167Y-97855819D02*
X152904833Y-97855819D01*
X152904833Y-97855819D02*
X152476262Y-98855819D01*
X143797833Y-98518580D02*
X143750214Y-98566200D01*
X143750214Y-98566200D02*
X143607357Y-98613819D01*
X143607357Y-98613819D02*
X143512119Y-98613819D01*
X143512119Y-98613819D02*
X143369262Y-98566200D01*
X143369262Y-98566200D02*
X143274024Y-98470961D01*
X143274024Y-98470961D02*
X143226405Y-98375723D01*
X143226405Y-98375723D02*
X143178786Y-98185247D01*
X143178786Y-98185247D02*
X143178786Y-98042390D01*
X143178786Y-98042390D02*
X143226405Y-97851914D01*
X143226405Y-97851914D02*
X143274024Y-97756676D01*
X143274024Y-97756676D02*
X143369262Y-97661438D01*
X143369262Y-97661438D02*
X143512119Y-97613819D01*
X143512119Y-97613819D02*
X143607357Y-97613819D01*
X143607357Y-97613819D02*
X143750214Y-97661438D01*
X143750214Y-97661438D02*
X143797833Y-97709057D01*
X144178786Y-97709057D02*
X144226405Y-97661438D01*
X144226405Y-97661438D02*
X144321643Y-97613819D01*
X144321643Y-97613819D02*
X144559738Y-97613819D01*
X144559738Y-97613819D02*
X144654976Y-97661438D01*
X144654976Y-97661438D02*
X144702595Y-97709057D01*
X144702595Y-97709057D02*
X144750214Y-97804295D01*
X144750214Y-97804295D02*
X144750214Y-97899533D01*
X144750214Y-97899533D02*
X144702595Y-98042390D01*
X144702595Y-98042390D02*
X144131167Y-98613819D01*
X144131167Y-98613819D02*
X144750214Y-98613819D01*
X123314819Y-90755357D02*
X122838628Y-91088690D01*
X123314819Y-91326785D02*
X122314819Y-91326785D01*
X122314819Y-91326785D02*
X122314819Y-90945833D01*
X122314819Y-90945833D02*
X122362438Y-90850595D01*
X122362438Y-90850595D02*
X122410057Y-90802976D01*
X122410057Y-90802976D02*
X122505295Y-90755357D01*
X122505295Y-90755357D02*
X122648152Y-90755357D01*
X122648152Y-90755357D02*
X122743390Y-90802976D01*
X122743390Y-90802976D02*
X122791009Y-90850595D01*
X122791009Y-90850595D02*
X122838628Y-90945833D01*
X122838628Y-90945833D02*
X122838628Y-91326785D01*
X123314819Y-89802976D02*
X123314819Y-90374404D01*
X123314819Y-90088690D02*
X122314819Y-90088690D01*
X122314819Y-90088690D02*
X122457676Y-90183928D01*
X122457676Y-90183928D02*
X122552914Y-90279166D01*
X122552914Y-90279166D02*
X122600533Y-90374404D01*
X122314819Y-88898214D02*
X122314819Y-89374404D01*
X122314819Y-89374404D02*
X122791009Y-89422023D01*
X122791009Y-89422023D02*
X122743390Y-89374404D01*
X122743390Y-89374404D02*
X122695771Y-89279166D01*
X122695771Y-89279166D02*
X122695771Y-89041071D01*
X122695771Y-89041071D02*
X122743390Y-88945833D01*
X122743390Y-88945833D02*
X122791009Y-88898214D01*
X122791009Y-88898214D02*
X122886247Y-88850595D01*
X122886247Y-88850595D02*
X123124342Y-88850595D01*
X123124342Y-88850595D02*
X123219580Y-88898214D01*
X123219580Y-88898214D02*
X123267200Y-88945833D01*
X123267200Y-88945833D02*
X123314819Y-89041071D01*
X123314819Y-89041071D02*
X123314819Y-89279166D01*
X123314819Y-89279166D02*
X123267200Y-89374404D01*
X123267200Y-89374404D02*
X123219580Y-89422023D01*
X118890595Y-91004819D02*
X118890595Y-91814342D01*
X118890595Y-91814342D02*
X118938214Y-91909580D01*
X118938214Y-91909580D02*
X118985833Y-91957200D01*
X118985833Y-91957200D02*
X119081071Y-92004819D01*
X119081071Y-92004819D02*
X119271547Y-92004819D01*
X119271547Y-92004819D02*
X119366785Y-91957200D01*
X119366785Y-91957200D02*
X119414404Y-91909580D01*
X119414404Y-91909580D02*
X119462023Y-91814342D01*
X119462023Y-91814342D02*
X119462023Y-91004819D01*
X120462023Y-92004819D02*
X119890595Y-92004819D01*
X120176309Y-92004819D02*
X120176309Y-91004819D01*
X120176309Y-91004819D02*
X120081071Y-91147676D01*
X120081071Y-91147676D02*
X119985833Y-91242914D01*
X119985833Y-91242914D02*
X119890595Y-91290533D01*
X114744819Y-90116666D02*
X114268628Y-90449999D01*
X114744819Y-90688094D02*
X113744819Y-90688094D01*
X113744819Y-90688094D02*
X113744819Y-90307142D01*
X113744819Y-90307142D02*
X113792438Y-90211904D01*
X113792438Y-90211904D02*
X113840057Y-90164285D01*
X113840057Y-90164285D02*
X113935295Y-90116666D01*
X113935295Y-90116666D02*
X114078152Y-90116666D01*
X114078152Y-90116666D02*
X114173390Y-90164285D01*
X114173390Y-90164285D02*
X114221009Y-90211904D01*
X114221009Y-90211904D02*
X114268628Y-90307142D01*
X114268628Y-90307142D02*
X114268628Y-90688094D01*
X113744819Y-89211904D02*
X113744819Y-89688094D01*
X113744819Y-89688094D02*
X114221009Y-89735713D01*
X114221009Y-89735713D02*
X114173390Y-89688094D01*
X114173390Y-89688094D02*
X114125771Y-89592856D01*
X114125771Y-89592856D02*
X114125771Y-89354761D01*
X114125771Y-89354761D02*
X114173390Y-89259523D01*
X114173390Y-89259523D02*
X114221009Y-89211904D01*
X114221009Y-89211904D02*
X114316247Y-89164285D01*
X114316247Y-89164285D02*
X114554342Y-89164285D01*
X114554342Y-89164285D02*
X114649580Y-89211904D01*
X114649580Y-89211904D02*
X114697200Y-89259523D01*
X114697200Y-89259523D02*
X114744819Y-89354761D01*
X114744819Y-89354761D02*
X114744819Y-89592856D01*
X114744819Y-89592856D02*
X114697200Y-89688094D01*
X114697200Y-89688094D02*
X114649580Y-89735713D01*
X151699333Y-92518580D02*
X151651714Y-92566200D01*
X151651714Y-92566200D02*
X151508857Y-92613819D01*
X151508857Y-92613819D02*
X151413619Y-92613819D01*
X151413619Y-92613819D02*
X151270762Y-92566200D01*
X151270762Y-92566200D02*
X151175524Y-92470961D01*
X151175524Y-92470961D02*
X151127905Y-92375723D01*
X151127905Y-92375723D02*
X151080286Y-92185247D01*
X151080286Y-92185247D02*
X151080286Y-92042390D01*
X151080286Y-92042390D02*
X151127905Y-91851914D01*
X151127905Y-91851914D02*
X151175524Y-91756676D01*
X151175524Y-91756676D02*
X151270762Y-91661438D01*
X151270762Y-91661438D02*
X151413619Y-91613819D01*
X151413619Y-91613819D02*
X151508857Y-91613819D01*
X151508857Y-91613819D02*
X151651714Y-91661438D01*
X151651714Y-91661438D02*
X151699333Y-91709057D01*
X152556476Y-91613819D02*
X152366000Y-91613819D01*
X152366000Y-91613819D02*
X152270762Y-91661438D01*
X152270762Y-91661438D02*
X152223143Y-91709057D01*
X152223143Y-91709057D02*
X152127905Y-91851914D01*
X152127905Y-91851914D02*
X152080286Y-92042390D01*
X152080286Y-92042390D02*
X152080286Y-92423342D01*
X152080286Y-92423342D02*
X152127905Y-92518580D01*
X152127905Y-92518580D02*
X152175524Y-92566200D01*
X152175524Y-92566200D02*
X152270762Y-92613819D01*
X152270762Y-92613819D02*
X152461238Y-92613819D01*
X152461238Y-92613819D02*
X152556476Y-92566200D01*
X152556476Y-92566200D02*
X152604095Y-92518580D01*
X152604095Y-92518580D02*
X152651714Y-92423342D01*
X152651714Y-92423342D02*
X152651714Y-92185247D01*
X152651714Y-92185247D02*
X152604095Y-92090009D01*
X152604095Y-92090009D02*
X152556476Y-92042390D01*
X152556476Y-92042390D02*
X152461238Y-91994771D01*
X152461238Y-91994771D02*
X152270762Y-91994771D01*
X152270762Y-91994771D02*
X152175524Y-92042390D01*
X152175524Y-92042390D02*
X152127905Y-92090009D01*
X152127905Y-92090009D02*
X152080286Y-92185247D01*
X158922142Y-92352580D02*
X158874523Y-92400200D01*
X158874523Y-92400200D02*
X158731666Y-92447819D01*
X158731666Y-92447819D02*
X158636428Y-92447819D01*
X158636428Y-92447819D02*
X158493571Y-92400200D01*
X158493571Y-92400200D02*
X158398333Y-92304961D01*
X158398333Y-92304961D02*
X158350714Y-92209723D01*
X158350714Y-92209723D02*
X158303095Y-92019247D01*
X158303095Y-92019247D02*
X158303095Y-91876390D01*
X158303095Y-91876390D02*
X158350714Y-91685914D01*
X158350714Y-91685914D02*
X158398333Y-91590676D01*
X158398333Y-91590676D02*
X158493571Y-91495438D01*
X158493571Y-91495438D02*
X158636428Y-91447819D01*
X158636428Y-91447819D02*
X158731666Y-91447819D01*
X158731666Y-91447819D02*
X158874523Y-91495438D01*
X158874523Y-91495438D02*
X158922142Y-91543057D01*
X159874523Y-92447819D02*
X159303095Y-92447819D01*
X159588809Y-92447819D02*
X159588809Y-91447819D01*
X159588809Y-91447819D02*
X159493571Y-91590676D01*
X159493571Y-91590676D02*
X159398333Y-91685914D01*
X159398333Y-91685914D02*
X159303095Y-91733533D01*
X160493571Y-91447819D02*
X160588809Y-91447819D01*
X160588809Y-91447819D02*
X160684047Y-91495438D01*
X160684047Y-91495438D02*
X160731666Y-91543057D01*
X160731666Y-91543057D02*
X160779285Y-91638295D01*
X160779285Y-91638295D02*
X160826904Y-91828771D01*
X160826904Y-91828771D02*
X160826904Y-92066866D01*
X160826904Y-92066866D02*
X160779285Y-92257342D01*
X160779285Y-92257342D02*
X160731666Y-92352580D01*
X160731666Y-92352580D02*
X160684047Y-92400200D01*
X160684047Y-92400200D02*
X160588809Y-92447819D01*
X160588809Y-92447819D02*
X160493571Y-92447819D01*
X160493571Y-92447819D02*
X160398333Y-92400200D01*
X160398333Y-92400200D02*
X160350714Y-92352580D01*
X160350714Y-92352580D02*
X160303095Y-92257342D01*
X160303095Y-92257342D02*
X160255476Y-92066866D01*
X160255476Y-92066866D02*
X160255476Y-91828771D01*
X160255476Y-91828771D02*
X160303095Y-91638295D01*
X160303095Y-91638295D02*
X160350714Y-91543057D01*
X160350714Y-91543057D02*
X160398333Y-91495438D01*
X160398333Y-91495438D02*
X160493571Y-91447819D01*
X185665714Y-78947106D02*
X186141904Y-78947106D01*
X185570476Y-79232821D02*
X185903809Y-78232821D01*
X185903809Y-78232821D02*
X186237142Y-79232821D01*
X186570476Y-79232821D02*
X186570476Y-78232821D01*
X186570476Y-78232821D02*
X186808571Y-78232821D01*
X186808571Y-78232821D02*
X186951428Y-78280440D01*
X186951428Y-78280440D02*
X187046666Y-78375678D01*
X187046666Y-78375678D02*
X187094285Y-78470916D01*
X187094285Y-78470916D02*
X187141904Y-78661392D01*
X187141904Y-78661392D02*
X187141904Y-78804249D01*
X187141904Y-78804249D02*
X187094285Y-78994725D01*
X187094285Y-78994725D02*
X187046666Y-79089963D01*
X187046666Y-79089963D02*
X186951428Y-79185202D01*
X186951428Y-79185202D02*
X186808571Y-79232821D01*
X186808571Y-79232821D02*
X186570476Y-79232821D01*
X188141904Y-79137582D02*
X188094285Y-79185202D01*
X188094285Y-79185202D02*
X187951428Y-79232821D01*
X187951428Y-79232821D02*
X187856190Y-79232821D01*
X187856190Y-79232821D02*
X187713333Y-79185202D01*
X187713333Y-79185202D02*
X187618095Y-79089963D01*
X187618095Y-79089963D02*
X187570476Y-78994725D01*
X187570476Y-78994725D02*
X187522857Y-78804249D01*
X187522857Y-78804249D02*
X187522857Y-78661392D01*
X187522857Y-78661392D02*
X187570476Y-78470916D01*
X187570476Y-78470916D02*
X187618095Y-78375678D01*
X187618095Y-78375678D02*
X187713333Y-78280440D01*
X187713333Y-78280440D02*
X187856190Y-78232821D01*
X187856190Y-78232821D02*
X187951428Y-78232821D01*
X187951428Y-78232821D02*
X188094285Y-78280440D01*
X188094285Y-78280440D02*
X188141904Y-78328059D01*
X189094285Y-79232821D02*
X188522857Y-79232821D01*
X188808571Y-79232821D02*
X188808571Y-78232821D01*
X188808571Y-78232821D02*
X188713333Y-78375678D01*
X188713333Y-78375678D02*
X188618095Y-78470916D01*
X188618095Y-78470916D02*
X188522857Y-78518535D01*
X123030819Y-78201594D02*
X122030819Y-78201594D01*
X122030819Y-78201594D02*
X122030819Y-77963499D01*
X122030819Y-77963499D02*
X122078438Y-77820642D01*
X122078438Y-77820642D02*
X122173676Y-77725404D01*
X122173676Y-77725404D02*
X122268914Y-77677785D01*
X122268914Y-77677785D02*
X122459390Y-77630166D01*
X122459390Y-77630166D02*
X122602247Y-77630166D01*
X122602247Y-77630166D02*
X122792723Y-77677785D01*
X122792723Y-77677785D02*
X122887961Y-77725404D01*
X122887961Y-77725404D02*
X122983200Y-77820642D01*
X122983200Y-77820642D02*
X123030819Y-77963499D01*
X123030819Y-77963499D02*
X123030819Y-78201594D01*
X123030819Y-76677785D02*
X123030819Y-77249213D01*
X123030819Y-76963499D02*
X122030819Y-76963499D01*
X122030819Y-76963499D02*
X122173676Y-77058737D01*
X122173676Y-77058737D02*
X122268914Y-77153975D01*
X122268914Y-77153975D02*
X122316533Y-77249213D01*
X125770819Y-78096357D02*
X125294628Y-78429690D01*
X125770819Y-78667785D02*
X124770819Y-78667785D01*
X124770819Y-78667785D02*
X124770819Y-78286833D01*
X124770819Y-78286833D02*
X124818438Y-78191595D01*
X124818438Y-78191595D02*
X124866057Y-78143976D01*
X124866057Y-78143976D02*
X124961295Y-78096357D01*
X124961295Y-78096357D02*
X125104152Y-78096357D01*
X125104152Y-78096357D02*
X125199390Y-78143976D01*
X125199390Y-78143976D02*
X125247009Y-78191595D01*
X125247009Y-78191595D02*
X125294628Y-78286833D01*
X125294628Y-78286833D02*
X125294628Y-78667785D01*
X125770819Y-77143976D02*
X125770819Y-77715404D01*
X125770819Y-77429690D02*
X124770819Y-77429690D01*
X124770819Y-77429690D02*
X124913676Y-77524928D01*
X124913676Y-77524928D02*
X125008914Y-77620166D01*
X125008914Y-77620166D02*
X125056533Y-77715404D01*
X124770819Y-76810642D02*
X124770819Y-76191595D01*
X124770819Y-76191595D02*
X125151771Y-76524928D01*
X125151771Y-76524928D02*
X125151771Y-76382071D01*
X125151771Y-76382071D02*
X125199390Y-76286833D01*
X125199390Y-76286833D02*
X125247009Y-76239214D01*
X125247009Y-76239214D02*
X125342247Y-76191595D01*
X125342247Y-76191595D02*
X125580342Y-76191595D01*
X125580342Y-76191595D02*
X125675580Y-76239214D01*
X125675580Y-76239214D02*
X125723200Y-76286833D01*
X125723200Y-76286833D02*
X125770819Y-76382071D01*
X125770819Y-76382071D02*
X125770819Y-76667785D01*
X125770819Y-76667785D02*
X125723200Y-76763023D01*
X125723200Y-76763023D02*
X125675580Y-76810642D01*
X113744819Y-99124404D02*
X113744819Y-98552976D01*
X114744819Y-98838690D02*
X113744819Y-98838690D01*
X114744819Y-97648214D02*
X114268628Y-97981547D01*
X114744819Y-98219642D02*
X113744819Y-98219642D01*
X113744819Y-98219642D02*
X113744819Y-97838690D01*
X113744819Y-97838690D02*
X113792438Y-97743452D01*
X113792438Y-97743452D02*
X113840057Y-97695833D01*
X113840057Y-97695833D02*
X113935295Y-97648214D01*
X113935295Y-97648214D02*
X114078152Y-97648214D01*
X114078152Y-97648214D02*
X114173390Y-97695833D01*
X114173390Y-97695833D02*
X114221009Y-97743452D01*
X114221009Y-97743452D02*
X114268628Y-97838690D01*
X114268628Y-97838690D02*
X114268628Y-98219642D01*
X113840057Y-97267261D02*
X113792438Y-97219642D01*
X113792438Y-97219642D02*
X113744819Y-97124404D01*
X113744819Y-97124404D02*
X113744819Y-96886309D01*
X113744819Y-96886309D02*
X113792438Y-96791071D01*
X113792438Y-96791071D02*
X113840057Y-96743452D01*
X113840057Y-96743452D02*
X113935295Y-96695833D01*
X113935295Y-96695833D02*
X114030533Y-96695833D01*
X114030533Y-96695833D02*
X114173390Y-96743452D01*
X114173390Y-96743452D02*
X114744819Y-97314880D01*
X114744819Y-97314880D02*
X114744819Y-96695833D01*
X184556871Y-92229820D02*
X184461633Y-92182201D01*
X184461633Y-92182201D02*
X184414014Y-92134581D01*
X184414014Y-92134581D02*
X184366395Y-92039343D01*
X184366395Y-92039343D02*
X184366395Y-91753629D01*
X184366395Y-91753629D02*
X184414014Y-91658391D01*
X184414014Y-91658391D02*
X184461633Y-91610772D01*
X184461633Y-91610772D02*
X184556871Y-91563153D01*
X184556871Y-91563153D02*
X184699728Y-91563153D01*
X184699728Y-91563153D02*
X184794966Y-91610772D01*
X184794966Y-91610772D02*
X184842585Y-91658391D01*
X184842585Y-91658391D02*
X184890204Y-91753629D01*
X184890204Y-91753629D02*
X184890204Y-92039343D01*
X184890204Y-92039343D02*
X184842585Y-92134581D01*
X184842585Y-92134581D02*
X184794966Y-92182201D01*
X184794966Y-92182201D02*
X184699728Y-92229820D01*
X184699728Y-92229820D02*
X184556871Y-92229820D01*
X185318776Y-91563153D02*
X185318776Y-92563153D01*
X185318776Y-91610772D02*
X185414014Y-91563153D01*
X185414014Y-91563153D02*
X185604490Y-91563153D01*
X185604490Y-91563153D02*
X185699728Y-91610772D01*
X185699728Y-91610772D02*
X185747347Y-91658391D01*
X185747347Y-91658391D02*
X185794966Y-91753629D01*
X185794966Y-91753629D02*
X185794966Y-92039343D01*
X185794966Y-92039343D02*
X185747347Y-92134581D01*
X185747347Y-92134581D02*
X185699728Y-92182201D01*
X185699728Y-92182201D02*
X185604490Y-92229820D01*
X185604490Y-92229820D02*
X185414014Y-92229820D01*
X185414014Y-92229820D02*
X185318776Y-92182201D01*
X186652109Y-92229820D02*
X186652109Y-91706010D01*
X186652109Y-91706010D02*
X186604490Y-91610772D01*
X186604490Y-91610772D02*
X186509252Y-91563153D01*
X186509252Y-91563153D02*
X186318776Y-91563153D01*
X186318776Y-91563153D02*
X186223538Y-91610772D01*
X186652109Y-92182201D02*
X186556871Y-92229820D01*
X186556871Y-92229820D02*
X186318776Y-92229820D01*
X186318776Y-92229820D02*
X186223538Y-92182201D01*
X186223538Y-92182201D02*
X186175919Y-92086962D01*
X186175919Y-92086962D02*
X186175919Y-91991724D01*
X186175919Y-91991724D02*
X186223538Y-91896486D01*
X186223538Y-91896486D02*
X186318776Y-91848867D01*
X186318776Y-91848867D02*
X186556871Y-91848867D01*
X186556871Y-91848867D02*
X186652109Y-91801248D01*
X187128300Y-92229820D02*
X187128300Y-91563153D01*
X187128300Y-91658391D02*
X187175919Y-91610772D01*
X187175919Y-91610772D02*
X187271157Y-91563153D01*
X187271157Y-91563153D02*
X187414014Y-91563153D01*
X187414014Y-91563153D02*
X187509252Y-91610772D01*
X187509252Y-91610772D02*
X187556871Y-91706010D01*
X187556871Y-91706010D02*
X187556871Y-92229820D01*
X187556871Y-91706010D02*
X187604490Y-91610772D01*
X187604490Y-91610772D02*
X187699728Y-91563153D01*
X187699728Y-91563153D02*
X187842585Y-91563153D01*
X187842585Y-91563153D02*
X187937824Y-91610772D01*
X187937824Y-91610772D02*
X187985443Y-91706010D01*
X187985443Y-91706010D02*
X187985443Y-92229820D01*
X188461633Y-91563153D02*
X188461633Y-92563153D01*
X188461633Y-91610772D02*
X188556871Y-91563153D01*
X188556871Y-91563153D02*
X188747347Y-91563153D01*
X188747347Y-91563153D02*
X188842585Y-91610772D01*
X188842585Y-91610772D02*
X188890204Y-91658391D01*
X188890204Y-91658391D02*
X188937823Y-91753629D01*
X188937823Y-91753629D02*
X188937823Y-92039343D01*
X188937823Y-92039343D02*
X188890204Y-92134581D01*
X188890204Y-92134581D02*
X188842585Y-92182201D01*
X188842585Y-92182201D02*
X188747347Y-92229820D01*
X188747347Y-92229820D02*
X188556871Y-92229820D01*
X188556871Y-92229820D02*
X188461633Y-92182201D01*
X189890204Y-92229820D02*
X189318776Y-92229820D01*
X189604490Y-92229820D02*
X189604490Y-91229820D01*
X189604490Y-91229820D02*
X189509252Y-91372677D01*
X189509252Y-91372677D02*
X189414014Y-91467915D01*
X189414014Y-91467915D02*
X189318776Y-91515534D01*
X184702600Y-88680020D02*
X184702600Y-88918115D01*
X184464505Y-88822877D02*
X184702600Y-88918115D01*
X184702600Y-88918115D02*
X184940695Y-88822877D01*
X184559743Y-89108591D02*
X184702600Y-88918115D01*
X184702600Y-88918115D02*
X184845457Y-89108591D01*
X184702600Y-88680020D02*
X184702600Y-88918115D01*
X184464505Y-88822877D02*
X184702600Y-88918115D01*
X184702600Y-88918115D02*
X184940695Y-88822877D01*
X184559743Y-89108591D02*
X184702600Y-88918115D01*
X184702600Y-88918115D02*
X184845457Y-89108591D01*
X158734142Y-101698580D02*
X158686523Y-101746200D01*
X158686523Y-101746200D02*
X158543666Y-101793819D01*
X158543666Y-101793819D02*
X158448428Y-101793819D01*
X158448428Y-101793819D02*
X158305571Y-101746200D01*
X158305571Y-101746200D02*
X158210333Y-101650961D01*
X158210333Y-101650961D02*
X158162714Y-101555723D01*
X158162714Y-101555723D02*
X158115095Y-101365247D01*
X158115095Y-101365247D02*
X158115095Y-101222390D01*
X158115095Y-101222390D02*
X158162714Y-101031914D01*
X158162714Y-101031914D02*
X158210333Y-100936676D01*
X158210333Y-100936676D02*
X158305571Y-100841438D01*
X158305571Y-100841438D02*
X158448428Y-100793819D01*
X158448428Y-100793819D02*
X158543666Y-100793819D01*
X158543666Y-100793819D02*
X158686523Y-100841438D01*
X158686523Y-100841438D02*
X158734142Y-100889057D01*
X159686523Y-101793819D02*
X159115095Y-101793819D01*
X159400809Y-101793819D02*
X159400809Y-100793819D01*
X159400809Y-100793819D02*
X159305571Y-100936676D01*
X159305571Y-100936676D02*
X159210333Y-101031914D01*
X159210333Y-101031914D02*
X159115095Y-101079533D01*
X160067476Y-100889057D02*
X160115095Y-100841438D01*
X160115095Y-100841438D02*
X160210333Y-100793819D01*
X160210333Y-100793819D02*
X160448428Y-100793819D01*
X160448428Y-100793819D02*
X160543666Y-100841438D01*
X160543666Y-100841438D02*
X160591285Y-100889057D01*
X160591285Y-100889057D02*
X160638904Y-100984295D01*
X160638904Y-100984295D02*
X160638904Y-101079533D01*
X160638904Y-101079533D02*
X160591285Y-101222390D01*
X160591285Y-101222390D02*
X160019857Y-101793819D01*
X160019857Y-101793819D02*
X160638904Y-101793819D01*
X143710333Y-101448580D02*
X143662714Y-101496200D01*
X143662714Y-101496200D02*
X143519857Y-101543819D01*
X143519857Y-101543819D02*
X143424619Y-101543819D01*
X143424619Y-101543819D02*
X143281762Y-101496200D01*
X143281762Y-101496200D02*
X143186524Y-101400961D01*
X143186524Y-101400961D02*
X143138905Y-101305723D01*
X143138905Y-101305723D02*
X143091286Y-101115247D01*
X143091286Y-101115247D02*
X143091286Y-100972390D01*
X143091286Y-100972390D02*
X143138905Y-100781914D01*
X143138905Y-100781914D02*
X143186524Y-100686676D01*
X143186524Y-100686676D02*
X143281762Y-100591438D01*
X143281762Y-100591438D02*
X143424619Y-100543819D01*
X143424619Y-100543819D02*
X143519857Y-100543819D01*
X143519857Y-100543819D02*
X143662714Y-100591438D01*
X143662714Y-100591438D02*
X143710333Y-100639057D01*
X144662714Y-101543819D02*
X144091286Y-101543819D01*
X144377000Y-101543819D02*
X144377000Y-100543819D01*
X144377000Y-100543819D02*
X144281762Y-100686676D01*
X144281762Y-100686676D02*
X144186524Y-100781914D01*
X144186524Y-100781914D02*
X144091286Y-100829533D01*
X143797833Y-95448580D02*
X143750214Y-95496200D01*
X143750214Y-95496200D02*
X143607357Y-95543819D01*
X143607357Y-95543819D02*
X143512119Y-95543819D01*
X143512119Y-95543819D02*
X143369262Y-95496200D01*
X143369262Y-95496200D02*
X143274024Y-95400961D01*
X143274024Y-95400961D02*
X143226405Y-95305723D01*
X143226405Y-95305723D02*
X143178786Y-95115247D01*
X143178786Y-95115247D02*
X143178786Y-94972390D01*
X143178786Y-94972390D02*
X143226405Y-94781914D01*
X143226405Y-94781914D02*
X143274024Y-94686676D01*
X143274024Y-94686676D02*
X143369262Y-94591438D01*
X143369262Y-94591438D02*
X143512119Y-94543819D01*
X143512119Y-94543819D02*
X143607357Y-94543819D01*
X143607357Y-94543819D02*
X143750214Y-94591438D01*
X143750214Y-94591438D02*
X143797833Y-94639057D01*
X144131167Y-94543819D02*
X144750214Y-94543819D01*
X144750214Y-94543819D02*
X144416881Y-94924771D01*
X144416881Y-94924771D02*
X144559738Y-94924771D01*
X144559738Y-94924771D02*
X144654976Y-94972390D01*
X144654976Y-94972390D02*
X144702595Y-95020009D01*
X144702595Y-95020009D02*
X144750214Y-95115247D01*
X144750214Y-95115247D02*
X144750214Y-95353342D01*
X144750214Y-95353342D02*
X144702595Y-95448580D01*
X144702595Y-95448580D02*
X144654976Y-95496200D01*
X144654976Y-95496200D02*
X144559738Y-95543819D01*
X144559738Y-95543819D02*
X144274024Y-95543819D01*
X144274024Y-95543819D02*
X144178786Y-95496200D01*
X144178786Y-95496200D02*
X144131167Y-95448580D01*
X158821642Y-98698580D02*
X158774023Y-98746200D01*
X158774023Y-98746200D02*
X158631166Y-98793819D01*
X158631166Y-98793819D02*
X158535928Y-98793819D01*
X158535928Y-98793819D02*
X158393071Y-98746200D01*
X158393071Y-98746200D02*
X158297833Y-98650961D01*
X158297833Y-98650961D02*
X158250214Y-98555723D01*
X158250214Y-98555723D02*
X158202595Y-98365247D01*
X158202595Y-98365247D02*
X158202595Y-98222390D01*
X158202595Y-98222390D02*
X158250214Y-98031914D01*
X158250214Y-98031914D02*
X158297833Y-97936676D01*
X158297833Y-97936676D02*
X158393071Y-97841438D01*
X158393071Y-97841438D02*
X158535928Y-97793819D01*
X158535928Y-97793819D02*
X158631166Y-97793819D01*
X158631166Y-97793819D02*
X158774023Y-97841438D01*
X158774023Y-97841438D02*
X158821642Y-97889057D01*
X159774023Y-98793819D02*
X159202595Y-98793819D01*
X159488309Y-98793819D02*
X159488309Y-97793819D01*
X159488309Y-97793819D02*
X159393071Y-97936676D01*
X159393071Y-97936676D02*
X159297833Y-98031914D01*
X159297833Y-98031914D02*
X159202595Y-98079533D01*
X160107357Y-97793819D02*
X160726404Y-97793819D01*
X160726404Y-97793819D02*
X160393071Y-98174771D01*
X160393071Y-98174771D02*
X160535928Y-98174771D01*
X160535928Y-98174771D02*
X160631166Y-98222390D01*
X160631166Y-98222390D02*
X160678785Y-98270009D01*
X160678785Y-98270009D02*
X160726404Y-98365247D01*
X160726404Y-98365247D02*
X160726404Y-98603342D01*
X160726404Y-98603342D02*
X160678785Y-98698580D01*
X160678785Y-98698580D02*
X160631166Y-98746200D01*
X160631166Y-98746200D02*
X160535928Y-98793819D01*
X160535928Y-98793819D02*
X160250214Y-98793819D01*
X160250214Y-98793819D02*
X160154976Y-98746200D01*
X160154976Y-98746200D02*
X160107357Y-98698580D01*
X143797833Y-92518580D02*
X143750214Y-92566200D01*
X143750214Y-92566200D02*
X143607357Y-92613819D01*
X143607357Y-92613819D02*
X143512119Y-92613819D01*
X143512119Y-92613819D02*
X143369262Y-92566200D01*
X143369262Y-92566200D02*
X143274024Y-92470961D01*
X143274024Y-92470961D02*
X143226405Y-92375723D01*
X143226405Y-92375723D02*
X143178786Y-92185247D01*
X143178786Y-92185247D02*
X143178786Y-92042390D01*
X143178786Y-92042390D02*
X143226405Y-91851914D01*
X143226405Y-91851914D02*
X143274024Y-91756676D01*
X143274024Y-91756676D02*
X143369262Y-91661438D01*
X143369262Y-91661438D02*
X143512119Y-91613819D01*
X143512119Y-91613819D02*
X143607357Y-91613819D01*
X143607357Y-91613819D02*
X143750214Y-91661438D01*
X143750214Y-91661438D02*
X143797833Y-91709057D01*
X144654976Y-91947152D02*
X144654976Y-92613819D01*
X144416881Y-91566200D02*
X144178786Y-92280485D01*
X144178786Y-92280485D02*
X144797833Y-92280485D01*
X187714333Y-106637821D02*
X187381000Y-106161630D01*
X187142905Y-106637821D02*
X187142905Y-105637821D01*
X187142905Y-105637821D02*
X187523857Y-105637821D01*
X187523857Y-105637821D02*
X187619095Y-105685440D01*
X187619095Y-105685440D02*
X187666714Y-105733059D01*
X187666714Y-105733059D02*
X187714333Y-105828297D01*
X187714333Y-105828297D02*
X187714333Y-105971154D01*
X187714333Y-105971154D02*
X187666714Y-106066392D01*
X187666714Y-106066392D02*
X187619095Y-106114011D01*
X187619095Y-106114011D02*
X187523857Y-106161630D01*
X187523857Y-106161630D02*
X187142905Y-106161630D01*
X188571476Y-106590202D02*
X188476238Y-106637821D01*
X188476238Y-106637821D02*
X188285762Y-106637821D01*
X188285762Y-106637821D02*
X188190524Y-106590202D01*
X188190524Y-106590202D02*
X188142905Y-106542582D01*
X188142905Y-106542582D02*
X188095286Y-106447344D01*
X188095286Y-106447344D02*
X188095286Y-106161630D01*
X188095286Y-106161630D02*
X188142905Y-106066392D01*
X188142905Y-106066392D02*
X188190524Y-106018773D01*
X188190524Y-106018773D02*
X188285762Y-105971154D01*
X188285762Y-105971154D02*
X188476238Y-105971154D01*
X188476238Y-105971154D02*
X188571476Y-106018773D01*
X189142905Y-106637821D02*
X189047667Y-106590202D01*
X189047667Y-106590202D02*
X189000048Y-106542582D01*
X189000048Y-106542582D02*
X188952429Y-106447344D01*
X188952429Y-106447344D02*
X188952429Y-106161630D01*
X188952429Y-106161630D02*
X189000048Y-106066392D01*
X189000048Y-106066392D02*
X189047667Y-106018773D01*
X189047667Y-106018773D02*
X189142905Y-105971154D01*
X189142905Y-105971154D02*
X189285762Y-105971154D01*
X189285762Y-105971154D02*
X189381000Y-106018773D01*
X189381000Y-106018773D02*
X189428619Y-106066392D01*
X189428619Y-106066392D02*
X189476238Y-106161630D01*
X189476238Y-106161630D02*
X189476238Y-106447344D01*
X189476238Y-106447344D02*
X189428619Y-106542582D01*
X189428619Y-106542582D02*
X189381000Y-106590202D01*
X189381000Y-106590202D02*
X189285762Y-106637821D01*
X189285762Y-106637821D02*
X189142905Y-106637821D01*
X189904810Y-106637821D02*
X189904810Y-105971154D01*
X189904810Y-106066392D02*
X189952429Y-106018773D01*
X189952429Y-106018773D02*
X190047667Y-105971154D01*
X190047667Y-105971154D02*
X190190524Y-105971154D01*
X190190524Y-105971154D02*
X190285762Y-106018773D01*
X190285762Y-106018773D02*
X190333381Y-106114011D01*
X190333381Y-106114011D02*
X190333381Y-106637821D01*
X190333381Y-106114011D02*
X190381000Y-106018773D01*
X190381000Y-106018773D02*
X190476238Y-105971154D01*
X190476238Y-105971154D02*
X190619095Y-105971154D01*
X190619095Y-105971154D02*
X190714334Y-106018773D01*
X190714334Y-106018773D02*
X190761953Y-106114011D01*
X190761953Y-106114011D02*
X190761953Y-106637821D01*
X191238143Y-105971154D02*
X191238143Y-106971154D01*
X191238143Y-106018773D02*
X191333381Y-105971154D01*
X191333381Y-105971154D02*
X191523857Y-105971154D01*
X191523857Y-105971154D02*
X191619095Y-106018773D01*
X191619095Y-106018773D02*
X191666714Y-106066392D01*
X191666714Y-106066392D02*
X191714333Y-106161630D01*
X191714333Y-106161630D02*
X191714333Y-106447344D01*
X191714333Y-106447344D02*
X191666714Y-106542582D01*
X191666714Y-106542582D02*
X191619095Y-106590202D01*
X191619095Y-106590202D02*
X191523857Y-106637821D01*
X191523857Y-106637821D02*
X191333381Y-106637821D01*
X191333381Y-106637821D02*
X191238143Y-106590202D01*
X192666714Y-106637821D02*
X192095286Y-106637821D01*
X192381000Y-106637821D02*
X192381000Y-105637821D01*
X192381000Y-105637821D02*
X192285762Y-105780678D01*
X192285762Y-105780678D02*
X192190524Y-105875916D01*
X192190524Y-105875916D02*
X192095286Y-105923535D01*
X158821642Y-95448580D02*
X158774023Y-95496200D01*
X158774023Y-95496200D02*
X158631166Y-95543819D01*
X158631166Y-95543819D02*
X158535928Y-95543819D01*
X158535928Y-95543819D02*
X158393071Y-95496200D01*
X158393071Y-95496200D02*
X158297833Y-95400961D01*
X158297833Y-95400961D02*
X158250214Y-95305723D01*
X158250214Y-95305723D02*
X158202595Y-95115247D01*
X158202595Y-95115247D02*
X158202595Y-94972390D01*
X158202595Y-94972390D02*
X158250214Y-94781914D01*
X158250214Y-94781914D02*
X158297833Y-94686676D01*
X158297833Y-94686676D02*
X158393071Y-94591438D01*
X158393071Y-94591438D02*
X158535928Y-94543819D01*
X158535928Y-94543819D02*
X158631166Y-94543819D01*
X158631166Y-94543819D02*
X158774023Y-94591438D01*
X158774023Y-94591438D02*
X158821642Y-94639057D01*
X159774023Y-95543819D02*
X159202595Y-95543819D01*
X159488309Y-95543819D02*
X159488309Y-94543819D01*
X159488309Y-94543819D02*
X159393071Y-94686676D01*
X159393071Y-94686676D02*
X159297833Y-94781914D01*
X159297833Y-94781914D02*
X159202595Y-94829533D01*
X160726404Y-95543819D02*
X160154976Y-95543819D01*
X160440690Y-95543819D02*
X160440690Y-94543819D01*
X160440690Y-94543819D02*
X160345452Y-94686676D01*
X160345452Y-94686676D02*
X160250214Y-94781914D01*
X160250214Y-94781914D02*
X160154976Y-94829533D01*
X151720833Y-98729580D02*
X151673214Y-98777200D01*
X151673214Y-98777200D02*
X151530357Y-98824819D01*
X151530357Y-98824819D02*
X151435119Y-98824819D01*
X151435119Y-98824819D02*
X151292262Y-98777200D01*
X151292262Y-98777200D02*
X151197024Y-98681961D01*
X151197024Y-98681961D02*
X151149405Y-98586723D01*
X151149405Y-98586723D02*
X151101786Y-98396247D01*
X151101786Y-98396247D02*
X151101786Y-98253390D01*
X151101786Y-98253390D02*
X151149405Y-98062914D01*
X151149405Y-98062914D02*
X151197024Y-97967676D01*
X151197024Y-97967676D02*
X151292262Y-97872438D01*
X151292262Y-97872438D02*
X151435119Y-97824819D01*
X151435119Y-97824819D02*
X151530357Y-97824819D01*
X151530357Y-97824819D02*
X151673214Y-97872438D01*
X151673214Y-97872438D02*
X151720833Y-97920057D01*
X152292262Y-98253390D02*
X152197024Y-98205771D01*
X152197024Y-98205771D02*
X152149405Y-98158152D01*
X152149405Y-98158152D02*
X152101786Y-98062914D01*
X152101786Y-98062914D02*
X152101786Y-98015295D01*
X152101786Y-98015295D02*
X152149405Y-97920057D01*
X152149405Y-97920057D02*
X152197024Y-97872438D01*
X152197024Y-97872438D02*
X152292262Y-97824819D01*
X152292262Y-97824819D02*
X152482738Y-97824819D01*
X152482738Y-97824819D02*
X152577976Y-97872438D01*
X152577976Y-97872438D02*
X152625595Y-97920057D01*
X152625595Y-97920057D02*
X152673214Y-98015295D01*
X152673214Y-98015295D02*
X152673214Y-98062914D01*
X152673214Y-98062914D02*
X152625595Y-98158152D01*
X152625595Y-98158152D02*
X152577976Y-98205771D01*
X152577976Y-98205771D02*
X152482738Y-98253390D01*
X152482738Y-98253390D02*
X152292262Y-98253390D01*
X152292262Y-98253390D02*
X152197024Y-98301009D01*
X152197024Y-98301009D02*
X152149405Y-98348628D01*
X152149405Y-98348628D02*
X152101786Y-98443866D01*
X152101786Y-98443866D02*
X152101786Y-98634342D01*
X152101786Y-98634342D02*
X152149405Y-98729580D01*
X152149405Y-98729580D02*
X152197024Y-98777200D01*
X152197024Y-98777200D02*
X152292262Y-98824819D01*
X152292262Y-98824819D02*
X152482738Y-98824819D01*
X152482738Y-98824819D02*
X152577976Y-98777200D01*
X152577976Y-98777200D02*
X152625595Y-98729580D01*
X152625595Y-98729580D02*
X152673214Y-98634342D01*
X152673214Y-98634342D02*
X152673214Y-98443866D01*
X152673214Y-98443866D02*
X152625595Y-98348628D01*
X152625595Y-98348628D02*
X152577976Y-98301009D01*
X152577976Y-98301009D02*
X152482738Y-98253390D01*
X113292857Y-68604819D02*
X113292857Y-67604819D01*
X113292857Y-67604819D02*
X113673809Y-67604819D01*
X113673809Y-67604819D02*
X113769047Y-67652438D01*
X113769047Y-67652438D02*
X113816666Y-67700057D01*
X113816666Y-67700057D02*
X113864285Y-67795295D01*
X113864285Y-67795295D02*
X113864285Y-67938152D01*
X113864285Y-67938152D02*
X113816666Y-68033390D01*
X113816666Y-68033390D02*
X113769047Y-68081009D01*
X113769047Y-68081009D02*
X113673809Y-68128628D01*
X113673809Y-68128628D02*
X113292857Y-68128628D01*
X114435714Y-68604819D02*
X114340476Y-68557200D01*
X114340476Y-68557200D02*
X114292857Y-68509580D01*
X114292857Y-68509580D02*
X114245238Y-68414342D01*
X114245238Y-68414342D02*
X114245238Y-68128628D01*
X114245238Y-68128628D02*
X114292857Y-68033390D01*
X114292857Y-68033390D02*
X114340476Y-67985771D01*
X114340476Y-67985771D02*
X114435714Y-67938152D01*
X114435714Y-67938152D02*
X114578571Y-67938152D01*
X114578571Y-67938152D02*
X114673809Y-67985771D01*
X114673809Y-67985771D02*
X114721428Y-68033390D01*
X114721428Y-68033390D02*
X114769047Y-68128628D01*
X114769047Y-68128628D02*
X114769047Y-68414342D01*
X114769047Y-68414342D02*
X114721428Y-68509580D01*
X114721428Y-68509580D02*
X114673809Y-68557200D01*
X114673809Y-68557200D02*
X114578571Y-68604819D01*
X114578571Y-68604819D02*
X114435714Y-68604819D01*
X115102381Y-67938152D02*
X115292857Y-68604819D01*
X115292857Y-68604819D02*
X115483333Y-68128628D01*
X115483333Y-68128628D02*
X115673809Y-68604819D01*
X115673809Y-68604819D02*
X115864285Y-67938152D01*
X116626190Y-68557200D02*
X116530952Y-68604819D01*
X116530952Y-68604819D02*
X116340476Y-68604819D01*
X116340476Y-68604819D02*
X116245238Y-68557200D01*
X116245238Y-68557200D02*
X116197619Y-68461961D01*
X116197619Y-68461961D02*
X116197619Y-68081009D01*
X116197619Y-68081009D02*
X116245238Y-67985771D01*
X116245238Y-67985771D02*
X116340476Y-67938152D01*
X116340476Y-67938152D02*
X116530952Y-67938152D01*
X116530952Y-67938152D02*
X116626190Y-67985771D01*
X116626190Y-67985771D02*
X116673809Y-68081009D01*
X116673809Y-68081009D02*
X116673809Y-68176247D01*
X116673809Y-68176247D02*
X116197619Y-68271485D01*
X117102381Y-68604819D02*
X117102381Y-67938152D01*
X117102381Y-68128628D02*
X117150000Y-68033390D01*
X117150000Y-68033390D02*
X117197619Y-67985771D01*
X117197619Y-67985771D02*
X117292857Y-67938152D01*
X117292857Y-67938152D02*
X117388095Y-67938152D01*
X117673810Y-68557200D02*
X117816667Y-68604819D01*
X117816667Y-68604819D02*
X118054762Y-68604819D01*
X118054762Y-68604819D02*
X118150000Y-68557200D01*
X118150000Y-68557200D02*
X118197619Y-68509580D01*
X118197619Y-68509580D02*
X118245238Y-68414342D01*
X118245238Y-68414342D02*
X118245238Y-68319104D01*
X118245238Y-68319104D02*
X118197619Y-68223866D01*
X118197619Y-68223866D02*
X118150000Y-68176247D01*
X118150000Y-68176247D02*
X118054762Y-68128628D01*
X118054762Y-68128628D02*
X117864286Y-68081009D01*
X117864286Y-68081009D02*
X117769048Y-68033390D01*
X117769048Y-68033390D02*
X117721429Y-67985771D01*
X117721429Y-67985771D02*
X117673810Y-67890533D01*
X117673810Y-67890533D02*
X117673810Y-67795295D01*
X117673810Y-67795295D02*
X117721429Y-67700057D01*
X117721429Y-67700057D02*
X117769048Y-67652438D01*
X117769048Y-67652438D02*
X117864286Y-67604819D01*
X117864286Y-67604819D02*
X118102381Y-67604819D01*
X118102381Y-67604819D02*
X118245238Y-67652438D01*
X118578572Y-67938152D02*
X118769048Y-68604819D01*
X118769048Y-68604819D02*
X118959524Y-68128628D01*
X118959524Y-68128628D02*
X119150000Y-68604819D01*
X119150000Y-68604819D02*
X119340476Y-67938152D01*
X119721429Y-68604819D02*
X119721429Y-67938152D01*
X119721429Y-67604819D02*
X119673810Y-67652438D01*
X119673810Y-67652438D02*
X119721429Y-67700057D01*
X119721429Y-67700057D02*
X119769048Y-67652438D01*
X119769048Y-67652438D02*
X119721429Y-67604819D01*
X119721429Y-67604819D02*
X119721429Y-67700057D01*
X120054762Y-67938152D02*
X120435714Y-67938152D01*
X120197619Y-67604819D02*
X120197619Y-68461961D01*
X120197619Y-68461961D02*
X120245238Y-68557200D01*
X120245238Y-68557200D02*
X120340476Y-68604819D01*
X120340476Y-68604819D02*
X120435714Y-68604819D01*
X121197619Y-68557200D02*
X121102381Y-68604819D01*
X121102381Y-68604819D02*
X120911905Y-68604819D01*
X120911905Y-68604819D02*
X120816667Y-68557200D01*
X120816667Y-68557200D02*
X120769048Y-68509580D01*
X120769048Y-68509580D02*
X120721429Y-68414342D01*
X120721429Y-68414342D02*
X120721429Y-68128628D01*
X120721429Y-68128628D02*
X120769048Y-68033390D01*
X120769048Y-68033390D02*
X120816667Y-67985771D01*
X120816667Y-67985771D02*
X120911905Y-67938152D01*
X120911905Y-67938152D02*
X121102381Y-67938152D01*
X121102381Y-67938152D02*
X121197619Y-67985771D01*
X121626191Y-68604819D02*
X121626191Y-67604819D01*
X122054762Y-68604819D02*
X122054762Y-68081009D01*
X122054762Y-68081009D02*
X122007143Y-67985771D01*
X122007143Y-67985771D02*
X121911905Y-67938152D01*
X121911905Y-67938152D02*
X121769048Y-67938152D01*
X121769048Y-67938152D02*
X121673810Y-67985771D01*
X121673810Y-67985771D02*
X121626191Y-68033390D01*
X123054762Y-68604819D02*
X122483334Y-68604819D01*
X122769048Y-68604819D02*
X122769048Y-67604819D01*
X122769048Y-67604819D02*
X122673810Y-67747676D01*
X122673810Y-67747676D02*
X122578572Y-67842914D01*
X122578572Y-67842914D02*
X122483334Y-67890533D01*
X189248595Y-96848821D02*
X189248595Y-97658344D01*
X189248595Y-97658344D02*
X189296214Y-97753582D01*
X189296214Y-97753582D02*
X189343833Y-97801202D01*
X189343833Y-97801202D02*
X189439071Y-97848821D01*
X189439071Y-97848821D02*
X189629547Y-97848821D01*
X189629547Y-97848821D02*
X189724785Y-97801202D01*
X189724785Y-97801202D02*
X189772404Y-97753582D01*
X189772404Y-97753582D02*
X189820023Y-97658344D01*
X189820023Y-97658344D02*
X189820023Y-96848821D01*
X190200976Y-96848821D02*
X190820023Y-96848821D01*
X190820023Y-96848821D02*
X190486690Y-97229773D01*
X190486690Y-97229773D02*
X190629547Y-97229773D01*
X190629547Y-97229773D02*
X190724785Y-97277392D01*
X190724785Y-97277392D02*
X190772404Y-97325011D01*
X190772404Y-97325011D02*
X190820023Y-97420249D01*
X190820023Y-97420249D02*
X190820023Y-97658344D01*
X190820023Y-97658344D02*
X190772404Y-97753582D01*
X190772404Y-97753582D02*
X190724785Y-97801202D01*
X190724785Y-97801202D02*
X190629547Y-97848821D01*
X190629547Y-97848821D02*
X190343833Y-97848821D01*
X190343833Y-97848821D02*
X190248595Y-97801202D01*
X190248595Y-97801202D02*
X190200976Y-97753582D01*
X127035713Y-106729580D02*
X126988094Y-106777200D01*
X126988094Y-106777200D02*
X126845237Y-106824819D01*
X126845237Y-106824819D02*
X126749999Y-106824819D01*
X126749999Y-106824819D02*
X126607142Y-106777200D01*
X126607142Y-106777200D02*
X126511904Y-106681961D01*
X126511904Y-106681961D02*
X126464285Y-106586723D01*
X126464285Y-106586723D02*
X126416666Y-106396247D01*
X126416666Y-106396247D02*
X126416666Y-106253390D01*
X126416666Y-106253390D02*
X126464285Y-106062914D01*
X126464285Y-106062914D02*
X126511904Y-105967676D01*
X126511904Y-105967676D02*
X126607142Y-105872438D01*
X126607142Y-105872438D02*
X126749999Y-105824819D01*
X126749999Y-105824819D02*
X126845237Y-105824819D01*
X126845237Y-105824819D02*
X126988094Y-105872438D01*
X126988094Y-105872438D02*
X127035713Y-105920057D01*
X127607142Y-106824819D02*
X127511904Y-106777200D01*
X127511904Y-106777200D02*
X127464285Y-106729580D01*
X127464285Y-106729580D02*
X127416666Y-106634342D01*
X127416666Y-106634342D02*
X127416666Y-106348628D01*
X127416666Y-106348628D02*
X127464285Y-106253390D01*
X127464285Y-106253390D02*
X127511904Y-106205771D01*
X127511904Y-106205771D02*
X127607142Y-106158152D01*
X127607142Y-106158152D02*
X127749999Y-106158152D01*
X127749999Y-106158152D02*
X127845237Y-106205771D01*
X127845237Y-106205771D02*
X127892856Y-106253390D01*
X127892856Y-106253390D02*
X127940475Y-106348628D01*
X127940475Y-106348628D02*
X127940475Y-106634342D01*
X127940475Y-106634342D02*
X127892856Y-106729580D01*
X127892856Y-106729580D02*
X127845237Y-106777200D01*
X127845237Y-106777200D02*
X127749999Y-106824819D01*
X127749999Y-106824819D02*
X127607142Y-106824819D01*
X128369047Y-106158152D02*
X128369047Y-106824819D01*
X128369047Y-106253390D02*
X128416666Y-106205771D01*
X128416666Y-106205771D02*
X128511904Y-106158152D01*
X128511904Y-106158152D02*
X128654761Y-106158152D01*
X128654761Y-106158152D02*
X128749999Y-106205771D01*
X128749999Y-106205771D02*
X128797618Y-106301009D01*
X128797618Y-106301009D02*
X128797618Y-106824819D01*
X129273809Y-106158152D02*
X129273809Y-106824819D01*
X129273809Y-106253390D02*
X129321428Y-106205771D01*
X129321428Y-106205771D02*
X129416666Y-106158152D01*
X129416666Y-106158152D02*
X129559523Y-106158152D01*
X129559523Y-106158152D02*
X129654761Y-106205771D01*
X129654761Y-106205771D02*
X129702380Y-106301009D01*
X129702380Y-106301009D02*
X129702380Y-106824819D01*
X130559523Y-106777200D02*
X130464285Y-106824819D01*
X130464285Y-106824819D02*
X130273809Y-106824819D01*
X130273809Y-106824819D02*
X130178571Y-106777200D01*
X130178571Y-106777200D02*
X130130952Y-106681961D01*
X130130952Y-106681961D02*
X130130952Y-106301009D01*
X130130952Y-106301009D02*
X130178571Y-106205771D01*
X130178571Y-106205771D02*
X130273809Y-106158152D01*
X130273809Y-106158152D02*
X130464285Y-106158152D01*
X130464285Y-106158152D02*
X130559523Y-106205771D01*
X130559523Y-106205771D02*
X130607142Y-106301009D01*
X130607142Y-106301009D02*
X130607142Y-106396247D01*
X130607142Y-106396247D02*
X130130952Y-106491485D01*
X131464285Y-106777200D02*
X131369047Y-106824819D01*
X131369047Y-106824819D02*
X131178571Y-106824819D01*
X131178571Y-106824819D02*
X131083333Y-106777200D01*
X131083333Y-106777200D02*
X131035714Y-106729580D01*
X131035714Y-106729580D02*
X130988095Y-106634342D01*
X130988095Y-106634342D02*
X130988095Y-106348628D01*
X130988095Y-106348628D02*
X131035714Y-106253390D01*
X131035714Y-106253390D02*
X131083333Y-106205771D01*
X131083333Y-106205771D02*
X131178571Y-106158152D01*
X131178571Y-106158152D02*
X131369047Y-106158152D01*
X131369047Y-106158152D02*
X131464285Y-106205771D01*
X131750000Y-106158152D02*
X132130952Y-106158152D01*
X131892857Y-105824819D02*
X131892857Y-106681961D01*
X131892857Y-106681961D02*
X131940476Y-106777200D01*
X131940476Y-106777200D02*
X132035714Y-106824819D01*
X132035714Y-106824819D02*
X132130952Y-106824819D01*
X132607143Y-106824819D02*
X132511905Y-106777200D01*
X132511905Y-106777200D02*
X132464286Y-106729580D01*
X132464286Y-106729580D02*
X132416667Y-106634342D01*
X132416667Y-106634342D02*
X132416667Y-106348628D01*
X132416667Y-106348628D02*
X132464286Y-106253390D01*
X132464286Y-106253390D02*
X132511905Y-106205771D01*
X132511905Y-106205771D02*
X132607143Y-106158152D01*
X132607143Y-106158152D02*
X132750000Y-106158152D01*
X132750000Y-106158152D02*
X132845238Y-106205771D01*
X132845238Y-106205771D02*
X132892857Y-106253390D01*
X132892857Y-106253390D02*
X132940476Y-106348628D01*
X132940476Y-106348628D02*
X132940476Y-106634342D01*
X132940476Y-106634342D02*
X132892857Y-106729580D01*
X132892857Y-106729580D02*
X132845238Y-106777200D01*
X132845238Y-106777200D02*
X132750000Y-106824819D01*
X132750000Y-106824819D02*
X132607143Y-106824819D01*
X133369048Y-106824819D02*
X133369048Y-106158152D01*
X133369048Y-106348628D02*
X133416667Y-106253390D01*
X133416667Y-106253390D02*
X133464286Y-106205771D01*
X133464286Y-106205771D02*
X133559524Y-106158152D01*
X133559524Y-106158152D02*
X133654762Y-106158152D01*
X133750001Y-106920057D02*
X134511905Y-106920057D01*
X135226191Y-106824819D02*
X134750001Y-106824819D01*
X134750001Y-106824819D02*
X134750001Y-105824819D01*
X136130953Y-106729580D02*
X136083334Y-106777200D01*
X136083334Y-106777200D02*
X135940477Y-106824819D01*
X135940477Y-106824819D02*
X135845239Y-106824819D01*
X135845239Y-106824819D02*
X135702382Y-106777200D01*
X135702382Y-106777200D02*
X135607144Y-106681961D01*
X135607144Y-106681961D02*
X135559525Y-106586723D01*
X135559525Y-106586723D02*
X135511906Y-106396247D01*
X135511906Y-106396247D02*
X135511906Y-106253390D01*
X135511906Y-106253390D02*
X135559525Y-106062914D01*
X135559525Y-106062914D02*
X135607144Y-105967676D01*
X135607144Y-105967676D02*
X135702382Y-105872438D01*
X135702382Y-105872438D02*
X135845239Y-105824819D01*
X135845239Y-105824819D02*
X135940477Y-105824819D01*
X135940477Y-105824819D02*
X136083334Y-105872438D01*
X136083334Y-105872438D02*
X136130953Y-105920057D01*
X136559525Y-106824819D02*
X136559525Y-105824819D01*
X136559525Y-105824819D02*
X136797620Y-105824819D01*
X136797620Y-105824819D02*
X136940477Y-105872438D01*
X136940477Y-105872438D02*
X137035715Y-105967676D01*
X137035715Y-105967676D02*
X137083334Y-106062914D01*
X137083334Y-106062914D02*
X137130953Y-106253390D01*
X137130953Y-106253390D02*
X137130953Y-106396247D01*
X137130953Y-106396247D02*
X137083334Y-106586723D01*
X137083334Y-106586723D02*
X137035715Y-106681961D01*
X137035715Y-106681961D02*
X136940477Y-106777200D01*
X136940477Y-106777200D02*
X136797620Y-106824819D01*
X136797620Y-106824819D02*
X136559525Y-106824819D01*
X138083334Y-106824819D02*
X137511906Y-106824819D01*
X137797620Y-106824819D02*
X137797620Y-105824819D01*
X137797620Y-105824819D02*
X137702382Y-105967676D01*
X137702382Y-105967676D02*
X137607144Y-106062914D01*
X137607144Y-106062914D02*
X137511906Y-106110533D01*
X198731009Y-100435714D02*
X198731009Y-100769047D01*
X199254819Y-100769047D02*
X198254819Y-100769047D01*
X198254819Y-100769047D02*
X198254819Y-100292857D01*
X199254819Y-99911904D02*
X198254819Y-99911904D01*
X198254819Y-99911904D02*
X198254819Y-99530952D01*
X198254819Y-99530952D02*
X198302438Y-99435714D01*
X198302438Y-99435714D02*
X198350057Y-99388095D01*
X198350057Y-99388095D02*
X198445295Y-99340476D01*
X198445295Y-99340476D02*
X198588152Y-99340476D01*
X198588152Y-99340476D02*
X198683390Y-99388095D01*
X198683390Y-99388095D02*
X198731009Y-99435714D01*
X198731009Y-99435714D02*
X198778628Y-99530952D01*
X198778628Y-99530952D02*
X198778628Y-99911904D01*
X199254819Y-98911904D02*
X198254819Y-98911904D01*
X198254819Y-98911904D02*
X198254819Y-98530952D01*
X198254819Y-98530952D02*
X198302438Y-98435714D01*
X198302438Y-98435714D02*
X198350057Y-98388095D01*
X198350057Y-98388095D02*
X198445295Y-98340476D01*
X198445295Y-98340476D02*
X198588152Y-98340476D01*
X198588152Y-98340476D02*
X198683390Y-98388095D01*
X198683390Y-98388095D02*
X198731009Y-98435714D01*
X198731009Y-98435714D02*
X198778628Y-98530952D01*
X198778628Y-98530952D02*
X198778628Y-98911904D01*
X199350057Y-98150000D02*
X199350057Y-97388095D01*
X199207200Y-96721428D02*
X199254819Y-96816666D01*
X199254819Y-96816666D02*
X199254819Y-97007142D01*
X199254819Y-97007142D02*
X199207200Y-97102380D01*
X199207200Y-97102380D02*
X199159580Y-97149999D01*
X199159580Y-97149999D02*
X199064342Y-97197618D01*
X199064342Y-97197618D02*
X198778628Y-97197618D01*
X198778628Y-97197618D02*
X198683390Y-97149999D01*
X198683390Y-97149999D02*
X198635771Y-97102380D01*
X198635771Y-97102380D02*
X198588152Y-97007142D01*
X198588152Y-97007142D02*
X198588152Y-96816666D01*
X198588152Y-96816666D02*
X198635771Y-96721428D01*
X199254819Y-96149999D02*
X199207200Y-96245237D01*
X199207200Y-96245237D02*
X199159580Y-96292856D01*
X199159580Y-96292856D02*
X199064342Y-96340475D01*
X199064342Y-96340475D02*
X198778628Y-96340475D01*
X198778628Y-96340475D02*
X198683390Y-96292856D01*
X198683390Y-96292856D02*
X198635771Y-96245237D01*
X198635771Y-96245237D02*
X198588152Y-96149999D01*
X198588152Y-96149999D02*
X198588152Y-96007142D01*
X198588152Y-96007142D02*
X198635771Y-95911904D01*
X198635771Y-95911904D02*
X198683390Y-95864285D01*
X198683390Y-95864285D02*
X198778628Y-95816666D01*
X198778628Y-95816666D02*
X199064342Y-95816666D01*
X199064342Y-95816666D02*
X199159580Y-95864285D01*
X199159580Y-95864285D02*
X199207200Y-95911904D01*
X199207200Y-95911904D02*
X199254819Y-96007142D01*
X199254819Y-96007142D02*
X199254819Y-96149999D01*
X198588152Y-95388094D02*
X199254819Y-95388094D01*
X198683390Y-95388094D02*
X198635771Y-95340475D01*
X198635771Y-95340475D02*
X198588152Y-95245237D01*
X198588152Y-95245237D02*
X198588152Y-95102380D01*
X198588152Y-95102380D02*
X198635771Y-95007142D01*
X198635771Y-95007142D02*
X198731009Y-94959523D01*
X198731009Y-94959523D02*
X199254819Y-94959523D01*
X198588152Y-94483332D02*
X199254819Y-94483332D01*
X198683390Y-94483332D02*
X198635771Y-94435713D01*
X198635771Y-94435713D02*
X198588152Y-94340475D01*
X198588152Y-94340475D02*
X198588152Y-94197618D01*
X198588152Y-94197618D02*
X198635771Y-94102380D01*
X198635771Y-94102380D02*
X198731009Y-94054761D01*
X198731009Y-94054761D02*
X199254819Y-94054761D01*
X199207200Y-93197618D02*
X199254819Y-93292856D01*
X199254819Y-93292856D02*
X199254819Y-93483332D01*
X199254819Y-93483332D02*
X199207200Y-93578570D01*
X199207200Y-93578570D02*
X199111961Y-93626189D01*
X199111961Y-93626189D02*
X198731009Y-93626189D01*
X198731009Y-93626189D02*
X198635771Y-93578570D01*
X198635771Y-93578570D02*
X198588152Y-93483332D01*
X198588152Y-93483332D02*
X198588152Y-93292856D01*
X198588152Y-93292856D02*
X198635771Y-93197618D01*
X198635771Y-93197618D02*
X198731009Y-93149999D01*
X198731009Y-93149999D02*
X198826247Y-93149999D01*
X198826247Y-93149999D02*
X198921485Y-93626189D01*
X199207200Y-92292856D02*
X199254819Y-92388094D01*
X199254819Y-92388094D02*
X199254819Y-92578570D01*
X199254819Y-92578570D02*
X199207200Y-92673808D01*
X199207200Y-92673808D02*
X199159580Y-92721427D01*
X199159580Y-92721427D02*
X199064342Y-92769046D01*
X199064342Y-92769046D02*
X198778628Y-92769046D01*
X198778628Y-92769046D02*
X198683390Y-92721427D01*
X198683390Y-92721427D02*
X198635771Y-92673808D01*
X198635771Y-92673808D02*
X198588152Y-92578570D01*
X198588152Y-92578570D02*
X198588152Y-92388094D01*
X198588152Y-92388094D02*
X198635771Y-92292856D01*
X198588152Y-92007141D02*
X198588152Y-91626189D01*
X198254819Y-91864284D02*
X199111961Y-91864284D01*
X199111961Y-91864284D02*
X199207200Y-91816665D01*
X199207200Y-91816665D02*
X199254819Y-91721427D01*
X199254819Y-91721427D02*
X199254819Y-91626189D01*
X199254819Y-91292855D02*
X198588152Y-91292855D01*
X198254819Y-91292855D02*
X198302438Y-91340474D01*
X198302438Y-91340474D02*
X198350057Y-91292855D01*
X198350057Y-91292855D02*
X198302438Y-91245236D01*
X198302438Y-91245236D02*
X198254819Y-91292855D01*
X198254819Y-91292855D02*
X198350057Y-91292855D01*
X199254819Y-90673808D02*
X199207200Y-90769046D01*
X199207200Y-90769046D02*
X199159580Y-90816665D01*
X199159580Y-90816665D02*
X199064342Y-90864284D01*
X199064342Y-90864284D02*
X198778628Y-90864284D01*
X198778628Y-90864284D02*
X198683390Y-90816665D01*
X198683390Y-90816665D02*
X198635771Y-90769046D01*
X198635771Y-90769046D02*
X198588152Y-90673808D01*
X198588152Y-90673808D02*
X198588152Y-90530951D01*
X198588152Y-90530951D02*
X198635771Y-90435713D01*
X198635771Y-90435713D02*
X198683390Y-90388094D01*
X198683390Y-90388094D02*
X198778628Y-90340475D01*
X198778628Y-90340475D02*
X199064342Y-90340475D01*
X199064342Y-90340475D02*
X199159580Y-90388094D01*
X199159580Y-90388094D02*
X199207200Y-90435713D01*
X199207200Y-90435713D02*
X199254819Y-90530951D01*
X199254819Y-90530951D02*
X199254819Y-90673808D01*
X198588152Y-89911903D02*
X199254819Y-89911903D01*
X198683390Y-89911903D02*
X198635771Y-89864284D01*
X198635771Y-89864284D02*
X198588152Y-89769046D01*
X198588152Y-89769046D02*
X198588152Y-89626189D01*
X198588152Y-89626189D02*
X198635771Y-89530951D01*
X198635771Y-89530951D02*
X198731009Y-89483332D01*
X198731009Y-89483332D02*
X199254819Y-89483332D01*
X199254819Y-88483332D02*
X199254819Y-89054760D01*
X199254819Y-88769046D02*
X198254819Y-88769046D01*
X198254819Y-88769046D02*
X198397676Y-88864284D01*
X198397676Y-88864284D02*
X198492914Y-88959522D01*
X198492914Y-88959522D02*
X198540533Y-89054760D01*
X145304819Y-75623332D02*
X144304819Y-75623332D01*
X144304819Y-75623332D02*
X145019104Y-75289999D01*
X145019104Y-75289999D02*
X144304819Y-74956666D01*
X144304819Y-74956666D02*
X145304819Y-74956666D01*
X145209580Y-73909047D02*
X145257200Y-73956666D01*
X145257200Y-73956666D02*
X145304819Y-74099523D01*
X145304819Y-74099523D02*
X145304819Y-74194761D01*
X145304819Y-74194761D02*
X145257200Y-74337618D01*
X145257200Y-74337618D02*
X145161961Y-74432856D01*
X145161961Y-74432856D02*
X145066723Y-74480475D01*
X145066723Y-74480475D02*
X144876247Y-74528094D01*
X144876247Y-74528094D02*
X144733390Y-74528094D01*
X144733390Y-74528094D02*
X144542914Y-74480475D01*
X144542914Y-74480475D02*
X144447676Y-74432856D01*
X144447676Y-74432856D02*
X144352438Y-74337618D01*
X144352438Y-74337618D02*
X144304819Y-74194761D01*
X144304819Y-74194761D02*
X144304819Y-74099523D01*
X144304819Y-74099523D02*
X144352438Y-73956666D01*
X144352438Y-73956666D02*
X144400057Y-73909047D01*
X144304819Y-73480475D02*
X145114342Y-73480475D01*
X145114342Y-73480475D02*
X145209580Y-73432856D01*
X145209580Y-73432856D02*
X145257200Y-73385237D01*
X145257200Y-73385237D02*
X145304819Y-73289999D01*
X145304819Y-73289999D02*
X145304819Y-73099523D01*
X145304819Y-73099523D02*
X145257200Y-73004285D01*
X145257200Y-73004285D02*
X145209580Y-72956666D01*
X145209580Y-72956666D02*
X145114342Y-72909047D01*
X145114342Y-72909047D02*
X144304819Y-72909047D01*
X145304819Y-71909047D02*
X145304819Y-72480475D01*
X145304819Y-72194761D02*
X144304819Y-72194761D01*
X144304819Y-72194761D02*
X144447676Y-72289999D01*
X144447676Y-72289999D02*
X144542914Y-72385237D01*
X144542914Y-72385237D02*
X144590533Y-72480475D01*
X140754819Y-107953333D02*
X141469104Y-107953333D01*
X141469104Y-107953333D02*
X141611961Y-108000952D01*
X141611961Y-108000952D02*
X141707200Y-108096190D01*
X141707200Y-108096190D02*
X141754819Y-108239047D01*
X141754819Y-108239047D02*
X141754819Y-108334285D01*
X140754819Y-107572380D02*
X140754819Y-106953333D01*
X140754819Y-106953333D02*
X141135771Y-107286666D01*
X141135771Y-107286666D02*
X141135771Y-107143809D01*
X141135771Y-107143809D02*
X141183390Y-107048571D01*
X141183390Y-107048571D02*
X141231009Y-107000952D01*
X141231009Y-107000952D02*
X141326247Y-106953333D01*
X141326247Y-106953333D02*
X141564342Y-106953333D01*
X141564342Y-106953333D02*
X141659580Y-107000952D01*
X141659580Y-107000952D02*
X141707200Y-107048571D01*
X141707200Y-107048571D02*
X141754819Y-107143809D01*
X141754819Y-107143809D02*
X141754819Y-107429523D01*
X141754819Y-107429523D02*
X141707200Y-107524761D01*
X141707200Y-107524761D02*
X141659580Y-107572380D01*
X123314819Y-98505357D02*
X122838628Y-98838690D01*
X123314819Y-99076785D02*
X122314819Y-99076785D01*
X122314819Y-99076785D02*
X122314819Y-98695833D01*
X122314819Y-98695833D02*
X122362438Y-98600595D01*
X122362438Y-98600595D02*
X122410057Y-98552976D01*
X122410057Y-98552976D02*
X122505295Y-98505357D01*
X122505295Y-98505357D02*
X122648152Y-98505357D01*
X122648152Y-98505357D02*
X122743390Y-98552976D01*
X122743390Y-98552976D02*
X122791009Y-98600595D01*
X122791009Y-98600595D02*
X122838628Y-98695833D01*
X122838628Y-98695833D02*
X122838628Y-99076785D01*
X123314819Y-97552976D02*
X123314819Y-98124404D01*
X123314819Y-97838690D02*
X122314819Y-97838690D01*
X122314819Y-97838690D02*
X122457676Y-97933928D01*
X122457676Y-97933928D02*
X122552914Y-98029166D01*
X122552914Y-98029166D02*
X122600533Y-98124404D01*
X122648152Y-96695833D02*
X123314819Y-96695833D01*
X122267200Y-96933928D02*
X122981485Y-97172023D01*
X122981485Y-97172023D02*
X122981485Y-96552976D01*
X129028095Y-91004819D02*
X129028095Y-91814342D01*
X129028095Y-91814342D02*
X129075714Y-91909580D01*
X129075714Y-91909580D02*
X129123333Y-91957200D01*
X129123333Y-91957200D02*
X129218571Y-92004819D01*
X129218571Y-92004819D02*
X129409047Y-92004819D01*
X129409047Y-92004819D02*
X129504285Y-91957200D01*
X129504285Y-91957200D02*
X129551904Y-91909580D01*
X129551904Y-91909580D02*
X129599523Y-91814342D01*
X129599523Y-91814342D02*
X129599523Y-91004819D01*
X130028095Y-91100057D02*
X130075714Y-91052438D01*
X130075714Y-91052438D02*
X130170952Y-91004819D01*
X130170952Y-91004819D02*
X130409047Y-91004819D01*
X130409047Y-91004819D02*
X130504285Y-91052438D01*
X130504285Y-91052438D02*
X130551904Y-91100057D01*
X130551904Y-91100057D02*
X130599523Y-91195295D01*
X130599523Y-91195295D02*
X130599523Y-91290533D01*
X130599523Y-91290533D02*
X130551904Y-91433390D01*
X130551904Y-91433390D02*
X129980476Y-92004819D01*
X129980476Y-92004819D02*
X130599523Y-92004819D01*
X124661905Y-69469819D02*
X124661905Y-68469819D01*
X124661905Y-68469819D02*
X124900000Y-68469819D01*
X124900000Y-68469819D02*
X125042857Y-68517438D01*
X125042857Y-68517438D02*
X125138095Y-68612676D01*
X125138095Y-68612676D02*
X125185714Y-68707914D01*
X125185714Y-68707914D02*
X125233333Y-68898390D01*
X125233333Y-68898390D02*
X125233333Y-69041247D01*
X125233333Y-69041247D02*
X125185714Y-69231723D01*
X125185714Y-69231723D02*
X125138095Y-69326961D01*
X125138095Y-69326961D02*
X125042857Y-69422200D01*
X125042857Y-69422200D02*
X124900000Y-69469819D01*
X124900000Y-69469819D02*
X124661905Y-69469819D01*
X125614286Y-68565057D02*
X125661905Y-68517438D01*
X125661905Y-68517438D02*
X125757143Y-68469819D01*
X125757143Y-68469819D02*
X125995238Y-68469819D01*
X125995238Y-68469819D02*
X126090476Y-68517438D01*
X126090476Y-68517438D02*
X126138095Y-68565057D01*
X126138095Y-68565057D02*
X126185714Y-68660295D01*
X126185714Y-68660295D02*
X126185714Y-68755533D01*
X126185714Y-68755533D02*
X126138095Y-68898390D01*
X126138095Y-68898390D02*
X125566667Y-69469819D01*
X125566667Y-69469819D02*
X126185714Y-69469819D01*
X122195238Y-72307533D02*
X122804762Y-72307533D01*
X122500000Y-72612295D02*
X122500000Y-72002771D01*
X151720833Y-95479580D02*
X151673214Y-95527200D01*
X151673214Y-95527200D02*
X151530357Y-95574819D01*
X151530357Y-95574819D02*
X151435119Y-95574819D01*
X151435119Y-95574819D02*
X151292262Y-95527200D01*
X151292262Y-95527200D02*
X151197024Y-95431961D01*
X151197024Y-95431961D02*
X151149405Y-95336723D01*
X151149405Y-95336723D02*
X151101786Y-95146247D01*
X151101786Y-95146247D02*
X151101786Y-95003390D01*
X151101786Y-95003390D02*
X151149405Y-94812914D01*
X151149405Y-94812914D02*
X151197024Y-94717676D01*
X151197024Y-94717676D02*
X151292262Y-94622438D01*
X151292262Y-94622438D02*
X151435119Y-94574819D01*
X151435119Y-94574819D02*
X151530357Y-94574819D01*
X151530357Y-94574819D02*
X151673214Y-94622438D01*
X151673214Y-94622438D02*
X151720833Y-94670057D01*
X152197024Y-95574819D02*
X152387500Y-95574819D01*
X152387500Y-95574819D02*
X152482738Y-95527200D01*
X152482738Y-95527200D02*
X152530357Y-95479580D01*
X152530357Y-95479580D02*
X152625595Y-95336723D01*
X152625595Y-95336723D02*
X152673214Y-95146247D01*
X152673214Y-95146247D02*
X152673214Y-94765295D01*
X152673214Y-94765295D02*
X152625595Y-94670057D01*
X152625595Y-94670057D02*
X152577976Y-94622438D01*
X152577976Y-94622438D02*
X152482738Y-94574819D01*
X152482738Y-94574819D02*
X152292262Y-94574819D01*
X152292262Y-94574819D02*
X152197024Y-94622438D01*
X152197024Y-94622438D02*
X152149405Y-94670057D01*
X152149405Y-94670057D02*
X152101786Y-94765295D01*
X152101786Y-94765295D02*
X152101786Y-95003390D01*
X152101786Y-95003390D02*
X152149405Y-95098628D01*
X152149405Y-95098628D02*
X152197024Y-95146247D01*
X152197024Y-95146247D02*
X152292262Y-95193866D01*
X152292262Y-95193866D02*
X152482738Y-95193866D01*
X152482738Y-95193866D02*
X152577976Y-95146247D01*
X152577976Y-95146247D02*
X152625595Y-95098628D01*
X152625595Y-95098628D02*
X152673214Y-95003390D01*
X107483333Y-100004819D02*
X107150000Y-99528628D01*
X106911905Y-100004819D02*
X106911905Y-99004819D01*
X106911905Y-99004819D02*
X107292857Y-99004819D01*
X107292857Y-99004819D02*
X107388095Y-99052438D01*
X107388095Y-99052438D02*
X107435714Y-99100057D01*
X107435714Y-99100057D02*
X107483333Y-99195295D01*
X107483333Y-99195295D02*
X107483333Y-99338152D01*
X107483333Y-99338152D02*
X107435714Y-99433390D01*
X107435714Y-99433390D02*
X107388095Y-99481009D01*
X107388095Y-99481009D02*
X107292857Y-99528628D01*
X107292857Y-99528628D02*
X106911905Y-99528628D01*
X108054762Y-99433390D02*
X107959524Y-99385771D01*
X107959524Y-99385771D02*
X107911905Y-99338152D01*
X107911905Y-99338152D02*
X107864286Y-99242914D01*
X107864286Y-99242914D02*
X107864286Y-99195295D01*
X107864286Y-99195295D02*
X107911905Y-99100057D01*
X107911905Y-99100057D02*
X107959524Y-99052438D01*
X107959524Y-99052438D02*
X108054762Y-99004819D01*
X108054762Y-99004819D02*
X108245238Y-99004819D01*
X108245238Y-99004819D02*
X108340476Y-99052438D01*
X108340476Y-99052438D02*
X108388095Y-99100057D01*
X108388095Y-99100057D02*
X108435714Y-99195295D01*
X108435714Y-99195295D02*
X108435714Y-99242914D01*
X108435714Y-99242914D02*
X108388095Y-99338152D01*
X108388095Y-99338152D02*
X108340476Y-99385771D01*
X108340476Y-99385771D02*
X108245238Y-99433390D01*
X108245238Y-99433390D02*
X108054762Y-99433390D01*
X108054762Y-99433390D02*
X107959524Y-99481009D01*
X107959524Y-99481009D02*
X107911905Y-99528628D01*
X107911905Y-99528628D02*
X107864286Y-99623866D01*
X107864286Y-99623866D02*
X107864286Y-99814342D01*
X107864286Y-99814342D02*
X107911905Y-99909580D01*
X107911905Y-99909580D02*
X107959524Y-99957200D01*
X107959524Y-99957200D02*
X108054762Y-100004819D01*
X108054762Y-100004819D02*
X108245238Y-100004819D01*
X108245238Y-100004819D02*
X108340476Y-99957200D01*
X108340476Y-99957200D02*
X108388095Y-99909580D01*
X108388095Y-99909580D02*
X108435714Y-99814342D01*
X108435714Y-99814342D02*
X108435714Y-99623866D01*
X108435714Y-99623866D02*
X108388095Y-99528628D01*
X108388095Y-99528628D02*
X108340476Y-99481009D01*
X108340476Y-99481009D02*
X108245238Y-99433390D01*
X107033333Y-83154819D02*
X106700000Y-82678628D01*
X106461905Y-83154819D02*
X106461905Y-82154819D01*
X106461905Y-82154819D02*
X106842857Y-82154819D01*
X106842857Y-82154819D02*
X106938095Y-82202438D01*
X106938095Y-82202438D02*
X106985714Y-82250057D01*
X106985714Y-82250057D02*
X107033333Y-82345295D01*
X107033333Y-82345295D02*
X107033333Y-82488152D01*
X107033333Y-82488152D02*
X106985714Y-82583390D01*
X106985714Y-82583390D02*
X106938095Y-82631009D01*
X106938095Y-82631009D02*
X106842857Y-82678628D01*
X106842857Y-82678628D02*
X106461905Y-82678628D01*
X107890476Y-82154819D02*
X107700000Y-82154819D01*
X107700000Y-82154819D02*
X107604762Y-82202438D01*
X107604762Y-82202438D02*
X107557143Y-82250057D01*
X107557143Y-82250057D02*
X107461905Y-82392914D01*
X107461905Y-82392914D02*
X107414286Y-82583390D01*
X107414286Y-82583390D02*
X107414286Y-82964342D01*
X107414286Y-82964342D02*
X107461905Y-83059580D01*
X107461905Y-83059580D02*
X107509524Y-83107200D01*
X107509524Y-83107200D02*
X107604762Y-83154819D01*
X107604762Y-83154819D02*
X107795238Y-83154819D01*
X107795238Y-83154819D02*
X107890476Y-83107200D01*
X107890476Y-83107200D02*
X107938095Y-83059580D01*
X107938095Y-83059580D02*
X107985714Y-82964342D01*
X107985714Y-82964342D02*
X107985714Y-82726247D01*
X107985714Y-82726247D02*
X107938095Y-82631009D01*
X107938095Y-82631009D02*
X107890476Y-82583390D01*
X107890476Y-82583390D02*
X107795238Y-82535771D01*
X107795238Y-82535771D02*
X107604762Y-82535771D01*
X107604762Y-82535771D02*
X107509524Y-82583390D01*
X107509524Y-82583390D02*
X107461905Y-82631009D01*
X107461905Y-82631009D02*
X107414286Y-82726247D01*
X106087319Y-92753333D02*
X106801604Y-92753333D01*
X106801604Y-92753333D02*
X106944461Y-92800952D01*
X106944461Y-92800952D02*
X107039700Y-92896190D01*
X107039700Y-92896190D02*
X107087319Y-93039047D01*
X107087319Y-93039047D02*
X107087319Y-93134285D01*
X106182557Y-92324761D02*
X106134938Y-92277142D01*
X106134938Y-92277142D02*
X106087319Y-92181904D01*
X106087319Y-92181904D02*
X106087319Y-91943809D01*
X106087319Y-91943809D02*
X106134938Y-91848571D01*
X106134938Y-91848571D02*
X106182557Y-91800952D01*
X106182557Y-91800952D02*
X106277795Y-91753333D01*
X106277795Y-91753333D02*
X106373033Y-91753333D01*
X106373033Y-91753333D02*
X106515890Y-91800952D01*
X106515890Y-91800952D02*
X107087319Y-92372380D01*
X107087319Y-92372380D02*
X107087319Y-91753333D01*
D12*
%TO.C,SW2*%
X166372600Y-72828600D02*
X166372600Y-77421457D01*
X166372600Y-77421457D02*
X166372600Y-82721457D01*
X166372600Y-82721457D02*
X166372600Y-85071400D01*
X166372600Y-85071400D02*
X178615400Y-85071400D01*
X178615400Y-72828600D02*
X166372600Y-72828600D01*
X178615400Y-75178543D02*
X178615400Y-72828600D01*
X178615400Y-80478542D02*
X178615400Y-77421457D01*
X178615400Y-85071400D02*
X178615400Y-82721457D01*
X164797800Y-76300000D02*
G75*
G02*
X164391400Y-76300000I-203200J0D01*
G01*
X164391400Y-76300000D02*
G75*
G02*
X164797800Y-76300000I203200J0D01*
G01*
%TO.C,SW3*%
X166372600Y-91378600D02*
X166372600Y-95971457D01*
X178615400Y-91378600D02*
X166372600Y-91378600D01*
X178615400Y-103621400D02*
X178615400Y-101271457D01*
X166372600Y-103621400D02*
X178615400Y-103621400D01*
X164797800Y-94850000D02*
G75*
G02*
X164391400Y-94850000I-203200J0D01*
G01*
X164391400Y-94850000D02*
G75*
G02*
X164797800Y-94850000I203200J0D01*
G01*
X178615400Y-93728543D02*
X178615400Y-91378600D01*
X178615400Y-99028542D02*
X178615400Y-95971457D01*
X166372600Y-101271457D02*
X166372600Y-103621400D01*
X166372600Y-95971457D02*
X166372600Y-101271457D01*
D13*
%TO.C,TP3*%
X175800000Y-106450000D02*
X177700000Y-106450000D01*
X175800000Y-108350000D02*
X175800000Y-106450000D01*
X177700000Y-106450000D02*
X177700000Y-108350000D01*
X177700000Y-108350000D02*
X175800000Y-108350000D01*
%TO.C,TP2*%
X170800000Y-106450000D02*
X172700000Y-106450000D01*
X170800000Y-108350000D02*
X170800000Y-106450000D01*
X172700000Y-106450000D02*
X172700000Y-108350000D01*
X172700000Y-108350000D02*
X170800000Y-108350000D01*
%TO.C,TP1*%
X165800000Y-106450000D02*
X167700000Y-106450000D01*
X165800000Y-108350000D02*
X165800000Y-106450000D01*
X167700000Y-106450000D02*
X167700000Y-108350000D01*
X167700000Y-108350000D02*
X165800000Y-108350000D01*
%TO.C,C25*%
X196043276Y-83971502D02*
X196552724Y-83971502D01*
X196043276Y-85016502D02*
X196552724Y-85016502D01*
%TO.C,C24*%
X196602724Y-82116502D02*
X196093276Y-82116502D01*
X196602724Y-81071502D02*
X196093276Y-81071502D01*
%TO.C,J4*%
X167320000Y-68020000D02*
X157100000Y-68020000D01*
X167320000Y-68020000D02*
X167320000Y-70680000D01*
X157100000Y-68020000D02*
X157100000Y-70680000D01*
X169920000Y-69350000D02*
X169920000Y-70680000D01*
X169920000Y-70680000D02*
X168590000Y-70680000D01*
X167320000Y-70680000D02*
X157100000Y-70680000D01*
%TO.C,C7*%
X152142224Y-102097500D02*
X151632776Y-102097500D01*
X152142224Y-103142500D02*
X151632776Y-103142500D01*
%TO.C,C2*%
X143709776Y-99066500D02*
X144219224Y-99066500D01*
X143709776Y-100111500D02*
X144219224Y-100111500D01*
%TO.C,R15*%
X123767500Y-90367224D02*
X123767500Y-89857776D01*
X124812500Y-90367224D02*
X124812500Y-89857776D01*
%TO.C,U1*%
X119652500Y-92390000D02*
X118852500Y-92390000D01*
X119652500Y-92390000D02*
X120452500Y-92390000D01*
X119652500Y-95510000D02*
X118852500Y-95510000D01*
X119652500Y-95510000D02*
X120452500Y-95510000D01*
X118352500Y-92440000D02*
X118112500Y-92110000D01*
X118592500Y-92110000D01*
X118352500Y-92440000D01*
G36*
X118352500Y-92440000D02*
G01*
X118112500Y-92110000D01*
X118592500Y-92110000D01*
X118352500Y-92440000D01*
G37*
%TO.C,R5*%
X115017500Y-89857776D02*
X115017500Y-90367224D01*
X116062500Y-89857776D02*
X116062500Y-90367224D01*
%TO.C,C6*%
X151611276Y-93066500D02*
X152120724Y-93066500D01*
X151611276Y-94111500D02*
X152120724Y-94111500D01*
%TO.C,C10*%
X159207776Y-93097500D02*
X159717224Y-93097500D01*
X159207776Y-94142500D02*
X159717224Y-94142500D01*
%TO.C,ADC1*%
X183520000Y-80053002D02*
X183190000Y-80293002D01*
X183190000Y-79813002D01*
X183520000Y-80053002D01*
G36*
X183520000Y-80053002D02*
G01*
X183190000Y-80293002D01*
X183190000Y-79813002D01*
X183520000Y-80053002D01*
G37*
X187380000Y-86363002D02*
X189580000Y-86363002D01*
X187380000Y-86363002D02*
X185180000Y-86363002D01*
X187380000Y-79593002D02*
X189580000Y-79593002D01*
X187380000Y-79593002D02*
X185180000Y-79593002D01*
%TO.C,D1*%
X124126000Y-77631121D02*
X124126000Y-77295879D01*
X123366000Y-77631121D02*
X123366000Y-77295879D01*
%TO.C,R13*%
X127268500Y-77708224D02*
X127268500Y-77198776D01*
X126223500Y-77708224D02*
X126223500Y-77198776D01*
%TO.C,TR2*%
X115017500Y-97607776D02*
X115017500Y-98117224D01*
X116062500Y-97607776D02*
X116062500Y-98117224D01*
D12*
%TO.C,opamp1*%
X187433100Y-90225601D02*
G75*
G02*
X186823500Y-90225601I-304800J0D01*
G01*
X188677700Y-90225601D02*
X185578900Y-90225601D01*
X185578900Y-93324401D02*
X188677700Y-93324401D01*
D13*
%TO.C,C12*%
X159719224Y-102066500D02*
X159209776Y-102066500D01*
X159719224Y-103111500D02*
X159209776Y-103111500D01*
%TO.C,C1*%
X143622276Y-102066500D02*
X144131724Y-102066500D01*
X143622276Y-103111500D02*
X144131724Y-103111500D01*
%TO.C,C3*%
X144219224Y-96066500D02*
X143709776Y-96066500D01*
X144219224Y-97111500D02*
X143709776Y-97111500D01*
%TO.C,C13*%
X159719224Y-99066500D02*
X159209776Y-99066500D01*
X159719224Y-100111500D02*
X159209776Y-100111500D01*
%TO.C,C4*%
X143709776Y-93066500D02*
X144219224Y-93066500D01*
X143709776Y-94111500D02*
X144219224Y-94111500D01*
%TO.C,Rcomp1*%
X189626276Y-108135502D02*
X190135724Y-108135502D01*
X189626276Y-107090502D02*
X190135724Y-107090502D01*
%TO.C,C11*%
X159719224Y-96066500D02*
X159209776Y-96066500D01*
X159719224Y-97111500D02*
X159209776Y-97111500D01*
%TO.C,C8*%
X152142224Y-99347500D02*
X151632776Y-99347500D01*
X152142224Y-100392500D02*
X151632776Y-100392500D01*
%TO.C,PowerSwitch1*%
X120890000Y-74780000D02*
X120890000Y-69480000D01*
X120890000Y-73400000D02*
X119890000Y-73400000D01*
X120890000Y-73150000D02*
X119890000Y-73150000D01*
X120890000Y-71110000D02*
X119890000Y-71110000D01*
X120890000Y-69480000D02*
X114870000Y-69480000D01*
X119890000Y-73400000D02*
X119890000Y-70860000D01*
X119890000Y-73400000D02*
X119360000Y-73150000D01*
X119890000Y-70860000D02*
X120890000Y-70860000D01*
X119360000Y-73150000D02*
X119360000Y-71110000D01*
X119360000Y-71110000D02*
X119890000Y-70860000D01*
X115900000Y-75070000D02*
X119900000Y-75070000D01*
X115470000Y-74200000D02*
X115470000Y-72600000D01*
X115470000Y-72600000D02*
X114870000Y-72600000D01*
X115470000Y-71660000D02*
X115470000Y-70060000D01*
X115470000Y-70060000D02*
X114870000Y-70060000D01*
X114870000Y-74780000D02*
X120890000Y-74780000D01*
X114870000Y-74200000D02*
X115470000Y-74200000D01*
X114870000Y-71660000D02*
X115470000Y-71660000D01*
X114870000Y-69480000D02*
X114870000Y-74780000D01*
%TO.C,U3*%
X186880500Y-98584002D02*
X186640500Y-98254002D01*
X187120500Y-98254002D01*
X186880500Y-98584002D01*
G36*
X186880500Y-98584002D02*
G01*
X186640500Y-98254002D01*
X187120500Y-98254002D01*
X186880500Y-98584002D01*
G37*
X191920500Y-105304002D02*
X191920500Y-104044002D01*
X191920500Y-98484002D02*
X191920500Y-99744002D01*
X188160500Y-105304002D02*
X191920500Y-105304002D01*
X188160500Y-98484002D02*
X191920500Y-98484002D01*
%TO.C,Connector_LCD1*%
X124070000Y-107540000D02*
X125400000Y-107540000D01*
X124070000Y-108870000D02*
X124070000Y-107540000D01*
X126670000Y-107540000D02*
X139430000Y-107540000D01*
X126670000Y-110200000D02*
X126670000Y-107540000D01*
X126670000Y-110200000D02*
X139430000Y-110200000D01*
X139430000Y-110200000D02*
X139430000Y-107540000D01*
%TO.C,FPP_connection1*%
X197590500Y-91214002D02*
X197590500Y-98894002D01*
X194930500Y-98894002D02*
X197590500Y-98894002D01*
X194930500Y-91214002D02*
X197590500Y-91214002D01*
X194930500Y-91214002D02*
X194930500Y-98894002D01*
X194930500Y-89944002D02*
X194930500Y-88614002D01*
X194930500Y-88614002D02*
X196260500Y-88614002D01*
%TO.C,MCU1*%
X135650000Y-67765000D02*
X135150000Y-67765000D01*
X135650000Y-67265000D01*
X135650000Y-67765000D01*
G36*
X135650000Y-67765000D02*
G01*
X135150000Y-67765000D01*
X135650000Y-67265000D01*
X135650000Y-67765000D01*
G37*
X154050000Y-86740000D02*
X154050000Y-85740000D01*
X154050000Y-86740000D02*
X152550000Y-86740000D01*
X154050000Y-60890000D02*
X154050000Y-67090000D01*
X135650000Y-86740000D02*
X137150000Y-86740000D01*
X135650000Y-85740000D02*
X135650000Y-86740000D01*
X135650000Y-60890000D02*
X154050000Y-60890000D01*
X135650000Y-60890000D02*
X135650000Y-67090000D01*
%TO.C,J3*%
X142560000Y-105000000D02*
X143890000Y-105000000D01*
X142560000Y-106330000D02*
X142560000Y-105000000D01*
X142560000Y-107600000D02*
X145160000Y-107600000D01*
X142560000Y-110200000D02*
X142560000Y-107600000D01*
X142560000Y-110200000D02*
X160460000Y-110200000D01*
X145160000Y-105000000D02*
X160460000Y-105000000D01*
X145160000Y-107600000D02*
X145160000Y-105000000D01*
X160460000Y-110200000D02*
X160460000Y-105000000D01*
%TO.C,R14*%
X123767500Y-98117224D02*
X123767500Y-97607776D01*
X124812500Y-98117224D02*
X124812500Y-97607776D01*
%TO.C,U2*%
X129790000Y-92390000D02*
X128990000Y-92390000D01*
X129790000Y-92390000D02*
X130590000Y-92390000D01*
X129790000Y-95510000D02*
X128990000Y-95510000D01*
X129790000Y-95510000D02*
X130590000Y-95510000D01*
X128490000Y-92440000D02*
X128250000Y-92110000D01*
X128730000Y-92110000D01*
X128490000Y-92440000D01*
G36*
X128490000Y-92440000D02*
G01*
X128250000Y-92110000D01*
X128730000Y-92110000D01*
X128490000Y-92440000D01*
G37*
D14*
%TO.C,D2*%
X127000001Y-73470000D02*
G75*
G02*
X123470000Y-72920000I-1599290J1338561D01*
G01*
X123470000Y-71380000D02*
G75*
G02*
X127000001Y-70830000I1930711J-788561D01*
G01*
D15*
X127000000Y-73150000D02*
X127000000Y-73470000D01*
X127000000Y-71150000D02*
X127000000Y-70830000D01*
D13*
%TO.C,C9*%
X152142224Y-96097500D02*
X151632776Y-96097500D01*
X152142224Y-97142500D02*
X151632776Y-97142500D01*
%TO.C,R8*%
X107842224Y-101472500D02*
X107332776Y-101472500D01*
X107842224Y-100427500D02*
X107332776Y-100427500D01*
%TO.C,R6*%
X107442224Y-84572500D02*
X106932776Y-84572500D01*
X107442224Y-83527500D02*
X106932776Y-83527500D01*
D15*
%TO.C,J2*%
X112192500Y-89160000D02*
G75*
G02*
X111992500Y-89160000I-100000J0D01*
G01*
X111992500Y-89160000D02*
G75*
G02*
X112192500Y-89160000I100000J0D01*
G01*
%TD*%
M02*
