%TF.GenerationSoftware,KiCad,Pcbnew,8.0.4*%
%TF.CreationDate,2024-10-15T03:37:40-05:00*%
%TF.ProjectId,FPP_10_8,4650505f-3130-45f3-982e-6b696361645f,rev?*%
%TF.SameCoordinates,Original*%
%TF.FileFunction,Profile,NP*%
%FSLAX46Y46*%
G04 Gerber Fmt 4.6, Leading zero omitted, Abs format (unit mm)*
G04 Created by KiCad (PCBNEW 8.0.4) date 2024-10-15 03:37:40*
%MOMM*%
%LPD*%
G01*
G04 APERTURE LIST*
%ADD10C,0.150000*%
%TA.AperFunction,Profile*%
%ADD11C,0.050000*%
%TD*%
%TA.AperFunction,Profile*%
%ADD12C,0.010000*%
%TD*%
G04 APERTURE END LIST*
D10*
X113007142Y-103676121D02*
X112673809Y-103676121D01*
X112673809Y-104199931D02*
X112673809Y-103199931D01*
X112673809Y-103199931D02*
X113149999Y-103199931D01*
X113530952Y-104199931D02*
X113530952Y-103199931D01*
X113530952Y-103199931D02*
X113911904Y-103199931D01*
X113911904Y-103199931D02*
X114007142Y-103247550D01*
X114007142Y-103247550D02*
X114054761Y-103295169D01*
X114054761Y-103295169D02*
X114102380Y-103390407D01*
X114102380Y-103390407D02*
X114102380Y-103533264D01*
X114102380Y-103533264D02*
X114054761Y-103628502D01*
X114054761Y-103628502D02*
X114007142Y-103676121D01*
X114007142Y-103676121D02*
X113911904Y-103723740D01*
X113911904Y-103723740D02*
X113530952Y-103723740D01*
X114530952Y-104199931D02*
X114530952Y-103199931D01*
X114530952Y-103199931D02*
X114911904Y-103199931D01*
X114911904Y-103199931D02*
X115007142Y-103247550D01*
X115007142Y-103247550D02*
X115054761Y-103295169D01*
X115054761Y-103295169D02*
X115102380Y-103390407D01*
X115102380Y-103390407D02*
X115102380Y-103533264D01*
X115102380Y-103533264D02*
X115054761Y-103628502D01*
X115054761Y-103628502D02*
X115007142Y-103676121D01*
X115007142Y-103676121D02*
X114911904Y-103723740D01*
X114911904Y-103723740D02*
X114530952Y-103723740D01*
X116150000Y-103199931D02*
X116483333Y-104199931D01*
X116483333Y-104199931D02*
X116816666Y-103199931D01*
X117673809Y-104199931D02*
X117102381Y-104199931D01*
X117388095Y-104199931D02*
X117388095Y-103199931D01*
X117388095Y-103199931D02*
X117292857Y-103342788D01*
X117292857Y-103342788D02*
X117197619Y-103438026D01*
X117197619Y-103438026D02*
X117102381Y-103485645D01*
X110292857Y-104905113D02*
X110340476Y-104857494D01*
X110340476Y-104857494D02*
X110435714Y-104809875D01*
X110435714Y-104809875D02*
X110673809Y-104809875D01*
X110673809Y-104809875D02*
X110769047Y-104857494D01*
X110769047Y-104857494D02*
X110816666Y-104905113D01*
X110816666Y-104905113D02*
X110864285Y-105000351D01*
X110864285Y-105000351D02*
X110864285Y-105095589D01*
X110864285Y-105095589D02*
X110816666Y-105238446D01*
X110816666Y-105238446D02*
X110245238Y-105809875D01*
X110245238Y-105809875D02*
X110864285Y-105809875D01*
X111483333Y-104809875D02*
X111578571Y-104809875D01*
X111578571Y-104809875D02*
X111673809Y-104857494D01*
X111673809Y-104857494D02*
X111721428Y-104905113D01*
X111721428Y-104905113D02*
X111769047Y-105000351D01*
X111769047Y-105000351D02*
X111816666Y-105190827D01*
X111816666Y-105190827D02*
X111816666Y-105428922D01*
X111816666Y-105428922D02*
X111769047Y-105619398D01*
X111769047Y-105619398D02*
X111721428Y-105714636D01*
X111721428Y-105714636D02*
X111673809Y-105762256D01*
X111673809Y-105762256D02*
X111578571Y-105809875D01*
X111578571Y-105809875D02*
X111483333Y-105809875D01*
X111483333Y-105809875D02*
X111388095Y-105762256D01*
X111388095Y-105762256D02*
X111340476Y-105714636D01*
X111340476Y-105714636D02*
X111292857Y-105619398D01*
X111292857Y-105619398D02*
X111245238Y-105428922D01*
X111245238Y-105428922D02*
X111245238Y-105190827D01*
X111245238Y-105190827D02*
X111292857Y-105000351D01*
X111292857Y-105000351D02*
X111340476Y-104905113D01*
X111340476Y-104905113D02*
X111388095Y-104857494D01*
X111388095Y-104857494D02*
X111483333Y-104809875D01*
X112197619Y-104905113D02*
X112245238Y-104857494D01*
X112245238Y-104857494D02*
X112340476Y-104809875D01*
X112340476Y-104809875D02*
X112578571Y-104809875D01*
X112578571Y-104809875D02*
X112673809Y-104857494D01*
X112673809Y-104857494D02*
X112721428Y-104905113D01*
X112721428Y-104905113D02*
X112769047Y-105000351D01*
X112769047Y-105000351D02*
X112769047Y-105095589D01*
X112769047Y-105095589D02*
X112721428Y-105238446D01*
X112721428Y-105238446D02*
X112150000Y-105809875D01*
X112150000Y-105809875D02*
X112769047Y-105809875D01*
X113626190Y-105143208D02*
X113626190Y-105809875D01*
X113388095Y-104762256D02*
X113150000Y-105476541D01*
X113150000Y-105476541D02*
X113769047Y-105476541D01*
X114150000Y-105428922D02*
X114911905Y-105428922D01*
X115911904Y-105809875D02*
X115340476Y-105809875D01*
X115626190Y-105809875D02*
X115626190Y-104809875D01*
X115626190Y-104809875D02*
X115530952Y-104952732D01*
X115530952Y-104952732D02*
X115435714Y-105047970D01*
X115435714Y-105047970D02*
X115340476Y-105095589D01*
X116530952Y-104809875D02*
X116626190Y-104809875D01*
X116626190Y-104809875D02*
X116721428Y-104857494D01*
X116721428Y-104857494D02*
X116769047Y-104905113D01*
X116769047Y-104905113D02*
X116816666Y-105000351D01*
X116816666Y-105000351D02*
X116864285Y-105190827D01*
X116864285Y-105190827D02*
X116864285Y-105428922D01*
X116864285Y-105428922D02*
X116816666Y-105619398D01*
X116816666Y-105619398D02*
X116769047Y-105714636D01*
X116769047Y-105714636D02*
X116721428Y-105762256D01*
X116721428Y-105762256D02*
X116626190Y-105809875D01*
X116626190Y-105809875D02*
X116530952Y-105809875D01*
X116530952Y-105809875D02*
X116435714Y-105762256D01*
X116435714Y-105762256D02*
X116388095Y-105714636D01*
X116388095Y-105714636D02*
X116340476Y-105619398D01*
X116340476Y-105619398D02*
X116292857Y-105428922D01*
X116292857Y-105428922D02*
X116292857Y-105190827D01*
X116292857Y-105190827D02*
X116340476Y-105000351D01*
X116340476Y-105000351D02*
X116388095Y-104905113D01*
X116388095Y-104905113D02*
X116435714Y-104857494D01*
X116435714Y-104857494D02*
X116530952Y-104809875D01*
X117292857Y-105428922D02*
X118054762Y-105428922D01*
X119054761Y-105809875D02*
X118483333Y-105809875D01*
X118769047Y-105809875D02*
X118769047Y-104809875D01*
X118769047Y-104809875D02*
X118673809Y-104952732D01*
X118673809Y-104952732D02*
X118578571Y-105047970D01*
X118578571Y-105047970D02*
X118483333Y-105095589D01*
X119959523Y-104809875D02*
X119483333Y-104809875D01*
X119483333Y-104809875D02*
X119435714Y-105286065D01*
X119435714Y-105286065D02*
X119483333Y-105238446D01*
X119483333Y-105238446D02*
X119578571Y-105190827D01*
X119578571Y-105190827D02*
X119816666Y-105190827D01*
X119816666Y-105190827D02*
X119911904Y-105238446D01*
X119911904Y-105238446D02*
X119959523Y-105286065D01*
X119959523Y-105286065D02*
X120007142Y-105381303D01*
X120007142Y-105381303D02*
X120007142Y-105619398D01*
X120007142Y-105619398D02*
X119959523Y-105714636D01*
X119959523Y-105714636D02*
X119911904Y-105762256D01*
X119911904Y-105762256D02*
X119816666Y-105809875D01*
X119816666Y-105809875D02*
X119578571Y-105809875D01*
X119578571Y-105809875D02*
X119483333Y-105762256D01*
X119483333Y-105762256D02*
X119435714Y-105714636D01*
X112078571Y-106419819D02*
X112649999Y-106419819D01*
X112364285Y-107419819D02*
X112364285Y-106419819D01*
X112983333Y-106896009D02*
X113316666Y-106896009D01*
X113459523Y-107419819D02*
X112983333Y-107419819D01*
X112983333Y-107419819D02*
X112983333Y-106419819D01*
X112983333Y-106419819D02*
X113459523Y-106419819D01*
X113840476Y-107134104D02*
X114316666Y-107134104D01*
X113745238Y-107419819D02*
X114078571Y-106419819D01*
X114078571Y-106419819D02*
X114411904Y-107419819D01*
X114745238Y-107419819D02*
X114745238Y-106419819D01*
X114745238Y-106419819D02*
X115078571Y-107134104D01*
X115078571Y-107134104D02*
X115411904Y-106419819D01*
X115411904Y-106419819D02*
X115411904Y-107419819D01*
X116602381Y-106515057D02*
X116650000Y-106467438D01*
X116650000Y-106467438D02*
X116745238Y-106419819D01*
X116745238Y-106419819D02*
X116983333Y-106419819D01*
X116983333Y-106419819D02*
X117078571Y-106467438D01*
X117078571Y-106467438D02*
X117126190Y-106515057D01*
X117126190Y-106515057D02*
X117173809Y-106610295D01*
X117173809Y-106610295D02*
X117173809Y-106705533D01*
X117173809Y-106705533D02*
X117126190Y-106848390D01*
X117126190Y-106848390D02*
X116554762Y-107419819D01*
X116554762Y-107419819D02*
X117173809Y-107419819D01*
X118030952Y-106753152D02*
X118030952Y-107419819D01*
X117792857Y-106372200D02*
X117554762Y-107086485D01*
X117554762Y-107086485D02*
X118173809Y-107086485D01*
D11*
X103750000Y-66400000D02*
X199750000Y-66400000D01*
X199750000Y-119400000D01*
X103750000Y-119400000D01*
X103750000Y-66400000D01*
D12*
%TO.C,J2*%
X103682500Y-87780000D02*
X103682500Y-97020000D01*
%TD*%
M02*
